<svg width="15" height="15" viewBox="0 0 15 15" fill="none" xmlns="http://www.w3.org/2000/svg">
<path fill-rule="evenodd" clip-rule="evenodd" d="M0.678552 8.11893L12.7759 8.11894L7.12688 13.8253C6.86156 14.0943 6.86156 14.5299 7.12688 14.7982C7.39219 15.0673 7.82172 15.0673 8.08636 14.7982L14.8041 7.98682C15.0653 7.72191 15.0653 7.27878 14.8041 7.01386L8.08636 0.201781C7.82104 -0.0672623 7.39152 -0.0672624 7.12688 0.201781C6.86156 0.470824 6.86156 0.906386 7.12688 1.17474L12.7759 6.74276L0.678552 6.74276C0.303989 6.74276 -2.1661e-06 7.05102 -2.19931e-06 7.43084C-2.23251e-06 7.81067 0.303989 8.11893 0.678552 8.11893Z" fill="#2A3CAC"/>
</svg>
