<svg width="30" height="16" viewBox="0 0 30 16" fill="none" xmlns="http://www.w3.org/2000/svg">
<path d="M30 0H0V15.1374H30V0Z" fill="#509E2F"/>
<path d="M30 0H0V10.0916H30V0Z" fill="#EF3340"/>
<path d="M30 0H0V5.04579H30V0Z" fill="#00B5E2"/>
<path d="M14.25 9.83955C15.4926 9.83955 16.5 8.82296 16.5 7.56894C16.5 6.31492 15.4926 5.29834 14.25 5.29834C13.0074 5.29834 12 6.31492 12 7.56894C12 8.82296 13.0074 9.83955 14.25 9.83955Z" fill="white"/>
<path d="M14.75 9.4611C15.7855 9.4611 16.625 8.61394 16.625 7.56893C16.625 6.52391 15.7855 5.67676 14.75 5.67676C13.7145 5.67676 12.875 6.52391 12.875 7.56893C12.875 8.61394 13.7145 9.4611 14.75 9.4611Z" fill="#EF3340"/>
<path d="M16.75 6.30737L16.9892 6.98611L17.6339 6.67685L17.3274 7.32745L18 7.56882L17.3274 7.81018L17.6339 8.46079L16.9892 8.15153L16.75 8.83027L16.5108 8.15153L15.8661 8.46079L16.1726 7.81018L15.5 7.56882L16.1726 7.32745L15.8661 6.67685L16.5108 6.98611L16.75 6.30737Z" fill="white"/>
</svg>
