<svg width="34" height="40" viewBox="0 0 34 40" fill="none" xmlns="http://www.w3.org/2000/svg">
<path d="M33.7453 14.2614C33.4755 10.3066 31.6817 6.61076 28.7414 3.95215C25.8012 1.29354 21.944 -0.120409 17.9821 0.00804501C14.0202 0.136499 10.2628 1.79733 7.50093 4.64081C4.73909 7.4843 3.1884 11.2885 3.17539 15.2525C3.17561 15.8571 3.21123 16.4611 3.28206 17.0615L0.170842 23.3728C0.0478702 23.6226 -0.0103563 23.8994 0.00150991 24.1776C0.0133761 24.4559 0.0949546 24.7267 0.238754 24.9651C0.382554 25.2036 0.583966 25.4022 0.824495 25.5425C1.06502 25.6829 1.33696 25.7606 1.61533 25.7684C2.46425 25.7951 3.05094 25.8129 3.46873 25.8129V27.484C3.46873 32.6886 4.75322 35.7021 11.2868 35.7021L14.118 35.7954V39.3333C14.118 39.5101 14.1882 39.6797 14.3132 39.8047C14.4383 39.9298 14.6078 40 14.7847 40C14.9615 40 15.1311 39.9298 15.2561 39.8047C15.3811 39.6797 15.4513 39.5101 15.4513 39.3333V35.1554C15.4514 34.9824 15.3843 34.8161 15.264 34.6917C15.1437 34.5673 14.9798 34.4945 14.8069 34.4887L11.309 34.3731C6.25993 34.3731 4.80211 32.8309 4.80211 27.4885V25.1284C4.80251 25.0354 4.78344 24.9433 4.74611 24.858C4.70879 24.7728 4.65404 24.6963 4.58538 24.6335C4.51672 24.5707 4.43568 24.523 4.34747 24.4934C4.25926 24.4638 4.16583 24.453 4.07319 24.4617H3.9843C3.85096 24.4617 3.37095 24.4617 1.65089 24.4217C1.59508 24.421 1.54039 24.4059 1.49211 24.3779C1.44384 24.3498 1.40361 24.3098 1.37533 24.2617C1.34806 24.2136 1.33372 24.1592 1.33372 24.1039C1.33372 24.0486 1.34806 23.9943 1.37533 23.9461L4.57099 17.4526C4.62909 17.3341 4.65075 17.2011 4.63321 17.0704C4.55316 16.4603 4.51308 15.8456 4.51321 15.2303C4.50789 12.8947 5.08828 10.595 6.20129 8.54161C7.3143 6.48822 8.9244 4.74669 10.8843 3.47629C12.8442 2.2059 15.0914 1.4472 17.4203 1.26959C19.7491 1.09198 22.0854 1.50114 24.2153 2.45963C26.3452 3.41813 28.2007 4.89536 29.6122 6.75622C31.0238 8.61707 31.9462 10.8021 32.2951 13.1116C32.644 15.421 32.4083 17.781 31.6096 19.9758C30.8108 22.1706 29.4745 24.1301 27.7229 25.6751C27.6515 25.7378 27.5943 25.8151 27.5552 25.9017C27.5161 25.9883 27.496 26.0823 27.4962 26.1773V39.2533C27.495 39.3412 27.5114 39.4284 27.5445 39.5098C27.5776 39.5913 27.6266 39.6652 27.6888 39.7274C27.7509 39.7895 27.8249 39.8386 27.9063 39.8717C27.9878 39.9048 28.075 39.9212 28.1629 39.92C28.3397 39.92 28.5093 39.8498 28.6343 39.7247C28.7593 39.5997 28.8296 39.4301 28.8296 39.2533V26.4707C30.5149 24.9366 31.8322 23.042 32.6833 20.928C33.5344 18.814 33.8974 16.5352 33.7453 14.2614Z" fill="black"/>
<path d="M28.8699 13.2658L26.2031 11.0435C26.0833 10.9437 25.9324 10.889 25.7765 10.889C25.6205 10.889 25.4696 10.9437 25.3498 11.0435L22.683 13.2658C22.6107 13.3201 22.5502 13.3885 22.5052 13.467C22.4602 13.5454 22.4317 13.6322 22.4212 13.722C22.4108 13.8118 22.4188 13.9028 22.4447 13.9895C22.4705 14.0761 22.5137 14.1566 22.5717 14.226C22.6296 14.2954 22.7011 14.3523 22.7817 14.3933C22.8624 14.4342 22.9505 14.4583 23.0407 14.4641C23.131 14.4699 23.2214 14.4573 23.3067 14.427C23.3919 14.3967 23.47 14.3494 23.5364 14.288L25.1098 12.9813C25.1098 13.0169 25.1098 13.0524 25.1098 13.088C25.0922 14.7595 24.4121 16.3558 23.2189 17.5266C22.0257 18.6973 20.4167 19.3468 18.7451 19.3326C17.0615 19.3399 15.4433 18.6818 14.2427 17.5015C14.1835 17.4293 14.1098 17.3703 14.0264 17.3284C13.943 17.2865 13.8517 17.2626 13.7585 17.2583C13.6652 17.2539 13.5721 17.2691 13.4851 17.303C13.3982 17.3369 13.3193 17.3887 13.2536 17.455C13.1879 17.5214 13.1369 17.6007 13.1038 17.688C13.0707 17.7753 13.0563 17.8686 13.0616 17.9618C13.0669 18.055 13.0916 18.146 13.1343 18.2291C13.177 18.3121 13.2366 18.3852 13.3094 18.4437C14.385 19.5022 15.7473 20.2222 17.2278 20.5147C18.7083 20.8072 20.242 20.6594 21.6394 20.0896C23.0368 19.5198 24.2365 18.5529 25.0903 17.3085C25.9441 16.0641 26.4144 14.5968 26.4431 13.088C26.4431 13.048 26.4431 13.0124 26.4431 12.9724L28.021 14.3058C28.0873 14.3672 28.1655 14.4145 28.2507 14.4448C28.3359 14.475 28.4264 14.4877 28.5166 14.4819C28.6069 14.4761 28.695 14.452 28.7756 14.411C28.8562 14.3701 28.9277 14.3132 28.9857 14.2438C29.0436 14.1744 29.0868 14.0939 29.1127 14.0072C29.1386 13.9206 29.1465 13.8296 29.1361 13.7398C29.1257 13.6499 29.0971 13.5632 29.0521 13.4847C29.0071 13.4063 28.9466 13.3379 28.8743 13.2835L28.8699 13.2658Z" fill="black"/>
<path d="M14.7312 12.9057C14.6179 12.7704 14.4556 12.6855 14.2798 12.6697C14.104 12.6538 13.9291 12.7084 13.7934 12.8213L12.2689 14.0925C12.2382 13.8417 12.2218 13.5895 12.22 13.3369C12.2106 11.6374 12.876 10.0037 14.0702 8.79449C15.2644 7.5853 16.8897 6.89952 18.5891 6.88777C19.4255 6.88636 20.2538 7.05193 21.0254 7.37477C21.797 7.6976 22.4964 8.17121 23.0826 8.76783C23.2084 8.88626 23.3753 8.95121 23.5481 8.949C23.7208 8.9468 23.886 8.87761 24.0087 8.75601C24.1315 8.63441 24.2022 8.46991 24.2061 8.29717C24.2099 8.12443 24.1465 7.95695 24.0293 7.83002C23.3195 7.10782 22.4728 6.53454 21.5386 6.14378C20.6045 5.75302 19.6017 5.55265 18.5891 5.55439C16.5364 5.56732 14.5727 6.39396 13.1287 7.85295C11.6847 9.31194 10.8784 11.2841 10.8866 13.3369C10.8882 13.6161 10.9045 13.895 10.9355 14.1725L9.31326 12.8391C9.17662 12.7364 9.00577 12.6901 8.83601 12.7098C8.66624 12.7295 8.51051 12.8136 8.40098 12.9448C8.29146 13.076 8.2365 13.2443 8.24747 13.4149C8.25843 13.5854 8.33448 13.7452 8.4599 13.8613L11.1267 16.0836C11.2464 16.1834 11.3974 16.2381 11.5533 16.2381C11.7092 16.2381 11.8602 16.1834 11.98 16.0836L14.6468 13.8613C14.7164 13.8051 14.774 13.7353 14.8161 13.6563C14.8582 13.5773 14.884 13.4906 14.8919 13.4015C14.8997 13.3123 14.8896 13.2224 14.862 13.1373C14.8344 13.0521 14.7899 12.9734 14.7312 12.9057Z" fill="black"/>
</svg>
