<svg width="27" height="27" viewBox="0 0 27 27" fill="none" xmlns="http://www.w3.org/2000/svg">
<path fill-rule="evenodd" clip-rule="evenodd" d="M13.5 1.28571C6.75424 1.28571 1.28571 6.75424 1.28571 13.5C1.28571 20.2458 6.75424 25.7143 13.5 25.7143C20.2458 25.7143 25.7143 20.2458 25.7143 13.5C25.7143 6.75424 20.2458 1.28571 13.5 1.28571ZM0 13.5C0 6.04416 6.04416 0 13.5 0C20.9558 0 27 6.04416 27 13.5C27 20.9558 20.9558 27 13.5 27C6.04416 27 0 20.9558 0 13.5Z" fill="black"/>
<path fill-rule="evenodd" clip-rule="evenodd" d="M6.58808 14.0364L17.0724 14.0364L12.1766 18.9819C11.9467 19.2151 11.9467 19.5925 12.1766 19.8251C12.4066 20.0583 12.7788 20.0583 13.0082 19.8251L18.8302 13.9219C19.0566 13.6923 19.0566 13.3083 18.8302 13.0787L13.0082 7.17488C12.7782 6.94171 12.406 6.94171 12.1766 7.17488C11.9467 7.40805 11.9467 7.78553 12.1766 8.01811L17.0724 12.8437L6.58808 12.8437C6.26346 12.8437 6 13.1109 6 13.4401C6 13.7692 6.26346 14.0364 6.58808 14.0364Z" fill="#121313"/>
</svg>
