<svg width="22" height="49" viewBox="0 0 22 49" fill="none" xmlns="http://www.w3.org/2000/svg">
<path d="M20.875 43.0018H13C12.7348 43.0018 12.4804 43.1072 12.2929 43.2947C12.1054 43.4822 12 43.7366 12 44.0018H10C10 43.7366 9.89464 43.4822 9.70711 43.2947C9.51957 43.1072 9.26522 43.0018 9 43.0018H1.125C0.969756 43.0018 0.816644 43.0379 0.677789 43.1074C0.538933 43.1768 0.418149 43.2776 0.325002 43.4018C0.231854 43.526 0.1689 43.6702 0.141129 43.8229C0.113358 43.9757 0.121533 44.1328 0.165002 44.2818L0.62 45.8418C0.804186 46.4635 1.18378 47.0094 1.70253 47.3984C2.22128 47.7875 2.85157 47.9991 3.5 48.0018H18.5C19.1484 47.9991 19.7787 47.7875 20.2975 47.3984C20.8162 47.0094 21.1958 46.4635 21.38 45.8418L21.835 44.2818C21.8785 44.1328 21.8866 43.9757 21.8589 43.8229C21.8311 43.6702 21.7681 43.526 21.675 43.4018C21.5819 43.2776 21.4611 43.1768 21.3222 43.1074C21.1834 43.0379 21.0302 43.0018 20.875 43.0018ZM3.5 46.0018C3.28374 46.0008 3.07358 45.9301 2.90065 45.8002C2.72773 45.6703 2.60127 45.4882 2.54 45.2808L2.459 45.0018H8C8 45.267 8.10536 45.5214 8.29289 45.7089C8.48043 45.8964 8.73478 46.0018 9 46.0018H3.5ZM19.46 45.2808C19.3987 45.4882 19.2723 45.6703 19.0993 45.8002C18.9264 45.9301 18.7163 46.0008 18.5 46.0018H13C13.2652 46.0018 13.5196 45.8964 13.7071 45.7089C13.8946 45.5214 14 45.267 14 45.0018H19.541L19.46 45.2808Z" fill="#161616"/>
<path d="M3 42.0018H19C19.7956 42.0018 20.5587 41.6857 21.1213 41.1231C21.6839 40.5605 22 39.7974 22 39.0018V31.0018C21.9974 30.3835 21.8039 29.7812 21.4459 29.2771C21.0879 28.773 20.5829 28.3919 20 28.1858V27.0018C19.9999 26.7787 19.9253 26.5621 19.7879 26.3863C19.6506 26.2106 19.4584 26.0858 19.242 26.0318L18.574 25.8648L18.929 25.2738C19.0435 25.0826 19.0908 24.8585 19.0635 24.6373C19.0361 24.4161 18.9356 24.2104 18.778 24.0528L15.949 21.2238C15.7914 21.0662 15.5857 20.9657 15.3645 20.9383C15.1433 20.911 14.9192 20.9583 14.728 21.0728L14.137 21.4278L13.97 20.7598C13.916 20.5434 13.7912 20.3512 13.6155 20.2139C13.4397 20.0765 13.2231 20.0019 13 20.0018H9C8.77694 20.0019 8.5603 20.0765 8.38454 20.2139C8.20877 20.3512 8.08398 20.5434 8.03 20.7598L7.863 21.4278L7.272 21.0728C7.08076 20.9583 6.85675 20.911 6.63553 20.9383C6.41432 20.9657 6.20858 21.0662 6.051 21.2238L3.222 24.0528C3.06435 24.2104 2.96387 24.4161 2.93651 24.6373C2.90915 24.8585 2.95649 25.0826 3.071 25.2738L3.426 25.8648L2.758 26.0318C2.54157 26.0858 2.3494 26.2106 2.21205 26.3863C2.0747 26.5621 2.00006 26.7787 2 27.0018V28.1858C1.41709 28.3919 0.912092 28.773 0.554089 29.2771C0.196085 29.7812 0.00256297 30.3835 0 31.0018V39.0018C0 39.7974 0.316072 40.5605 0.878681 41.1231C1.44129 41.6857 2.20435 42.0018 3 42.0018ZM4 27.7828L5.22 27.4828C5.37162 27.4449 5.51226 27.3721 5.63063 27.27C5.74899 27.168 5.8418 27.0396 5.90159 26.8952C5.96139 26.7508 5.98651 26.5944 5.97495 26.4386C5.96338 26.2827 5.91545 26.1318 5.835 25.9978L5.188 24.9198L6.913 23.1948L7.991 23.8418C8.12498 23.9223 8.27595 23.9702 8.4318 23.9817C8.58765 23.9933 8.74404 23.9682 8.88843 23.9084C9.03281 23.8486 9.16117 23.7558 9.26321 23.6374C9.36525 23.5191 9.43813 23.3784 9.476 23.2268L9.776 22.0068H12.214L12.514 23.2268C12.5519 23.3784 12.6247 23.5191 12.7268 23.6374C12.8288 23.7558 12.9572 23.8486 13.1016 23.9084C13.246 23.9682 13.4024 23.9933 13.5582 23.9817C13.7141 23.9702 13.865 23.9223 13.999 23.8418L15.077 23.1948L16.803 24.9198L16.155 25.9978C16.0745 26.1318 16.0266 26.2827 16.0151 26.4386C16.0035 26.5944 16.0286 26.7508 16.0884 26.8952C16.1482 27.0396 16.241 27.168 16.3594 27.27C16.4777 27.3721 16.6184 27.4449 16.77 27.4828L17.99 27.7828V30.2208L16.77 30.5208C16.6184 30.5587 16.4777 30.6315 16.3594 30.7336C16.241 30.8356 16.1482 30.964 16.0884 31.1084C16.0286 31.2528 16.0035 31.4092 16.0151 31.565C16.0266 31.7209 16.0745 31.8718 16.155 32.0058L16.803 33.0838L15.077 34.8098L13.999 34.1618C13.865 34.0813 13.7141 34.0334 13.5582 34.0219C13.4024 34.0103 13.246 34.0354 13.1016 34.0952C12.9572 34.155 12.8288 34.2478 12.7268 34.3662C12.6247 34.4845 12.5519 34.6252 12.514 34.7768L12.214 35.9968H9.781L9.481 34.7768C9.44313 34.6252 9.37025 34.4845 9.26822 34.3662C9.16618 34.2478 9.03782 34.155 8.89343 34.0952C8.74904 34.0354 8.59265 34.0103 8.4368 34.0219C8.28095 34.0334 8.12998 34.0813 7.996 34.1618L6.918 34.8098L5.193 33.0838L5.84 32.0058C5.92045 31.8718 5.96839 31.7209 5.97995 31.565C5.99151 31.4092 5.96639 31.2528 5.90659 31.1084C5.8468 30.964 5.75399 30.8356 5.63562 30.7336C5.51726 30.6315 5.37662 30.5587 5.225 30.5208L4.005 30.2208L4 27.7828ZM2 31.0018C2.00006 31.2249 2.0747 31.4415 2.21205 31.6173C2.3494 31.793 2.54157 31.9178 2.758 31.9718L3.426 32.1388L3.071 32.7298C2.95649 32.921 2.90915 33.1451 2.93651 33.3663C2.96387 33.5875 3.06435 33.7932 3.222 33.9508L6.051 36.7798C6.20858 36.9375 6.41432 37.0379 6.63553 37.0653C6.85675 37.0926 7.08076 37.0453 7.272 36.9308L7.863 36.5758L8.03 37.2438C8.08398 37.4602 8.20877 37.6524 8.38454 37.7897C8.5603 37.9271 8.77694 38.0017 9 38.0018H13C13.2231 38.0017 13.4397 37.9271 13.6155 37.7897C13.7912 37.6524 13.916 37.4602 13.97 37.2438L14.137 36.5758L14.728 36.9308C14.9192 37.0453 15.1433 37.0926 15.3645 37.0653C15.5857 37.0379 15.7914 36.9375 15.949 36.7798L18.778 33.9508C18.9356 33.7932 19.0361 33.5875 19.0635 33.3663C19.0908 33.1451 19.0435 32.921 18.929 32.7298L18.574 32.1388L19.242 31.9718C19.4584 31.9178 19.6506 31.793 19.7879 31.6173C19.9253 31.4415 19.9999 31.2249 20 31.0018V39.0018C20 39.267 19.8946 39.5214 19.7071 39.7089C19.5196 39.8964 19.2652 40.0018 19 40.0018H3C2.73478 40.0018 2.48043 39.8964 2.29289 39.7089C2.10536 39.5214 2 39.267 2 39.0018V31.0018Z" fill="#161616"/>
<path d="M11 2.0018C12.708 1.99903 14.3996 2.33416 15.9775 2.98787C17.5554 3.64158 18.9884 4.60097 20.194 5.8108L21.606 4.3928C18.793 1.58012 14.978 0 11 0C7.02209 0 3.20704 1.58012 0.394043 4.3928L1.80604 5.8108C3.01163 4.60097 4.44464 3.64158 6.02254 2.98787C7.60045 2.33416 9.29208 1.99903 11 2.0018Z" fill="#161616"/>
<path d="M18.777 7.2248C17.756 6.20299 16.5437 5.39241 15.2092 4.83936C13.8748 4.28632 12.4445 4.00166 11 4.00166C9.55554 4.00166 8.12522 4.28632 6.7908 4.83936C5.45638 5.39241 4.24402 6.20299 3.22302 7.2248L4.63702 8.6388C6.32477 6.95156 8.61355 6.00372 11 6.00372C13.3865 6.00372 15.6753 6.95156 17.363 8.6388L18.777 7.2248Z" fill="#161616"/>
<path d="M15.95 10.0578C15.3008 9.40616 14.5294 8.88911 13.68 8.53631C12.8305 8.1835 11.9198 8.00189 11 8.00189C10.0802 8.00189 9.16945 8.1835 8.32 8.53631C7.47056 8.88911 6.69914 9.40616 6.04999 10.0578L7.46999 11.4658C7.93328 11.0017 8.48352 10.6336 9.08923 10.3824C9.69495 10.1312 10.3443 10.0019 11 10.0019C11.6557 10.0019 12.305 10.1312 12.9107 10.3824C13.5165 10.6336 14.0667 11.0017 14.53 11.4658L15.95 10.0578Z" fill="#161616"/>
<path d="M8 15.0018C8 15.5951 8.17595 16.1752 8.50559 16.6685C8.83524 17.1619 9.30377 17.5464 9.85195 17.7734C10.4001 18.0005 11.0033 18.0599 11.5853 17.9442C12.1672 17.8284 12.7018 17.5427 13.1213 17.1231C13.5409 16.7036 13.8266 16.169 13.9424 15.5871C14.0581 15.0051 13.9987 14.4019 13.7716 13.8538C13.5446 13.3056 13.1601 12.837 12.6667 12.5074C12.1734 12.1777 11.5933 12.0018 11 12.0018C10.2044 12.0018 9.44129 12.3179 8.87868 12.8805C8.31607 13.4431 8 14.2062 8 15.0018ZM12 15.0018C12 15.1996 11.9414 15.3929 11.8315 15.5574C11.7216 15.7218 11.5654 15.85 11.3827 15.9257C11.2 16.0014 10.9989 16.0212 10.8049 15.9826C10.6109 15.944 10.4327 15.8488 10.2929 15.7089C10.153 15.5691 10.0578 15.3909 10.0192 15.1969C9.98063 15.0029 10.0004 14.8018 10.0761 14.6191C10.1518 14.4364 10.28 14.2802 10.4444 14.1703C10.6089 14.0604 10.8022 14.0018 11 14.0018C11.2652 14.0018 11.5196 14.1072 11.7071 14.2947C11.8946 14.4822 12 14.7366 12 15.0018Z" fill="#161616"/>
<path d="M11 33.0018C11.7911 33.0018 12.5645 32.7672 13.2223 32.3277C13.8801 31.8882 14.3928 31.2634 14.6955 30.5325C14.9983 29.8016 15.0775 28.9974 14.9231 28.2214C14.7688 27.4455 14.3878 26.7328 13.8284 26.1734C13.269 25.614 12.5563 25.233 11.7804 25.0787C11.0044 24.9243 10.2002 25.0035 9.46926 25.3063C8.73836 25.609 8.11365 26.1217 7.67412 26.7795C7.2346 27.4373 7 28.2107 7 29.0018C7 30.0627 7.42143 31.0801 8.17157 31.8302C8.92172 32.5804 9.93913 33.0018 11 33.0018ZM11 27.0018C11.3956 27.0018 11.7822 27.1191 12.1111 27.3389C12.44 27.5586 12.6964 27.871 12.8478 28.2364C12.9991 28.6019 13.0387 29.004 12.9616 29.392C12.8844 29.7799 12.6939 30.1363 12.4142 30.416C12.1345 30.6957 11.7781 30.8862 11.3902 30.9634C11.0022 31.0405 10.6001 31.0009 10.2346 30.8496C9.86918 30.6982 9.55682 30.4418 9.33706 30.1129C9.1173 29.784 9 29.3974 9 29.0018C9 28.4714 9.21071 27.9627 9.58578 27.5876C9.96086 27.2125 10.4696 27.0018 11 27.0018Z" fill="#161616"/>
</svg>
