<svg width="25" height="26" viewBox="0 0 25 26" fill="none" xmlns="http://www.w3.org/2000/svg">
<path d="M23.62 0.769043H1.37878C0.617218 0.769501 -0.00015256 1.38718 2.82789e-08 2.14905V24.3903C0.000457794 25.1518 0.618134 25.7692 1.38 25.769H13.3545V16.1011H10.1074V12.3169H13.3545V9.53201C13.3545 6.30249 15.3261 4.54468 18.2069 4.54468C19.5868 4.54468 20.7726 4.64752 21.1182 4.69345V8.06885H19.1316C17.5642 8.06885 17.2607 8.81363 17.2607 9.90677V12.3169H21.0083L20.52 16.1011H17.2607V25.769H23.62C24.382 25.7692 24.9998 25.1517 25 24.3896C25 24.3895 25 24.3893 25 24.389V2.14783C24.9997 1.38626 24.3819 0.76889 23.62 0.769043Z" fill="#2A3CAC"/>
</svg>
