<svg width="160" height="77" viewBox="0 0 160 77" fill="none" xmlns="http://www.w3.org/2000/svg">
<path d="M20.88 0L21.0133 0.0800008L21.4933 0.319999L22.2667 0.773336L23.3867 1.33333L24.24 1.81333L25.12 2.32L26 2.82667L26.9333 3.30667L27.8933 3.84L28.8533 4.37334L29.8133 4.88L30.7733 5.46667L31.7333 5.97334L32.7467 6.61333L33.76 7.22667L34.7733 7.81333L35.76 8.4L36.7733 9.06667L37.7867 9.68L38.8 10.32L39.8133 10.9333L40.8 11.68L41.7867 12.3467L42.7733 12.9867L43.76 13.7067L44.72 14.4L45.6267 15.0933L46.56 15.84L47.4667 16.5867L48.4 17.3333L49.28 18.08L50.1067 18.8267L50.9333 19.6267L51.7333 20.3733L52.5067 21.1467L53.2533 22L54.4 23.0667H54.4267V23.12H54.48H56.9867H57.04V23.0667V23.04V22.9867L56.16 22L55.0933 20.7467L54 19.6267L52.8533 18.48L51.7333 17.44L50.5867 16.32L49.4133 15.36L48.2133 14.4L47.04 13.44L45.8133 12.56L44.64 11.68L43.3867 10.8L42.16 9.97334L40.9333 9.14667L39.68 8.37334L38.4533 7.57334L37.2267 6.82667L35.8933 5.94667L35.8667 5.89334V5.86667L35.8933 5.76H35.9467L149.013 32.5067H149.067V32.5333L149.013 32.64H148.96L55.2 49.28H55.1467L55.0933 49.2267V49.2V49.1467L55.9733 48.2667L56.4267 47.7867L56.8533 47.3067L57.2533 46.8267L57.6267 46.3467L58.0267 45.8133L58.4267 45.2533L58.7733 44.7733L59.12 44.2133L59.44 43.68L59.7333 43.1467L60 42.5867L60.2667 42L60.48 41.44L60.72 40.8267L60.8267 40.2133L60.96 39.6L61.0667 39.2533V39.1467L61.0133 39.0667L60.9333 39.04H60.88H59.04H59.0133L58.9067 39.0667L58.88 39.12V39.1467L58.7733 39.6L58.56 40.3733L58.2667 41.2267L57.8933 42L57.4133 42.8533L56.9067 43.68L56.32 44.5067L55.6533 45.3867L54.96 46.2133L54.2133 47.0133L53.4133 47.84L52.5867 48.5867L51.7333 49.36L50.8533 50.08L49.9733 50.8267L49.0933 51.4933L48.16 52.08L47.04 52.8267L46.9867 52.88V52.9067L47.04 52.96H47.0933L159.92 32.9333H159.973L160 32.8533L159.973 32.8L159.92 32.7733L23.76 0.640002L22.5067 0.319999L21.6267 0.106669L21.04 0H20.88Z" fill="#007BC3"/>
<path d="M18.7733 25.0133H0.293333H0.186666L0.106667 25.04L0.053333 25.1466L0 25.2266V27.2L0.053333 27.28L0.106667 27.36L0.186666 27.4133L0.293333 27.4666H2.69333H2.77333L2.85333 27.4933L2.90667 27.6V27.68V35.7866V35.8666L2.85333 35.9733L2.77333 36H2.69333H0.293333L0.186666 36.0533L0.106667 36.08L0.053333 36.1866L0 36.2666V38.2133L0.053333 38.2666L0.106667 38.3733L0.186666 38.4266H0.293333H12.6933H12.7733L12.8533 38.3733L12.9067 38.2666V38.2133V36.2666V36.1866L12.8533 36.08L12.7733 36.0533L12.6933 36H10.2667H10.1867L10.08 35.9733L10.0533 35.8666L10 35.7866V33.3333L10.0533 33.2533L10.08 33.1733L10.1867 33.12L10.2667 33.0666H12.1067L12.4267 33.1733L12.6933 33.3333L12.8533 33.6L12.9067 33.8933V34.6133L12.9333 34.6933L12.9867 34.7733L13.0667 34.8266L13.1733 34.8533H15.0133L15.0933 34.8266L15.1733 34.7733L15.2267 34.6933V34.6133V29.2266V29.12L15.1733 29.04L15.0933 28.9866L15.0133 28.96H13.1733L13.0667 28.9866L12.9867 29.04L12.9333 29.12L12.9067 29.2266V29.92L12.8533 30.2133L12.6933 30.48L12.4267 30.6666L12.1067 30.7466H10.2667L10.1867 30.6933L10.08 30.6666L10.0533 30.5866L10 30.48V27.68L10.0533 27.6L10.08 27.4933L10.1867 27.4666H10.2667H15.0133L15.3067 27.4933L15.6267 27.6L15.8667 27.7333L16.1333 27.8933L16.32 28.16L16.4533 28.4266L16.5333 28.7466L16.5867 29.04V29.7333L16.6133 29.8666L16.6667 29.92L16.7467 30H16.8267L18.9067 29.92H18.9867L19.0667 29.8666L19.12 29.7866V29.7066L18.9867 25.2266V25.1466L18.96 25.04L18.8533 25.0133H18.7733Z" fill="#007BC3"/>
<path fill-rule="evenodd" clip-rule="evenodd" d="M20.8267 38.1866V38.2666L20.88 38.3733L20.96 38.4H21.04H38.6133H38.6933L38.8 38.3733L38.8533 38.2666V38.1866L39.6267 32.9866L39.6 32.8L39.5467 32.6666L39.4133 32.5333L39.2267 32.5066L36.88 32.2666H36.7733L36.6933 32.32L36.6667 32.4266L36.6133 32.5066L36.3467 34.3733L36.2667 34.7466L36.1333 34.9866L35.9467 35.3066L35.7333 35.52L35.4667 35.7333L35.1467 35.8666L34.8533 35.9466L34.5067 36H30.8267H30.7467L30.64 35.9466L30.5867 35.8666V35.7866V27.68V27.6L30.64 27.4933L30.7467 27.4666H30.8267H33.2267L33.3067 27.4133L33.4133 27.36L33.44 27.28V27.2V25.2266V25.12L33.4133 25.04L33.3067 25.0133H33.2267H21.04H20.96L20.88 25.04L20.8267 25.12V25.2266V27.2V27.28L20.88 27.36L20.96 27.4133L21.04 27.4666H23.4667H23.5467L23.6267 27.4933L23.68 27.6L23.7333 27.68V35.7866L23.68 35.8666L23.6267 35.9466L23.5467 36H23.4667H21.04L20.96 36.0533L20.88 36.08L20.8267 36.1866V36.2666V38.1866Z" fill="#007BC3"/>
<path fill-rule="evenodd" clip-rule="evenodd" d="M42.1333 38.1866V38.2666L42.16 38.3733L42.2667 38.4H42.3467H54.6667H54.7467L54.8267 38.3733L54.88 38.2666L54.9067 38.1866V36.2666L54.88 36.1866L54.8267 36.08L54.7467 36.0533L54.6667 36H52.24H52.16L52.08 35.9466L52.0267 35.8666V35.7866V33.8133V33.76V33.7333L52.08 33.68L57.12 27.5466L57.1467 27.4933L57.2 27.4666H57.2533H57.3067H59.2533L59.36 27.4133L59.44 27.36L59.4933 27.28L59.52 27.2V25.2266L59.4933 25.12L59.44 25.04L59.36 25.0133H59.2533H51.3333H51.2533L51.1467 25.04L51.12 25.12L51.0667 25.2266V27.2L51.12 27.28L51.1467 27.36L51.2533 27.4133L51.3333 27.4666H53.2267L53.3067 27.4933L53.36 27.5466L53.3867 27.6533L53.36 27.7333L50.7733 30.7466L50.6667 30.8266H50.5867H50.5067L50.4 30.7466L47.68 27.7333L47.6533 27.6533L47.68 27.5466L47.7333 27.4933L47.84 27.4666H50.0267L50.1067 27.4133L50.1867 27.36L50.24 27.28L50.2667 27.2V25.2266L50.24 25.12L50.1867 25.04L50.1067 25.0133H50.0267H37.7067H37.6L37.52 25.04L37.4933 25.12V25.2266V27.2V27.28L37.52 27.36L37.6 27.4133L37.7067 27.4666H39.6H39.6267H39.68L39.7067 27.4933L39.76 27.5466L44.9333 33.68L44.9867 33.7333V33.76V33.8133V35.7866V35.8666L44.9333 35.9466L44.8533 36H44.7467H42.3467L42.2667 36.0533L42.16 36.08L42.1333 36.1866V36.2666V38.1866Z" fill="#007BC3"/>
<path fill-rule="evenodd" clip-rule="evenodd" d="M74.96 38.64H74.8534L74.7734 38.5867L74.72 38.5067V38.4267V37.6267L74.6934 37.5467L74.64 37.4934H74.56H74.48L73.8934 37.8934L73.4134 38.16L72.8 38.4267L72.16 38.5867L71.44 38.72L70.7467 38.8267L70.0267 38.9067L69.3334 38.9334H68.72L67.4667 38.9067L66.32 38.8267L65.2534 38.6667L64.2934 38.4534L63.4667 38.1867L62.72 37.84L62.08 37.4667L61.4934 37.0134L60.9867 36.5334L60.5867 36L60.2134 35.36L59.9734 34.7467L59.7867 34.0267L59.6 33.28L59.5734 32.5334L59.52 31.7067L59.5734 31.0134L59.6 30.2667L59.7867 29.5734L59.9734 28.9334L60.2134 28.3467L60.5867 27.76L60.9867 27.2534L61.4934 26.7734L62.08 26.32L62.72 25.8934L63.4667 25.52L64.2934 25.2267L65.2534 25.0134L66.32 24.8267L67.4667 24.7467L68.72 24.6934H69.0667H69.5734L70.16 24.7467L70.8267 24.8L71.5734 24.88L72.32 25.0134L73.0667 25.2267L73.76 25.4934L74.3467 25.76L74.4267 25.7867L74.48 25.76L74.56 25.7067V25.6267V25.0934V25.0134L74.5867 24.9334L74.6934 24.88L74.7734 24.8267L76.96 24.8H77.0667L77.1467 24.8267L77.1734 24.9334L77.2267 25.0134L77.4134 29.6534V29.7334L77.36 29.84L77.28 29.8667L77.1734 29.92L74.9867 30.0534H74.9067L74.8267 30L74.7734 29.92L74.72 29.8667L74.5867 29.44L74.3467 28.7734L73.9467 28.2934L73.4667 27.9467L72.9334 27.68L72.3734 27.5467L71.7867 27.4667L71.3067 27.4134H70.88L69.8134 27.4934L68.9334 27.68L68.24 28.0267L67.68 28.5067L67.1734 29.12L66.88 29.84L66.72 30.6934L66.6667 31.7067L66.72 32.5867L66.7467 33.4667L66.9334 34.2934L67.1734 34.9867L67.6 35.6L68.1067 36.1334L68.8 36.4534L69.68 36.5334H69.9467L70.2134 36.4534L70.56 36.3467L70.88 36.1867L71.1734 35.92L71.4134 35.52L71.5734 35.04L71.6267 34.48V33.76L71.5734 33.68L71.52 33.6L71.44 33.5467H71.36H69.8667L69.7867 33.52L69.68 33.4667L69.6534 33.3867V33.28V31.4934V31.4134L69.68 31.3067L69.7867 31.28H69.8667L79.28 31.3067L79.3867 31.36L79.4667 31.4134L79.4934 31.4934V31.5734V33.52V33.6L79.4667 33.68L79.3867 33.7334H79.28H77.68L77.5734 33.76L77.4934 33.8134L77.44 33.8934V34V38.4267L77.4134 38.5067L77.36 38.5867L77.28 38.64H77.1734H74.96Z" fill="#007BC3"/>
<path fill-rule="evenodd" clip-rule="evenodd" d="M83.84 38.1866V38.2666L83.8933 38.3733L83.9733 38.4H84.0533H96.72H96.8267L96.9067 38.3733L96.96 38.2666V38.1866V36.2666V36.1866L96.9067 36.08L96.8267 36.0533L96.72 36H94.32H94.2133L94.1333 35.9466L94.1067 35.8666L94.0533 35.7866V27.68L94.1067 27.6L94.1333 27.4933L94.2133 27.4666H94.32H95.9733L96.24 27.4933L96.5067 27.5466L96.7733 27.68L96.9867 27.8133L97.1733 27.9733L97.3333 28.2133L97.44 28.48L97.52 28.7466L97.9467 30.6666L98 30.7466L98.0533 30.8L98.1333 30.8266H98.2133L100.32 30.4533L100.4 30.4L100.507 30.3466V30.2666V30.1866L99.7067 25.1733L99.6533 25.12L99.6267 25.04L99.5467 25.0133H99.4933H81.3067H81.2267L81.1733 25.04L81.12 25.12L81.0933 25.1733L80.2667 30.1866V30.2666L80.2933 30.3466L80.3733 30.4L80.48 30.4533L82.56 30.8266H82.6667L82.7467 30.8L82.8 30.7466L82.8267 30.6666L83.2267 28.7466L83.3333 28.48L83.44 28.2133L83.6267 27.9733L83.7867 27.8133L84.0267 27.68L84.2933 27.5466L84.5333 27.4933L84.8 27.4666H86.48H86.56L86.64 27.4933L86.6933 27.6V27.68V35.7866V35.8666L86.64 35.9466L86.56 36H86.48H84.0533L83.9733 36.0533L83.8933 36.08L83.84 36.1866V36.2666V38.1866Z" fill="#007BC3"/>
<path d="M47.9467 43.2266V42.2666H48.5867C48.9067 42.2666 49.2533 42.3466 49.2533 42.7199C49.2533 43.1999 48.9067 43.2266 48.5067 43.2266H47.9467ZM47.9467 43.5999H48.48L49.28 44.9333H49.7867L48.9067 43.5733C49.36 43.5199 49.7067 43.2799 49.7067 42.7199C49.7067 42.1066 49.3333 41.8399 48.6133 41.8399H47.44V44.9066H47.8933V43.5999H47.9467ZM48.5067 46.0532C49.9467 46.0532 51.2 44.9332 51.2 43.3866C51.2 41.8666 49.9733 40.7466 48.5067 40.7466C47.04 40.7466 45.8133 41.8666 45.8133 43.3866C45.8133 44.9332 47.04 46.0532 48.5067 46.0532ZM46.3467 43.3866C46.3467 42.1332 47.3067 41.1733 48.5067 41.1733C49.7067 41.1733 50.6667 42.1332 50.6667 43.3866C50.6667 44.6666 49.7067 45.5999 48.5067 45.5999C47.28 45.6266 46.3467 44.6666 46.3467 43.3866Z" fill="#007BC3"/>
<path d="M66.6934 68.8533C64.8267 68.8533 62.6934 69.0666 62.6934 70.5333C62.6934 71.6533 63.6534 72.0266 64.5334 72.0266C66.1334 72.0266 67.04 70.8266 67.04 69.44V68.8533H66.6934ZM67.04 67.7333C67.04 66.3733 66.2934 65.7066 64.96 65.7066C64.0267 65.7066 63.2 66.08 62.64 66.64L62 65.8933C62.64 65.2533 63.7334 64.7733 65.0667 64.7733C66.7467 64.7733 68.1067 65.7067 68.1067 67.6V71.04C68.1067 71.6533 68.16 72.3733 68.24 72.8H67.2267C67.1734 72.4267 67.12 71.9466 67.12 71.52H67.0934C66.3734 72.56 65.52 72.9866 64.24 72.9866C63.0667 72.9866 61.52 72.3466 61.52 70.6133C61.52 68.2133 64.1867 68 67.04 68V67.7333Z" fill="#008AB1"/>
<path d="M124.32 65.7066C122.56 65.7066 121.307 67.0666 121.307 68.8533C121.307 70.64 122.56 72 124.32 72C126.213 72 127.28 70.5866 127.28 68.8533C127.28 67.12 126.187 65.7066 124.32 65.7066ZM121.44 71.44V72.7733H120.293V60.1333H121.44V66.2933H121.467C122.133 65.28 123.307 64.7466 124.427 64.7466C126.88 64.7466 128.48 66.56 128.48 68.8533C128.48 71.1733 126.88 72.96 124.427 72.96C123.307 72.96 122.133 72.4266 121.467 71.44H121.44Z" fill="#008AB1"/>
<path d="M129.76 64.9599H130.853C130.88 65.3866 130.933 65.9732 130.933 66.2932H130.96C131.387 65.3866 132.373 64.7466 133.467 64.7466C133.733 64.7466 133.973 64.7732 134.213 64.8266L134.053 65.8932C133.92 65.8399 133.547 65.7866 133.253 65.7866C132.053 65.7866 130.96 66.6666 130.96 68.7466V72.7733H129.813V66.6666C129.84 66.2399 129.813 65.4932 129.76 64.9599Z" fill="#008AB1"/>
<path d="M139.68 68.8533C137.813 68.8533 135.653 69.0666 135.653 70.5333C135.653 71.6533 136.613 72.0266 137.493 72.0266C139.093 72.0266 140 70.8266 140 69.44V68.8533H139.68ZM140 67.7333C140 66.3733 139.253 65.7066 137.92 65.7066C136.987 65.7066 136.133 66.08 135.6 66.64L134.96 65.8933C135.6 65.2533 136.693 64.7733 138.027 64.7733C139.707 64.7733 141.067 65.7067 141.067 67.6V71.04C141.067 71.6533 141.12 72.3733 141.2 72.8H140.187C140.133 72.4267 140.08 71.9466 140.08 71.52H140.053C139.333 72.56 138.48 72.9866 137.2 72.9866C136.027 72.9866 134.507 72.3466 134.507 70.6133C134.507 68.2133 137.173 68 140.027 68V67.7333H140Z" fill="#008AB1"/>
<path d="M144 64.9599C144.027 65.3866 144.08 65.9732 144.08 66.2932H144.107C144.533 65.3866 145.68 64.7466 146.773 64.7466C148.773 64.7466 149.76 66.0266 149.76 67.9733V72.7733H148.613V68.4266C148.613 66.7999 148.133 65.6799 146.48 65.6799C145.28 65.6799 144.107 66.6399 144.107 68.7466V72.7733H142.96V66.6666C142.96 66.2399 142.933 65.4666 142.907 64.9333H144V64.9599Z" fill="#008AB1"/>
<path d="M155.227 71.9999C156.987 71.9999 158.24 70.6399 158.24 68.8532C158.24 67.0666 156.987 65.7066 155.227 65.7066C153.333 65.7066 152.267 67.1199 152.267 68.8532C152.267 70.6132 153.333 71.9999 155.227 71.9999ZM155.093 72.9866C152.64 72.9866 151.04 71.1732 151.04 68.8799C151.04 66.5866 152.64 64.7733 155.093 64.7733C156.213 64.7733 157.387 65.3066 158.053 66.3199H158.08V60.1599H159.227V72.7999H158.08V71.4666H158.053C157.387 72.4533 156.213 72.9866 155.093 72.9866Z" fill="#008AB1"/>
<path d="M85.2267 71.2799H85.1734C84.72 71.2799 84.48 70.6133 84.0534 69.4133L83.3334 67.3866C82.64 65.5199 81.9467 64.6666 80.3734 64.6666C79.04 64.6666 78.3467 65.4666 77.52 66.5866L76.9067 67.3866L74.96 64.7733H72.88L75.8667 68.6666L74.6934 70.2399C74.1067 71.0399 73.7334 71.2799 73.2267 71.2799H72.88V72.7466H73.6267C74.48 72.7466 75.0934 72.4533 75.6 71.7333L76.88 69.9466L78.9334 72.7466H81.0134L77.92 68.6399L78.6933 67.6266C79.3867 66.6933 79.7334 66.2399 80.32 66.2399C80.96 66.2399 81.2534 66.8266 81.7867 68.1866L82.6667 70.4533C83.1734 71.7866 83.68 72.7466 84.5867 72.7466H84.6933L84.24 73.8933C83.8934 74.7999 83.5467 75.3599 82.6134 75.3599H82.2134V76.8533H82.8C84.1867 76.8533 85.1734 76.1599 85.84 74.3733L89.28 64.7999H87.4134L85.2267 71.2799ZM90.1067 70.3733C90.1067 72.0799 90.8 72.7999 92.2667 72.7999H93.0667V71.3066H92.6933C92.16 71.3066 91.8667 71.0399 91.8667 70.3999V60.5599H90.1334V70.3733H90.1067ZM95.6267 68.1333H99.9467C99.7334 66.9599 98.96 66.1866 97.8134 66.1866C96.64 66.1866 95.8667 66.9866 95.6267 68.1333ZM101.44 71.5199C100.48 72.3466 99.44 72.8799 98 72.8799C95.3867 72.8799 93.84 71.1733 93.84 68.7733C93.84 66.4266 95.4934 64.6666 97.84 64.6666C100.293 64.6666 101.76 66.5599 101.76 68.9066C101.76 69.1999 101.733 69.4933 101.733 69.4933H95.6267C95.8667 70.6399 96.56 71.3599 97.9734 71.3599C98.96 71.3599 99.68 70.9599 100.293 70.3999L101.44 71.5199ZM115.067 71.3066V72.7733H114.24C112.853 72.7733 112.16 72.0533 112.16 70.4266V67.8666C112.16 67.0666 111.92 66.2399 110.907 66.2399C109.893 66.2399 109.573 67.0666 109.573 67.8666V72.7733H107.813V67.8666C107.813 67.0666 107.467 66.2399 106.427 66.2399C105.387 66.2399 105.067 67.0666 105.067 67.8666V72.7733H103.333V67.8133C103.333 65.8666 104.587 64.6933 106.427 64.6933C107.36 64.6933 108.16 65.0399 108.693 65.5999C109.227 65.0133 110 64.6933 110.96 64.6933C112.667 64.6933 113.893 65.7866 113.893 67.8133V70.4533C113.893 71.0399 114.16 71.3066 114.667 71.3066H115.067Z" fill="#008AB1"/>
</svg>
