<svg width="112" height="59" viewBox="0 0 112 59" fill="none" xmlns="http://www.w3.org/2000/svg">
<path fill-rule="evenodd" clip-rule="evenodd" d="M0.359338 8.60045L29.6691 8.68957L29.714 17.5574H28.906C28.906 17.5574 27.9635 12.7893 23.9687 11.2296C19.974 9.66994 16.9218 10.071 10.6379 10.071L10.5931 22.1473H15.2611C15.2611 22.1473 18.4928 22.4592 20.1535 20.7659C21.8143 19.0725 22.4426 17.9585 22.6222 17.0672H23.2506V29.9456H22.6222C22.6222 29.9456 22.0836 24.9547 18.1337 23.9298C18.1337 23.9298 16.473 23.4396 12.568 23.4396H10.6379V34.2236C10.6379 34.2236 10.234 38.6798 13.6003 39.1254L17.0565 39.9275V40.5068H0.314453V39.9275C0.314453 39.9275 4.08477 40.0166 5.02735 38.2341C6.01482 36.4962 5.88016 34.3127 5.88016 34.3127L5.74551 13.3686C5.74551 13.3686 5.70062 9.358 1.84053 9.358L0.314453 9.26888L0.359338 8.60045Z" fill="#21409A"/>
<path fill-rule="evenodd" clip-rule="evenodd" d="M105.973 9.40257C105.973 9.40257 106.332 17.3792 107.005 19.6964H106.376C106.376 19.6964 104.895 12.8784 98.791 10.5612C92.6866 8.24396 85.1909 10.1156 82.812 16.7553C80.4331 23.395 81.1961 32.4411 87.2556 36.4071C93.315 40.3731 103.145 40.1503 109.788 30.2576L111.045 31.2379C111.045 31.2379 105.569 39.5264 98.2075 40.9079C90.8464 42.2893 83.3057 40.1949 78.7275 33.8671C74.1492 27.5393 74.9572 16.176 83.5302 10.8286C92.0583 5.52569 99.5989 9.26889 104.132 9.26889L105.973 9.40257Z" fill="#21409A"/>
<path fill-rule="evenodd" clip-rule="evenodd" d="M42.3714 21.2115L39.6334 21.0778C39.6334 21.0778 39.3193 20.0529 39.0051 19.7409C38.7358 19.429 38.7806 18.4486 38.7806 18.4486C38.7806 18.4486 38.646 17.6911 38.9602 17.0227C39.2744 16.3097 38.9602 16.2205 39.3641 15.463C39.7681 14.7054 40.5311 13.8588 40.5311 13.8588L41.1146 13.9479L42.1021 12.8338H42.6856C42.6856 12.8338 43.0447 13.0121 43.0896 12.923C43.1345 12.8338 43.1345 12.7893 43.1345 12.7893L45.0645 12.8338L45.1094 13.7696L46.6804 15.3739C46.6804 15.3739 47.0394 15.4184 47.0394 15.0619C47.0394 14.7054 47.1292 14.5718 47.1292 14.5718L47.8922 14.6163L48.6553 15.2402L50.316 15.1956C50.316 15.1956 50.6751 14.6163 50.8546 14.037C50.8546 14.037 50.9444 13.7696 50.6751 13.7696C50.4507 13.7696 50.3609 13.6805 50.3609 13.6805L50.1814 13.5914H48.9246L48.8797 13.2349L48.9246 12.7002L49.0592 12.5219H50.1814L50.316 12.2991H50.9444L51.0791 12.611L51.1688 12.7893H51.3933C51.3933 12.7893 51.5279 12.4773 51.8421 12.4328C52.1563 12.3882 52.2012 12.3437 52.2012 12.3437C52.2012 12.3437 52.2461 12.1654 52.0665 11.9872C51.887 11.8089 51.483 11.5415 51.4381 11.3187C51.3933 11.0959 51.3484 11.0514 51.3484 11.0514L51.7972 10.8731C51.7972 10.8731 51.8421 10.6057 51.5728 10.6503C51.3035 10.6949 50.9444 10.9622 50.9444 10.9622C50.9444 10.9622 50.8995 11.0068 50.8995 11.185C50.8995 11.3633 50.8995 11.4524 50.8995 11.4524L50.72 11.6307C50.72 11.6307 50.6302 11.6307 50.4956 11.6307C50.3609 11.6307 50.2262 11.6307 50.2262 11.6307L50.1814 10.9622C50.1814 10.9622 49.9121 10.8286 49.7774 10.9177C49.6427 11.0068 49.5979 11.497 49.4632 11.5415C49.2837 11.5861 49.0144 11.8535 49.0144 12.1208C49.0144 12.3437 48.8797 12.3882 48.6104 12.3882C48.3411 12.3882 48.1616 12.3437 48.1616 12.3437L48.0718 13.4577L47.7576 13.4131L47.3985 12.611C47.3985 12.611 47.3985 12.3437 47.4434 12.0763C47.4883 11.8089 46.9945 11.2742 46.9945 11.2742C46.9945 11.2742 46.5008 10.7394 46.5457 11.1405C46.6355 11.5415 46.6804 11.7198 46.6804 11.7198L46.9048 12.0317L46.9945 12.21L46.9497 12.3882L46.7252 12.2991C46.7252 12.2991 46.6355 12.4773 46.6355 12.6556C46.6355 12.8338 46.6355 12.8784 46.6355 12.8784H46.4559L46.5008 12.4328L46.1866 12.1208L45.9173 11.8089L45.8275 11.5415C45.8275 11.5415 46.0071 11.3633 45.8275 11.3187C45.648 11.2742 45.1992 11.3633 45.1992 11.3633L45.0645 11.4524C45.0645 11.4524 44.9747 11.5861 44.8401 11.4079C44.6605 11.2742 44.6157 11.185 44.6157 11.185C44.6157 11.185 44.6157 11.0959 44.481 11.2296C44.3463 11.3633 44.3463 11.6752 44.1668 11.6752C43.9424 11.6752 43.6731 11.7198 43.6731 11.7198C43.6731 11.7198 43.6282 11.6752 43.6282 11.898C43.6282 12.1208 43.6282 12.1208 43.6282 12.2991C43.6282 12.4773 43.7628 12.5219 43.6282 12.5665C43.4935 12.611 42.5061 12.611 42.5061 12.611L42.2368 12.4773L42.0572 12.1654C42.0123 11.9426 42.6856 11.5415 42.6856 11.5415C42.6856 11.5415 42.7754 11.185 42.7754 10.9622C42.7754 10.784 42.9549 10.5612 42.9549 10.5612L43.2691 10.5166L43.6282 10.7394C43.6282 10.7394 43.9424 10.9622 44.077 10.7394C44.2117 10.5166 44.6157 10.3829 44.6157 10.3829L44.5708 9.75907C44.5708 9.75907 44.6605 9.35801 44.9298 9.35801C45.244 9.35801 45.4685 9.22432 45.6929 9.22432C45.9173 9.22432 46.1417 9.31345 46.2764 9.09064C46.411 8.86783 46.9945 8.91239 46.9945 8.91239L47.0394 8.51133L47.1741 8.37765L47.2639 8.24396H47.3985V8.95695C47.3985 8.95695 47.8025 9.09064 48.1616 9.04607C48.5206 9.04607 48.6553 9.00151 48.7899 8.86783C48.9246 8.73414 49.1041 8.24396 49.2837 8.06571C49.4632 7.93203 50.2711 8.02115 50.2711 8.02115C50.2711 8.02115 50.4058 7.8429 50.1814 7.8429C49.9569 7.8429 49.5081 7.79834 49.5081 7.79834L49.5979 7.35272C49.5979 7.35272 49.6876 7.17447 49.8672 7.04079C50.0467 6.9071 50.2262 6.81798 50.2262 6.81798C50.2262 6.81798 50.3609 6.68429 50.316 6.59517C50.2262 6.46148 49.7774 6.37236 49.6876 6.63973C49.5979 6.9071 49.149 7.2636 49.149 7.2636C49.149 7.2636 49.0592 7.79834 48.7899 8.06571C48.5206 8.33308 48.0718 8.51133 47.9371 8.51133C47.8025 8.51133 47.9371 7.70922 47.7576 7.75378C47.578 7.79834 47.4883 7.79834 47.4883 7.79834C47.4883 7.79834 47.3536 7.79834 47.578 7.44185C47.8025 7.08535 47.8025 6.99623 47.8025 6.95166C47.8025 6.9071 47.9371 6.86254 48.1167 6.86254C48.2962 6.86254 49.4632 6.46148 49.6427 6.19411C49.8223 5.92674 50.0467 5.83762 50.3609 5.79305C50.6751 5.74849 51.1688 5.74849 51.3933 6.01586C51.6626 6.23867 51.7972 6.19411 51.7074 6.37236C51.6177 6.55061 51.4381 6.55061 51.4381 6.55061V7.12991C51.4381 7.12991 51.9768 7.2636 52.0665 6.95166C52.1563 6.63973 52.2012 6.59517 52.2012 6.59517C52.2012 6.59517 53.0989 6.41692 53.3682 6.19411C53.5926 5.9713 53.5477 5.79305 53.5477 5.79305H54.5352L54.625 5.21375C54.625 5.21375 55.0289 5.30287 54.984 5.61481C54.9391 5.92674 55.0289 6.19411 55.0289 6.19411C55.0289 6.19411 55.2982 6.41692 55.5226 6.23867C55.7471 6.06043 55.4329 5.65937 55.2982 5.52568C55.1636 5.392 55.0289 5.392 55.1187 4.90182C55.2085 4.41163 55.388 4.23339 55.388 4.23339L56.1959 4.0997C56.1959 4.0997 56.2408 4.58988 56.4652 4.58988C56.6897 4.58988 56.7345 4.23339 56.7345 4.23339C56.7345 4.23339 57.6771 4.18882 57.1385 3.7432C56.555 3.29759 56.4203 3.07478 56.4203 3.07478C59.652 4.01058 62.4798 6.01586 64.4996 8.73414L64.3649 9.1352C64.3649 9.1352 64.3201 10.071 64.5894 10.4275C64.8587 10.7394 65.5319 11.6307 65.5319 11.6307C65.5319 11.6307 66.1603 12.1208 66.1603 12.4773C66.1603 12.8338 66.2501 13.1012 66.2501 13.1012L66.5643 13.1903C66.5643 13.1903 66.7438 13.0121 66.8336 13.324C66.9234 13.636 66.9683 13.8588 66.9234 13.9924C66.8785 14.1261 66.5643 13.7696 66.5643 14.1261C66.5194 14.4381 66.5194 15.3293 66.2501 15.3293C65.9808 15.3739 65.8013 15.1956 65.8013 15.5521C65.8461 15.9086 65.7564 16.4434 66.0706 16.6216C66.3848 16.7999 66.699 17.2455 66.699 17.7357C66.7438 18.2258 66.6541 19.2062 66.5194 19.2953C66.3848 19.3844 65.8461 18.4486 65.8461 18.4486C65.8461 18.4486 65.4422 18.2258 65.4871 18.6715C65.5319 19.1171 65.532 19.429 65.8013 19.7855C66.0706 20.142 66.7438 20.9441 66.4745 21.3006C66.4745 21.3006 65.6217 20.3648 65.3524 19.8301C65.0831 19.3399 64.9933 18.1367 64.9933 18.1367C64.9933 18.1367 64.9933 17.6465 64.4098 17.1563C63.8263 16.6662 63.6468 16.3097 63.6468 16.3097C63.6468 16.3097 63.5121 16.0423 63.1979 16.6662C62.8389 17.29 61.627 18.6269 61.6719 19.2508C61.7167 19.8746 62.0309 20.4985 61.5821 20.9441C61.1781 21.3897 60.8639 20.855 60.46 20.2757C60.056 19.6964 59.7867 18.1813 59.7867 18.1813C59.7867 18.1813 59.7867 17.8248 59.3379 17.6465C58.889 17.4683 58.0811 16.8444 58.0811 16.8444L57.0487 16.889C57.0487 16.889 56.151 16.8444 56.0164 16.8444C55.8817 16.8444 55.7471 17.1118 55.3431 16.9781C54.9391 16.8444 54.0415 15.9086 54.0415 15.9086C54.0415 15.9086 53.5926 15.7749 53.817 16.176C54.0415 16.577 54.5352 17.1118 54.5352 17.1118C54.5352 17.1118 54.7596 17.4237 55.0289 17.4237C55.2982 17.4237 55.5226 17.29 55.9266 17.4683C56.3306 17.6465 56.3755 17.7802 56.2857 18.1367C56.151 18.5378 56.0613 19.429 55.5675 19.6518C55.1187 19.8746 53.0989 20.3202 53.0989 20.3202C53.0989 20.3202 52.4705 20.5876 52.1563 20.0974C51.8421 19.6073 52.0665 19.3844 51.2586 18.0921L50.5404 16.577C50.5404 16.577 50.0467 16.1314 50.0018 16.5325C49.9569 16.9335 50.9893 19.3399 50.9893 19.3399C50.9893 19.3399 51.0791 19.8301 51.5279 20.0974C51.9319 20.3648 52.1563 20.3202 52.3358 20.7659C52.5154 21.2115 53.0091 21.1224 53.054 21.1224C53.0989 21.1224 53.8619 20.8995 53.8619 20.8995C53.8619 20.8995 54.3556 20.7213 54.0863 21.3452C53.817 21.969 53.6824 23.4396 52.6949 24.108C51.7523 24.7764 51.3933 25.2666 51.3933 25.2666C51.3933 25.2666 50.9444 25.6677 51.0791 26.3361C51.2586 27.0045 51.7074 28.0295 51.1688 28.6088L50.4956 29.1435C50.4956 29.1435 50.1814 29.2326 50.1814 29.6337C50.1814 30.0347 50.2262 30.213 49.9569 30.5249C49.6876 30.8369 48.4757 31.8618 48.4757 31.8618C48.4757 31.8618 48.2962 32.0846 47.7576 32.0846C47.2639 32.0846 46.9945 32.1292 46.9945 32.1292C46.9945 32.1292 46.6804 31.7727 46.2315 31.0597C45.7827 30.3467 44.077 28.3414 44.077 28.3414C44.077 28.3414 43.8077 28.1631 44.0322 27.8958C44.2566 27.6284 44.2566 27.5838 44.2566 27.4502C44.2566 27.3165 44.3015 26.1133 44.3015 26.1133C44.3015 26.1133 43.718 25.9796 43.718 25.534C43.718 25.0884 43.5384 24.6427 43.314 24.2863C43.0896 23.9298 42.9549 23.6178 42.9549 23.4396C42.9998 23.2613 43.314 23.1722 43.0447 22.5038C43.0896 21.8353 43.0896 21.8353 43.0896 21.8353C43.0896 21.8353 42.4612 22.0136 42.4612 21.7462C42.4163 21.4789 42.4612 21.3452 42.4612 21.3452L42.3714 21.2115ZM54.2659 11.4524C54.2659 11.4524 54.6698 11.4524 54.5801 11.1405C54.4903 10.8286 53.9966 10.784 53.7273 11.0068C53.4131 11.2296 53.4579 11.8089 53.5028 12.1208C53.5477 12.3882 54.1312 12.2991 53.9966 12.8338C53.8619 13.324 53.7273 12.8784 53.7721 13.636C53.7721 13.636 53.9068 13.8142 54.1761 13.8142C54.4454 13.8142 54.8943 13.9033 54.8943 13.9033C54.8943 13.9033 55.1636 13.6805 54.9391 13.324C54.7147 13.0121 54.4454 12.8338 54.7147 12.6556C54.984 12.4773 54.984 12.1208 54.7596 12.1654C54.5352 12.21 54.1312 11.8535 54.1312 11.8535C54.1312 11.8535 53.817 11.4079 54.2659 11.4524ZM55.6573 10.8286C55.6573 10.8286 55.8368 10.9622 55.8817 10.7394C55.9266 10.5166 56.1959 10.6057 56.151 10.9622C56.1061 11.2742 56.1959 11.4524 56.1959 11.4524C56.1959 11.4524 56.3306 11.7644 56.0164 11.7644C55.7022 11.7644 55.5675 11.4079 55.5675 11.4079C55.5675 11.4079 55.2533 10.8286 55.6573 10.8286ZM60.8639 6.99623C60.8639 6.99623 60.9986 7.44185 61.1332 7.79834C61.3128 8.11027 61.5821 8.15484 61.5821 8.15484C61.5821 8.15484 61.8963 7.93203 61.627 7.62009C61.3577 7.30816 61.1332 6.95166 61.1332 6.95166C61.1332 6.95166 61.0435 6.77342 60.8639 6.99623ZM49.4632 24.0189L49.4183 24.5982C49.4183 24.5982 49.5081 24.7764 49.6427 24.7319C49.7774 24.7319 49.8223 24.7319 49.8223 24.5091C49.8223 24.2863 49.8223 23.8406 49.8223 23.8406L49.4632 24.0189ZM52.9642 28.4305L53.7273 27.8066C53.7273 27.8066 53.9966 27.5838 54.221 27.7175C54.4454 27.8512 54.4454 27.9403 54.2659 28.4305C54.0863 28.9207 53.6824 29.1435 53.5926 29.7228C53.458 30.3021 53.3233 30.5249 53.1438 30.614C52.9642 30.7032 52.6949 30.6586 52.65 30.213C52.6051 29.8119 52.6949 29.2326 52.7398 29.1435C52.7398 29.0544 52.9642 28.4305 52.9642 28.4305ZM55.4778 29.5891H55.6573V29.7674H55.4778V29.5891ZM56.0613 29.4109V29.5891H56.2408V29.4109H56.0613ZM62.3002 20.6322C62.3002 20.6322 62.3451 20.7213 62.2105 20.855C62.0758 20.9887 62.0758 21.2115 62.0758 21.2115V21.3897C62.0758 21.3897 62.0758 21.6125 62.2105 21.568C62.3451 21.5234 62.2554 21.3897 62.3451 21.3897C62.4798 21.3897 62.5247 21.1669 62.5247 21.1669L62.5696 20.8104C62.5247 20.8104 62.4798 20.5431 62.3002 20.6322ZM65.4422 21.256C65.4422 21.256 65.891 21.3897 66.0257 21.7462C66.1155 22.0582 66.0706 22.0582 66.2052 22.3255C66.3399 22.5929 66.6092 22.682 66.7887 22.682C66.9683 22.682 67.1029 22.3701 66.9683 22.1027C66.8785 21.8799 66.2052 21.256 66.2052 21.256C66.2052 21.256 65.9808 21.0778 65.8461 20.9441C65.7115 20.7659 65.4871 20.8104 65.4871 20.8104C65.4871 20.8104 65.128 20.7213 65.128 20.8995C65.1729 21.0332 65.4422 21.256 65.4422 21.256ZM67.5069 23.2613L66.7887 23.1722C66.7887 23.1722 66.7887 23.0831 66.8336 23.0385C66.8785 22.994 66.9683 22.8157 67.1927 22.7266C67.4171 22.6375 67.6415 22.6375 67.6415 22.6375L67.5069 23.2613ZM67.7313 21.969C67.7313 21.969 67.5069 21.8353 67.462 21.4343C67.4171 21.0332 67.5966 19.7409 67.5966 19.7409C67.5966 19.7409 67.7762 19.1616 68.0006 19.2062L67.9108 21.3006C67.866 21.256 67.8211 21.7908 67.7313 21.969ZM44.5708 5.392C44.5708 5.392 45.6929 4.4562 47.1741 3.7432C48.6553 3.07478 50.0018 2.94109 50.316 3.07478C50.6302 3.25302 50.8546 3.43127 50.4956 3.65408C50.1365 3.87689 48.386 4.54532 48.386 4.54532C48.386 4.54532 47.7576 4.81269 47.0394 4.81269C46.3213 4.81269 45.8724 4.54532 45.4685 4.94638C45.0645 5.34743 44.5708 5.392 44.5708 5.392ZM46.4559 5.52568C46.4559 5.52568 46.411 5.65937 46.2764 5.70393C46.1866 5.70393 45.9173 5.70393 45.9173 5.88218C45.8724 6.06043 46.052 6.10499 46.2315 6.10499C46.411 6.10499 46.6355 6.06043 46.6804 5.92674C46.7252 5.79305 46.7701 5.48112 46.6355 5.48112C46.5008 5.43656 46.4559 5.52568 46.4559 5.52568ZM45.0196 7.88747C45.0196 7.88747 44.8401 7.70922 44.6605 8.06571C44.481 8.42221 44.6157 8.42221 44.3912 8.51133C44.3912 8.51133 44.3463 8.73414 44.6157 8.68958C44.885 8.64502 45.0196 8.42221 45.0196 8.42221C45.0196 8.42221 45.244 8.24396 45.244 8.02115C45.1992 7.8429 45.0196 7.88747 45.0196 7.88747ZM44.9747 8.82327H45.3787C45.3787 8.82327 45.5582 8.82327 45.6929 8.68958C45.8275 8.55589 45.8275 8.15484 45.8275 8.15484L45.8724 7.79834C45.8724 7.79834 46.052 7.57553 46.1417 7.48641C46.2315 7.39728 46.0071 7.30816 45.7827 7.39728C45.6031 7.48641 45.648 7.48641 45.6031 7.66466C45.5582 7.88747 45.648 8.15484 45.5133 8.24396C45.3787 8.33308 45.3787 8.46677 45.2889 8.55589C45.2889 8.60046 44.9298 8.42221 44.9747 8.82327ZM50.6751 4.32251C50.72 4.27795 50.8097 4.14426 50.8097 4.14426C50.8097 4.14426 50.8995 4.01058 50.9893 4.01058C51.0791 4.01058 51.1688 3.92145 51.1688 4.01058C51.2137 4.0997 51.2137 4.14426 51.2137 4.23339C51.2137 4.32251 51.1688 4.36707 51.1239 4.41163C51.0342 4.4562 51.0342 4.4562 50.9893 4.50076C50.8995 4.54532 50.9893 4.58988 50.8995 4.58988C50.8097 4.58988 50.72 4.58988 50.72 4.58988C50.72 4.58988 50.4956 4.50076 50.6751 4.32251ZM45.5133 11.6307H45.6929V11.8089H45.5133V11.6307ZM45.5133 12.0317V12.2545H45.3338L45.3787 12.3882H45.6929V11.9872L45.5133 12.0317ZM46.0071 12.9675H46.3662C46.3662 12.9675 46.4559 12.923 46.4559 13.1012C46.4559 13.2349 46.3662 13.324 46.3213 13.324C46.2315 13.324 46.2315 13.1903 46.1417 13.1903C46.0071 13.1458 46.0071 12.9675 46.0071 12.9675ZM50.0467 14.037C50.0467 14.037 50.4058 13.9479 50.4058 14.0816C50.4058 14.2153 50.316 14.2598 50.2262 14.2598C50.1365 14.2598 50.0467 14.037 50.0467 14.037Z" fill="#BCBEC0"/>
<path fill-rule="evenodd" clip-rule="evenodd" d="M53.0987 0C53.0987 0 61.1331 0.178248 66.5192 3.83233C71.9054 7.48641 74.9127 12.8338 74.7331 19.429C74.5536 26.0242 71.7259 33.1986 60.7291 36.8973C60.7291 36.8973 54.3555 38.9026 47.4881 37.6548C40.6207 36.3625 34.6959 32.5302 31.958 26.7372C29.22 20.9441 30.0279 13.9479 33.2147 9.09064C36.4464 4.23338 42.865 0 53.0987 0ZM52.4254 2.40634C61.0433 2.40634 68.0453 9.89275 68.0453 19.0725C68.0453 28.2968 61.0433 35.7387 52.4254 35.7387C43.8075 35.7387 36.8055 28.2968 36.8055 19.0725C36.8055 9.84819 43.8075 2.40634 52.4254 2.40634Z" fill="#21409A"/>
<path fill-rule="evenodd" clip-rule="evenodd" d="M29.6241 40.6851L28.502 39.3928C28.502 39.3928 33.5739 36.0506 41.1146 36.8973C48.6552 37.7885 55.8816 42.423 61.8962 42.3338C67.9108 42.2447 70.4243 39.8384 71.8606 37.9668L73.252 39.571C73.252 39.571 69.0329 44.7847 64.2302 45.9879C59.4275 47.1911 55.1186 46.7455 48.9245 43.2696C42.7304 39.8384 37.838 37.6994 33.7086 38.9917C29.669 40.3286 29.6241 40.6851 29.6241 40.6851Z" fill="#21409A" stroke="black" stroke-width="0.216" stroke-miterlimit="22.9256"/>
<path fill-rule="evenodd" clip-rule="evenodd" d="M0.583984 47.102H110.417V56.9947H0.583984V47.102Z" fill="#BCBEC0"/>
<path d="M5.96937 50.5778V52.2711H6.10402C6.28356 52.2711 6.4631 52.2266 6.55287 52.182C6.68752 52.1375 6.77729 52.0483 6.86706 51.9146C6.95683 51.781 7.00172 51.6027 7.0466 51.3799H7.13637V53.4298H7.0466C7.00172 53.0287 6.91195 52.8059 6.73241 52.6722C6.55287 52.5385 6.37333 52.494 6.14891 52.494H6.01425V53.7417C6.01425 53.9645 6.01425 54.0982 6.05914 54.1427C6.10402 54.1873 6.14891 54.2319 6.19379 54.2764C6.28356 54.321 6.37333 54.321 6.4631 54.321H6.59775V54.4101H4.35352V54.321H4.48817C4.62282 54.321 4.71259 54.321 4.80236 54.2764C4.84725 54.2319 4.89213 54.1873 4.93702 54.1427C4.9819 54.0982 4.9819 53.9645 4.9819 53.7862V51.1125C4.9819 50.8897 4.9819 50.756 4.93702 50.7115C4.93702 50.6669 4.84725 50.6224 4.80236 50.5778C4.71259 50.5332 4.62282 50.5332 4.53305 50.5332H4.35352V50.355H7.89941V51.5136H7.76476C7.71987 51.2462 7.67499 51.0234 7.54033 50.8897C7.40568 50.756 7.22614 50.6669 7.00172 50.6224C6.86706 50.5778 6.64264 50.5778 6.32845 50.5778H5.96937Z" fill="#21409A"/>
<path d="M10.4581 54.321V54.4101H8.25879V54.321H8.39344C8.5281 54.321 8.61787 54.321 8.70764 54.2764C8.75252 54.2319 8.79741 54.1873 8.84229 54.1427C8.88718 54.0982 8.88718 53.9645 8.88718 53.7862V51.1125C8.88718 50.8897 8.88718 50.756 8.84229 50.7115C8.84229 50.6669 8.75252 50.6224 8.70764 50.5778C8.61787 50.5332 8.5281 50.5332 8.43833 50.5332H8.30367V50.355H10.503V50.4887H10.3235C10.1888 50.4887 10.0991 50.4887 10.0093 50.5332C9.96441 50.5778 9.91952 50.6224 9.87464 50.6669C9.87464 50.7115 9.82975 50.8452 9.82975 51.0234V53.6971C9.82975 53.9199 9.82976 54.0536 9.87464 54.0982C9.91952 54.1427 9.96441 54.1873 10.0093 54.2319C10.0991 54.2764 10.1888 54.2764 10.2786 54.2764H10.4581V54.321Z" fill="#21409A"/>
<path d="M12.2985 52.5385V53.6971C12.2985 53.9199 12.2985 54.0536 12.3434 54.0982C12.3883 54.1427 12.4332 54.1873 12.478 54.2319C12.5678 54.2764 12.7025 54.2764 12.882 54.2764V54.3656H10.7275V54.2764C10.9071 54.2764 11.0417 54.2764 11.1315 54.2319C11.2213 54.1873 11.2662 54.1427 11.2662 54.0982C11.311 54.0536 11.311 53.9199 11.311 53.6971V51.068C11.311 50.8452 11.311 50.7115 11.2662 50.6669C11.2213 50.6224 11.1764 50.5778 11.1315 50.5332C11.0417 50.4887 10.952 50.4887 10.7275 50.4887V50.355H12.7025C13.1962 50.355 13.6002 50.3995 13.8246 50.4441C14.049 50.5332 14.2734 50.6224 14.4081 50.8006C14.5427 50.9788 14.6325 51.2017 14.6325 51.4245C14.6325 51.7364 14.4979 51.9592 14.2734 52.182C14.1388 52.3157 13.9144 52.4048 13.6899 52.4494L14.7223 53.8308C14.8569 54.0091 14.9467 54.0982 14.9916 54.1427C15.0814 54.1873 15.1711 54.2319 15.3058 54.2319V54.321H13.9592L12.6127 52.4494H12.2985V52.5385ZM12.2985 50.5778V52.3603H12.478C12.7474 52.3603 12.9718 52.3157 13.1064 52.2711C13.2411 52.2266 13.3757 52.1375 13.4655 52.0038C13.5553 51.8701 13.6002 51.6918 13.6002 51.469C13.6002 51.1571 13.5104 50.9343 13.3757 50.8006C13.2411 50.6669 12.9718 50.5778 12.6576 50.5778H12.2985Z" fill="#21409A"/>
<path d="M18.1785 50.2659L18.2234 51.6027H18.0887C18.0438 51.2462 17.8643 50.9789 17.6399 50.8006C17.4154 50.5778 17.1461 50.4887 16.8768 50.4887C16.6524 50.4887 16.5177 50.5332 16.3831 50.6669C16.2484 50.756 16.2035 50.8897 16.2035 51.0234C16.2035 51.1125 16.2035 51.2017 16.2484 51.2462C16.2933 51.3354 16.3831 51.4245 16.5177 51.5136C16.6075 51.5582 16.8319 51.6918 17.191 51.8701C17.6847 52.0929 17.9989 52.3157 18.1785 52.5385C18.358 52.7613 18.4478 52.9841 18.4478 53.2515C18.4478 53.608 18.3131 53.8754 18.0438 54.1428C17.7745 54.3656 17.4154 54.4993 17.0115 54.4993C16.8768 54.4993 16.7422 54.4992 16.6524 54.4547C16.5177 54.4101 16.3831 54.3656 16.2035 54.321C16.1138 54.2764 16.024 54.2764 15.9791 54.2764C15.9342 54.2764 15.8894 54.2764 15.7996 54.321C15.7547 54.3656 15.7098 54.4101 15.6649 54.4993H15.5303V52.9396H15.6649C15.7547 53.3852 15.9342 53.6971 16.2035 53.9199C16.4729 54.1428 16.7422 54.2764 17.0564 54.2764C17.2808 54.2764 17.4603 54.2319 17.595 54.0982C17.7296 53.9645 17.8194 53.8308 17.8194 53.6526C17.8194 53.5635 17.7745 53.4743 17.7296 53.3852C17.6847 53.2961 17.595 53.207 17.5052 53.1178C17.4154 53.0287 17.191 52.9396 16.9217 52.8059C16.5177 52.6276 16.2484 52.4494 16.1138 52.3603C15.9342 52.2266 15.7996 52.0929 15.7098 51.9147C15.62 51.7364 15.5752 51.6027 15.5752 51.3799C15.5752 51.068 15.7098 50.8006 15.9342 50.5332C16.2035 50.3104 16.4729 50.1767 16.8768 50.1767C17.0115 50.1767 17.1461 50.1767 17.2808 50.2213C17.3705 50.2659 17.5052 50.3104 17.6399 50.355C17.7745 50.3996 17.8643 50.4441 17.9541 50.4441C17.9989 50.4441 18.0438 50.4441 18.0887 50.3996C18.1336 50.355 18.1336 50.3104 18.1785 50.1767V50.2659Z" fill="#21409A"/>
<path d="M22.7566 50.355V51.469H22.6668C22.622 51.2017 22.5322 51.0234 22.4424 50.9343C22.3526 50.8006 22.2629 50.756 22.1282 50.6669C22.0385 50.6224 21.9038 50.6224 21.7243 50.6224H21.4101V53.7862C21.4101 54.0091 21.4101 54.1427 21.455 54.1873C21.4998 54.2319 21.5447 54.2764 21.5896 54.321C21.6794 54.3656 21.7691 54.3656 21.8589 54.3656H21.9936V54.4547H19.7493V54.3656H19.884C20.0186 54.3656 20.1084 54.3656 20.1982 54.321C20.2431 54.2764 20.2879 54.2319 20.3328 54.1873C20.3777 54.1427 20.3777 54.0091 20.3777 53.8308V50.6669H20.0635C19.7942 50.6669 19.5698 50.7115 19.4351 50.8452C19.2556 51.0234 19.1209 51.2462 19.0761 51.5582H18.9414V50.355H22.7566Z" fill="#21409A"/>
<path d="M27.5143 54.4547C27.6041 54.7221 27.7388 54.9003 27.9632 55.034C28.1427 55.1677 28.412 55.2568 28.7262 55.2568C28.816 55.2568 28.9058 55.2568 28.9955 55.2122V55.3905C28.6813 55.4796 28.412 55.5242 28.1427 55.5242C27.7388 55.5242 27.4246 55.4351 27.1104 55.2568C26.7962 55.0786 26.5718 54.8112 26.4371 54.4547C25.9434 54.3656 25.4945 54.0982 25.2252 53.7417C24.911 53.3852 24.7764 52.895 24.7764 52.4048C24.7764 51.781 25.0008 51.2908 25.4048 50.8897C25.8087 50.4887 26.3473 50.2659 27.0206 50.2659C27.649 50.2659 28.1876 50.4887 28.6365 50.8897C29.0404 51.2908 29.2648 51.781 29.2648 52.4048C29.2648 52.9396 29.0853 53.3852 28.7711 53.7863C28.3671 54.1428 27.9632 54.3656 27.5143 54.4547ZM26.9757 50.4887C26.6166 50.4887 26.3024 50.6669 26.1229 51.068C25.9434 51.3799 25.8536 51.8255 25.8536 52.4048C25.8536 53.1178 25.9883 53.608 26.2576 53.9645C26.4371 54.1873 26.6615 54.321 26.9757 54.321C27.2899 54.321 27.5143 54.1873 27.6939 53.9645C27.9632 53.6526 28.0978 53.1178 28.0978 52.494C28.0978 51.8255 28.0081 51.3799 27.8734 51.068C27.649 50.6669 27.3348 50.4887 26.9757 50.4887Z" fill="#21409A"/>
<path d="M29.579 50.355H31.7335V50.4887H31.6437C31.4642 50.4887 31.3744 50.4887 31.2846 50.5332C31.2398 50.5778 31.1949 50.6224 31.15 50.6669C31.1051 50.7115 31.1051 50.8897 31.1051 51.1125V53.1178C31.1051 53.4743 31.15 53.7417 31.1949 53.8308C31.2398 53.9645 31.3295 54.0536 31.4642 54.1427C31.5988 54.2319 31.7784 54.2764 31.9579 54.2764C32.1823 54.2764 32.3619 54.2319 32.5414 54.1427C32.721 54.0536 32.8107 53.9199 32.9005 53.7417C32.9903 53.5634 33.0352 53.2515 33.0352 52.8504V51.2017C33.0352 51.0234 33.0352 50.8897 32.9903 50.8006C32.9454 50.7115 32.9005 50.6669 32.8556 50.6224C32.7658 50.5778 32.6312 50.5332 32.4517 50.5332V50.355H33.888V50.4887H33.7982C33.6635 50.4887 33.5738 50.5332 33.484 50.5778C33.3942 50.6224 33.3493 50.7115 33.3045 50.8006C33.2596 50.8452 33.2596 50.9788 33.2596 51.1571V52.7168C33.2596 53.2069 33.2147 53.5634 33.1698 53.7417C33.1249 53.9645 32.9454 54.1427 32.6761 54.321C32.4068 54.4992 32.0926 54.5884 31.6437 54.5884C31.2846 54.5884 31.0153 54.5438 30.7909 54.4547C30.5216 54.321 30.3421 54.1427 30.2074 53.9645C30.1176 53.7417 30.0279 53.4743 30.0279 53.1624V51.1571C30.0279 50.9343 30.0279 50.756 29.983 50.7115C29.9381 50.6669 29.8932 50.6224 29.8483 50.5778C29.8035 50.5332 29.6688 50.5332 29.4893 50.5332V50.355H29.579Z" fill="#21409A"/>
<path d="M36.6707 53.2515H35.1895L35.01 53.6526C34.9651 53.7863 34.9202 53.8754 34.9202 53.9645C34.9202 54.0982 34.9651 54.1428 35.0548 54.2319C35.0997 54.2764 35.2344 54.2764 35.4588 54.321V54.4101H34.0674V54.321C34.202 54.2764 34.3367 54.2319 34.4265 54.1428C34.5162 54.0536 34.6509 53.8308 34.7855 53.5189L36.3116 50.2659H36.3565L37.8826 53.608C38.0172 53.9199 38.1519 54.1428 38.2417 54.1873C38.3314 54.2319 38.4212 54.2764 38.5559 54.2764V54.3656H36.536V54.2764H36.6258C36.8054 54.2764 36.8951 54.2319 36.9849 54.2319C37.0298 54.1873 37.0747 54.1428 37.0747 54.0982C37.0747 54.0536 37.0747 54.0091 37.0747 54.0091C37.0747 54.0091 37.0298 53.9199 36.9849 53.7863L36.6707 53.2515ZM36.5809 53.0287L35.9525 51.6473L35.3242 53.0287H36.5809Z" fill="#21409A"/>
<path d="M42.6403 52.9841L42.4608 54.4101H38.7354V54.321H38.87C39.0047 54.321 39.0944 54.321 39.1842 54.2764C39.2291 54.2319 39.274 54.1873 39.3189 54.1427C39.3189 54.0982 39.3637 53.9645 39.3637 53.7862V51.1125C39.3637 50.8897 39.3637 50.756 39.3189 50.7115C39.274 50.6669 39.2291 50.6224 39.1842 50.5778C39.0944 50.5332 39.0047 50.5332 38.9149 50.5332H38.7802V50.355H41.0245V50.4887H40.8449C40.7103 50.4887 40.6205 50.4887 40.5307 50.5332C40.4859 50.5778 40.441 50.6224 40.3961 50.6669C40.3961 50.7115 40.3512 50.8452 40.3512 51.0234V53.608C40.3512 53.8308 40.3512 53.9645 40.3961 54.0091C40.441 54.0536 40.4859 54.0982 40.5307 54.1427C40.5756 54.1427 40.7103 54.1873 40.8898 54.1873H41.2489C41.4733 54.1873 41.6529 54.1427 41.7875 54.0536C41.9222 53.9645 42.0568 53.8754 42.1915 53.6971C42.2812 53.5189 42.4159 53.2961 42.5057 52.9841H42.6403Z" fill="#21409A"/>
<path d="M45.1993 54.321V54.4101H43V54.321H43.1347C43.2693 54.321 43.3591 54.321 43.4488 54.2764C43.4937 54.2319 43.5386 54.1873 43.5835 54.1427C43.6284 54.0982 43.6284 53.9645 43.6284 53.7862V51.1125C43.6284 50.8897 43.6284 50.756 43.5835 50.7115C43.5835 50.6669 43.4937 50.6224 43.4488 50.5778C43.3591 50.5332 43.2693 50.5332 43.1795 50.5332H43.0449V50.355H45.2442V50.4887H45.1096C44.9749 50.4887 44.8852 50.4887 44.7954 50.5332C44.7505 50.5778 44.7056 50.6224 44.6607 50.6669C44.6607 50.7115 44.6158 50.8452 44.6158 51.0234V53.6971C44.6158 53.9199 44.6158 54.0536 44.6607 54.0982C44.7056 54.1427 44.7505 54.1873 44.7954 54.2319C44.8852 54.2764 44.9749 54.2764 45.0647 54.2764H45.1993V54.321Z" fill="#21409A"/>
<path d="M49.3728 50.355V51.469H49.2831C49.2382 51.2017 49.1484 51.0234 49.0586 50.9343C48.9689 50.8006 48.8791 50.756 48.7444 50.6669C48.6547 50.6224 48.52 50.6224 48.3405 50.6224H48.0263V53.7862C48.0263 54.0091 48.0263 54.1427 48.0712 54.1873C48.116 54.2319 48.1609 54.2764 48.2058 54.321C48.2956 54.3656 48.3854 54.3656 48.4751 54.3656H48.6098V54.4547H46.4104V54.3656H46.5451C46.6797 54.3656 46.7695 54.3656 46.8593 54.321C46.9042 54.2764 46.949 54.2319 46.9939 54.1873C47.0388 54.1427 47.0388 54.0091 47.0388 53.8308V50.6669H46.6797C46.4104 50.6669 46.186 50.7115 46.0513 50.8452C45.8718 51.0234 45.7372 51.2462 45.6923 51.5582H45.5576V50.355H49.3728Z" fill="#21409A"/>
<path d="M54.1311 50.355V50.4887C53.9965 50.4887 53.9067 50.5332 53.8169 50.6224C53.7272 50.7115 53.5476 50.9343 53.3232 51.2908L52.4255 52.7613V53.7417C52.4255 53.9645 52.4255 54.0982 52.4704 54.1427C52.4704 54.1873 52.5602 54.2319 52.605 54.2764C52.6948 54.321 52.7846 54.321 52.8744 54.321H53.0988V54.4101H50.7199V54.321H50.9443C51.079 54.321 51.1687 54.321 51.2585 54.2764C51.3034 54.2319 51.3483 54.1873 51.3932 54.1427C51.438 54.0982 51.438 53.9645 51.438 53.7862V52.9841L50.4506 51.2462C50.271 50.8897 50.1364 50.7115 50.0466 50.6224C49.9568 50.5778 49.8671 50.5332 49.7324 50.5332V50.355H51.7522V50.4887H51.6625C51.5278 50.4887 51.438 50.4887 51.3932 50.5332C51.3483 50.5778 51.3034 50.6224 51.3034 50.6224C51.3034 50.7115 51.3932 50.8897 51.5727 51.1571L52.3357 52.494L53.0988 51.2462C53.2783 50.9343 53.3681 50.756 53.3681 50.6669C53.3681 50.6224 53.3232 50.5778 53.2783 50.5332C53.1885 50.4887 53.0988 50.4441 52.8744 50.4441V50.355H54.1311Z" fill="#21409A"/>
<path d="M59.7868 50.2659V51.6919H59.697C59.6073 51.3354 59.4277 51.0234 59.2033 50.8452C58.934 50.6669 58.6647 50.5332 58.3505 50.5332C58.0812 50.5332 57.8568 50.6224 57.6323 50.756C57.4079 50.8897 57.2733 51.1125 57.1386 51.3354C57.004 51.6473 56.9591 51.9592 56.9591 52.3603C56.9591 52.7168 57.004 53.0733 57.0937 53.3406C57.1835 53.6526 57.3181 53.8754 57.5426 54.0091C57.767 54.1428 57.9914 54.2319 58.3505 54.2319C58.6198 54.2319 58.8442 54.1873 59.0687 54.0536C59.2931 53.9199 59.5175 53.7417 59.7868 53.4743V53.8308C59.5624 54.0536 59.2931 54.2319 59.0687 54.3656C58.7994 54.4547 58.53 54.5438 58.171 54.5438C57.7221 54.5438 57.3182 54.4547 56.9591 54.2764C56.6 54.0982 56.3307 53.8308 56.1511 53.5189C55.9716 53.207 55.8818 52.8505 55.8818 52.494C55.8818 52.0929 55.9716 51.7364 56.196 51.3799C56.4205 51.0234 56.6898 50.756 57.0488 50.5778C57.4079 50.3996 57.767 50.3104 58.171 50.3104C58.4852 50.3104 58.7993 50.355 59.1135 50.4887C59.2931 50.5778 59.4277 50.5778 59.4726 50.5778C59.5175 50.5778 59.6073 50.5332 59.6522 50.4887C59.697 50.4441 59.7419 50.355 59.7419 50.2659H59.7868Z" fill="#21409A"/>
<path d="M61.8962 50.5778V52.2266H61.986C62.2553 52.2266 62.4348 52.1375 62.5695 52.0038C62.7041 51.8255 62.749 51.6027 62.7939 51.2908H62.9285V53.4298H62.7939C62.749 53.2069 62.7041 53.0287 62.6592 52.8504C62.5695 52.7168 62.4797 52.5831 62.3899 52.5385C62.3002 52.494 62.1206 52.4494 61.9411 52.4494V53.608C61.9411 53.8308 61.9411 53.9645 61.986 54.0091C61.986 54.0536 62.0309 54.0982 62.0757 54.1427C62.1206 54.1873 62.2104 54.1873 62.345 54.1873H62.6144C63.0183 54.1873 63.3325 54.0982 63.5569 53.9199C63.7814 53.7417 63.9609 53.4743 64.0507 53.1178H64.1853L64.0058 54.4101H60.3701V54.321H60.5048C60.6394 54.321 60.7292 54.321 60.819 54.2764C60.8639 54.2319 60.9087 54.1873 60.9536 54.1427C60.9985 54.0982 60.9985 53.9645 60.9985 53.7862V51.1125C60.9985 50.9343 60.9985 50.8006 60.9985 50.756C60.9985 50.6669 60.9536 50.6224 60.8639 50.5778C60.7741 50.5332 60.6843 50.4887 60.5497 50.4887H60.415V50.355H63.9609V51.5582H63.8262C63.7814 51.2462 63.6916 51.068 63.5569 50.9343C63.4672 50.8006 63.2876 50.7115 63.1081 50.6669C62.9734 50.6224 62.7939 50.6224 62.4348 50.6224H61.8962V50.5778Z" fill="#21409A"/>
<path d="M66.1149 52.5385V53.6971C66.1149 53.9199 66.1149 54.0536 66.1598 54.0982C66.2047 54.1427 66.2496 54.1873 66.2944 54.2319C66.3842 54.2764 66.5189 54.2764 66.6984 54.2764V54.3656H64.5439V54.2764C64.7235 54.2764 64.8581 54.2764 64.9479 54.2319C65.0377 54.1873 65.0826 54.1427 65.0826 54.0982C65.1274 54.0536 65.1274 53.9199 65.1274 53.6971V51.068C65.1274 50.8452 65.1274 50.7115 65.0826 50.6669C65.0377 50.6224 64.9928 50.5778 64.9479 50.5332C64.8581 50.4887 64.7684 50.4887 64.5439 50.4887V50.355H66.5189C67.0126 50.355 67.4166 50.3995 67.641 50.4441C67.8654 50.5332 68.0898 50.6224 68.2245 50.8006C68.3592 50.9788 68.4489 51.2017 68.4489 51.4245C68.4489 51.7364 68.3143 51.9592 68.0898 52.182C67.9552 52.3157 67.7308 52.4048 67.5063 52.4494L68.5387 53.8308C68.6733 54.0091 68.7631 54.0982 68.808 54.1427C68.8978 54.1873 68.9875 54.2319 69.1222 54.2319V54.321H67.7756L66.4291 52.4494H66.1149V52.5385ZM66.1149 50.5778V52.3603H66.2944C66.5638 52.3603 66.7882 52.3157 66.9228 52.2711C67.0575 52.2266 67.1921 52.1375 67.2819 52.0038C67.3717 51.8701 67.4166 51.6918 67.4166 51.469C67.4166 51.1571 67.3268 50.9343 67.1921 50.8006C67.0575 50.6669 66.7882 50.5778 66.474 50.5778H66.1149Z" fill="#21409A"/>
<path d="M72.8035 50.355V51.469H72.7138C72.6689 51.2017 72.5791 51.0234 72.4893 50.9343C72.3996 50.8006 72.3098 50.756 72.1751 50.6669C72.0854 50.6224 71.9507 50.6224 71.7712 50.6224H71.457V53.7862C71.457 54.0091 71.457 54.1427 71.5019 54.1873C71.5468 54.2319 71.5916 54.2764 71.6365 54.321C71.7263 54.3656 71.8161 54.3656 71.9058 54.3656H72.0405V54.4547H69.8411V54.3656H69.9758C70.1104 54.3656 70.2002 54.3656 70.29 54.321C70.3349 54.2764 70.3797 54.2319 70.4246 54.1873C70.4695 54.1427 70.4695 54.0091 70.4695 53.8308V50.6669H70.1553C69.886 50.6669 69.6616 50.7115 69.5269 50.8452C69.3474 51.0234 69.2127 51.2462 69.1679 51.5582H69.0332V50.355H72.8035Z" fill="#21409A"/>
<path d="M75.3615 54.321V54.4101H73.1621V54.321H73.2968C73.4314 54.321 73.5212 54.321 73.611 54.2764C73.6558 54.2319 73.7007 54.1873 73.7456 54.1427C73.7905 54.0982 73.7905 53.9645 73.7905 53.7862V51.1125C73.7905 50.8897 73.7905 50.756 73.7456 50.7115C73.7456 50.6669 73.6558 50.6224 73.611 50.5778C73.5212 50.5332 73.4314 50.5332 73.3416 50.5332H73.1621V50.355H75.3615V50.4887H75.2268C75.0922 50.4887 75.0024 50.4887 74.9126 50.5332C74.8677 50.5778 74.8228 50.6224 74.778 50.6669C74.778 50.7115 74.7331 50.8452 74.7331 51.0234V53.6971C74.7331 53.9199 74.7331 54.0536 74.778 54.0982C74.8228 54.1427 74.8677 54.1873 74.9126 54.2319C75.0024 54.2764 75.0922 54.2764 75.1819 54.2764H75.3615V54.321Z" fill="#21409A"/>
<path d="M77.2467 50.5778V52.2711H77.3814C77.5609 52.2711 77.7405 52.2266 77.8302 52.182C77.9649 52.1375 78.0547 52.0483 78.1444 51.9146C78.2342 51.781 78.2791 51.6027 78.324 51.3799H78.4137V53.4298H78.324C78.2791 53.0287 78.1893 52.8059 78.0098 52.6722C77.8302 52.5385 77.6507 52.494 77.4263 52.494H77.2916V53.7417C77.2916 53.9645 77.2916 54.0982 77.3365 54.1427C77.3814 54.1873 77.4263 54.2319 77.4712 54.2764C77.5609 54.321 77.6507 54.321 77.7405 54.321H77.8751V54.4101H75.6758V54.321H75.8104C75.9451 54.321 76.0349 54.321 76.1246 54.2764C76.1695 54.2319 76.2144 54.1873 76.2593 54.1427C76.3042 54.0982 76.3042 53.9645 76.3042 53.7862V51.1125C76.3042 50.8897 76.3042 50.756 76.2593 50.7115C76.2593 50.6669 76.1695 50.6224 76.1246 50.5778C76.0349 50.5332 75.9451 50.5332 75.8553 50.5332H75.7207V50.355H79.2666V51.5136H79.1319C79.087 51.2462 79.0421 51.0234 78.9075 50.8897C78.7728 50.756 78.5933 50.6669 78.3689 50.6224C78.2342 50.5778 78.0098 50.5778 77.6956 50.5778H77.2467Z" fill="#21409A"/>
<path d="M81.7355 54.321V54.4101H79.5361V54.321H79.6708C79.8054 54.321 79.8952 54.321 79.985 54.2764C80.0299 54.2319 80.0748 54.1873 80.1196 54.1427C80.1645 54.0982 80.1645 53.9645 80.1645 53.7862V51.1125C80.1645 50.8897 80.1645 50.756 80.1196 50.7115C80.1196 50.6669 80.0299 50.6224 79.985 50.5778C79.8952 50.5332 79.8054 50.5332 79.7157 50.5332H79.581V50.355H81.7804V50.4887H81.6457C81.5111 50.4887 81.4213 50.4887 81.3315 50.5332C81.2866 50.5778 81.2418 50.6224 81.1969 50.6669C81.1969 50.7115 81.152 50.8452 81.152 51.0234V53.6971C81.152 53.9199 81.152 54.0536 81.1969 54.0982C81.2418 54.1427 81.2866 54.1873 81.3315 54.2319C81.4213 54.2764 81.5111 54.2764 81.6008 54.2764H81.7355V54.321Z" fill="#21409A"/>
<path d="M86.1334 50.2659V51.6919H85.9988C85.909 51.3354 85.7295 51.0234 85.5051 50.8452C85.2358 50.6669 84.9664 50.5332 84.6523 50.5332C84.3829 50.5332 84.1585 50.6224 83.9341 50.756C83.7097 50.8897 83.575 51.1125 83.4404 51.3354C83.3057 51.6473 83.2608 51.9592 83.2608 52.3603C83.2608 52.7168 83.3057 53.0733 83.3955 53.3406C83.4852 53.6526 83.6199 53.8754 83.8443 54.0091C84.0688 54.1428 84.2932 54.2319 84.6523 54.2319C84.9216 54.2319 85.146 54.1873 85.3704 54.0536C85.5948 53.9199 85.8193 53.7417 86.0886 53.4743V53.8308C85.8641 54.0536 85.5948 54.2319 85.3704 54.3656C85.1011 54.4547 84.8318 54.5438 84.4727 54.5438C84.0239 54.5438 83.6199 54.4547 83.2608 54.2764C82.9017 54.0982 82.6324 53.8308 82.4529 53.5189C82.2734 53.207 82.1836 52.8505 82.1836 52.494C82.1836 52.0929 82.2734 51.7364 82.4978 51.3799C82.7222 51.0234 82.9915 50.756 83.3506 50.5778C83.7097 50.3996 84.0687 50.3104 84.4727 50.3104C84.7869 50.3104 85.1011 50.355 85.4153 50.4887C85.5948 50.5778 85.7295 50.5778 85.7744 50.5778C85.8193 50.5778 85.909 50.5332 85.9539 50.4887C85.9988 50.4441 86.0437 50.355 86.0437 50.2659H86.1334Z" fill="#21409A"/>
<path d="M89.1414 53.2515H87.6602L87.4807 53.6526C87.4358 53.7863 87.3909 53.8754 87.3909 53.9645C87.3909 54.0982 87.4358 54.1428 87.5256 54.2319C87.5704 54.2764 87.7051 54.2764 87.9295 54.321V54.4101H86.5381V54.321C86.6727 54.2764 86.8074 54.2319 86.8972 54.1428C86.9869 54.0536 87.1216 53.8308 87.2562 53.5189L88.7823 50.2659H88.8272L90.3533 53.608C90.4879 53.9199 90.6226 54.1428 90.7124 54.1873C90.8021 54.2319 90.8919 54.2764 91.0266 54.2764V54.3656H89.0067V54.2764H89.0965C89.2761 54.2764 89.3658 54.2319 89.4556 54.2319C89.5005 54.1873 89.5454 54.1428 89.5454 54.0982C89.5454 54.0536 89.5454 54.0091 89.5454 54.0091C89.5454 54.0091 89.5005 53.9199 89.4556 53.7863L89.1414 53.2515ZM89.0067 53.0287L88.3784 51.6473L87.75 53.0287H89.0067Z" fill="#21409A"/>
<path d="M94.617 50.355V51.469H94.5272C94.4824 51.2017 94.3926 51.0234 94.3028 50.9343C94.213 50.8006 94.1233 50.756 93.9886 50.6669C93.8988 50.6224 93.7642 50.6224 93.5847 50.6224H93.2705V53.7862C93.2705 54.0091 93.2705 54.1427 93.3153 54.1873C93.3602 54.2319 93.4051 54.2764 93.45 54.321C93.5398 54.3656 93.6295 54.3656 93.7193 54.3656H93.854V54.4547H91.6546V54.3656H91.7893C91.9239 54.3656 92.0137 54.3656 92.1035 54.321C92.1483 54.2764 92.1932 54.2319 92.2381 54.1873C92.283 54.1427 92.283 54.0091 92.283 53.8308V50.6669H91.9688C91.6995 50.6669 91.4751 50.7115 91.3404 50.8452C91.1609 51.0234 91.0262 51.2462 90.9813 51.5582H90.8467V50.355H94.617Z" fill="#21409A"/>
<path d="M97.1759 54.321V54.4101H94.9766V54.321H95.1112C95.2459 54.321 95.3356 54.321 95.4254 54.2764C95.4703 54.2319 95.5152 54.1873 95.5601 54.1427C95.6049 54.0982 95.6049 53.9645 95.6049 53.7862V51.1125C95.6049 50.8897 95.6049 50.756 95.5601 50.7115C95.5601 50.6669 95.4703 50.6224 95.4254 50.5778C95.3356 50.5332 95.2459 50.5332 95.1561 50.5332H95.0214V50.355H97.2208V50.4887H97.0861C96.9515 50.4887 96.8617 50.4887 96.772 50.5332C96.7271 50.5778 96.6822 50.6224 96.6373 50.6669C96.6373 50.7115 96.5924 50.8452 96.5924 51.0234V53.6971C96.5924 53.9199 96.5924 54.0536 96.6373 54.0982C96.6822 54.1427 96.7271 54.1873 96.772 54.2319C96.8617 54.2764 96.9515 54.2764 97.0413 54.2764H97.1759V54.321Z" fill="#21409A"/>
<path d="M99.7785 50.2659C100.452 50.2213 100.99 50.4441 101.394 50.8452C101.798 51.2462 102.023 51.7364 102.023 52.3603C102.023 52.895 101.888 53.3406 101.574 53.7417C101.17 54.2764 100.586 54.5438 99.8233 54.5438C99.0603 54.5438 98.4768 54.2764 98.0728 53.7863C97.7586 53.3852 97.5791 52.9396 97.5791 52.4048C97.5791 51.781 97.8035 51.2908 98.2075 50.8897C98.6563 50.4441 99.1501 50.2659 99.7785 50.2659ZM99.8233 50.4887C99.4194 50.4887 99.1501 50.6669 98.9256 51.068C98.7461 51.3799 98.7012 51.8255 98.7012 52.4048C98.7012 53.1178 98.8359 53.608 99.0603 53.9645C99.2398 54.1873 99.4643 54.321 99.8233 54.321C100.048 54.321 100.227 54.2764 100.362 54.1873C100.542 54.0536 100.676 53.8754 100.766 53.5634C100.856 53.2961 100.901 52.895 100.901 52.4494C100.901 51.9147 100.856 51.5136 100.766 51.2462C100.676 50.9789 100.542 50.8006 100.362 50.6669C100.227 50.5332 100.048 50.4887 99.8233 50.4887Z" fill="#21409A"/>
<path d="M103.863 50.355L105.928 52.895V51.1571C105.928 50.9343 105.883 50.756 105.838 50.6669C105.748 50.5332 105.569 50.4887 105.344 50.4887V50.355H106.736V50.4887C106.556 50.4887 106.421 50.5332 106.377 50.5778C106.332 50.6224 106.287 50.6669 106.242 50.756C106.197 50.8452 106.197 50.9788 106.197 51.1571V54.5438H106.107L103.235 51.1571V53.7417C103.235 53.9645 103.28 54.1427 103.414 54.2319C103.504 54.321 103.639 54.3656 103.773 54.3656H103.863V54.4547H102.382V54.3656C102.606 54.3656 102.786 54.321 102.876 54.2319C102.965 54.1427 103.01 54.0091 103.01 53.7862V50.8897L102.92 50.8006C102.831 50.7115 102.741 50.6224 102.696 50.5778C102.606 50.5332 102.516 50.5332 102.382 50.5332V50.355H103.863Z" fill="#21409A"/>
<path d="M108.127 41.5763C108.441 41.5763 108.756 41.6654 109.07 41.7991C109.384 41.9774 109.608 42.2002 109.788 42.5121C109.968 42.824 110.057 43.136 110.057 43.4479C110.057 43.7598 109.968 44.0718 109.788 44.3837C109.608 44.6956 109.384 44.9184 109.07 45.0967C108.756 45.2749 108.441 45.3641 108.082 45.3641C107.768 45.3641 107.409 45.2749 107.095 45.0967C106.781 44.9184 106.556 44.6956 106.377 44.3837C106.197 44.0718 106.107 43.7598 106.107 43.4479C106.107 43.136 106.197 42.824 106.377 42.5121C106.556 42.2002 106.781 41.9774 107.095 41.7991C107.499 41.6209 107.813 41.5763 108.127 41.5763ZM108.127 41.7991C107.858 41.7991 107.544 41.8882 107.274 42.0219C107.005 42.1556 106.781 42.3784 106.646 42.6458C106.511 42.9131 106.422 43.1805 106.422 43.4479C106.422 43.7153 106.511 43.9826 106.646 44.25C106.781 44.5174 107.005 44.6956 107.274 44.8739C107.544 45.0076 107.813 45.0967 108.127 45.0967C108.441 45.0967 108.711 45.0076 108.98 44.8739C109.249 44.7402 109.474 44.5174 109.608 44.25C109.743 43.9826 109.833 43.7153 109.833 43.4479C109.833 43.1805 109.743 42.8686 109.608 42.6458C109.474 42.3784 109.249 42.2002 108.98 42.0219C108.711 41.8437 108.441 41.7991 108.127 41.7991ZM107.095 42.3338H108.082C108.397 42.3338 108.666 42.3784 108.756 42.4675C108.935 42.5567 109.025 42.7349 109.025 42.9132C109.025 43.0468 108.98 43.136 108.89 43.2696C108.801 43.3588 108.666 43.4479 108.531 43.4925L108.89 44.1609C108.935 44.25 108.98 44.3391 109.07 44.3837C109.115 44.4283 109.115 44.4283 109.204 44.4283V44.5174H108.531L107.948 43.537H107.813V44.0718C107.813 44.2054 107.813 44.3391 107.858 44.3391C107.903 44.3837 107.993 44.3837 108.127 44.4283V44.5174H106.96V44.4283C107.095 44.4283 107.14 44.4283 107.185 44.3837C107.23 44.3391 107.274 44.25 107.274 44.0718V42.7795C107.274 42.6458 107.274 42.5567 107.23 42.5121C107.185 42.4675 107.14 42.4675 107.05 42.423V42.3338H107.095ZM107.903 43.3588C107.948 43.3588 108.037 43.3588 108.037 43.3588C108.172 43.3588 108.262 43.3142 108.352 43.2251C108.441 43.136 108.486 43.0023 108.486 42.8686C108.486 42.7349 108.441 42.6012 108.352 42.5121C108.262 42.423 108.172 42.3784 107.993 42.3784H107.903V43.3588Z" fill="#21409A"/>
<path d="M108.531 29.9456C108.531 29.9456 105.703 34.8029 100.317 36.9418C99.5539 37.2538 98.7909 37.4766 97.9829 37.6548C97.175 37.8331 96.3671 37.9222 95.5592 37.9668C91.34 38.145 87.0311 36.5408 84.6522 32.753C84.2033 32.04 83.7994 31.2825 83.4852 30.5249C83.171 29.7674 82.9017 29.0544 82.7221 28.2968C81.7347 24.5091 82.3182 20.8995 82.9017 18.6269C83.0363 18.1813 83.171 17.7356 83.3954 17.2455C83.6198 16.7553 83.8442 16.2651 84.1584 15.7749C85.6845 13.2349 88.5571 10.7394 93.1803 10.6503C94.078 10.6503 94.9308 10.6949 95.7387 10.8285C96.5466 10.9622 97.3097 11.1405 98.0278 11.4079C101.708 12.7447 104.222 15.864 105.658 20.0974L105.254 20.2311C103.863 16.0869 101.439 13.1012 97.8932 11.8089C97.2199 11.5415 96.4569 11.3633 95.6938 11.2296C94.9308 11.0959 94.078 11.0514 93.2252 11.0514C88.7816 11.1405 86.0436 13.5468 84.5624 15.9977C84.2931 16.4879 84.0238 16.9335 83.8442 17.4237C83.6647 17.9139 83.4852 18.3595 83.3954 18.7606C82.8119 20.9441 82.2733 24.5091 83.2158 28.2077C83.3954 28.9207 83.6198 29.6337 83.934 30.3912C84.2482 31.1042 84.6073 31.8172 85.0561 32.5302C87.3901 36.1397 91.5195 37.6994 95.604 37.5211C96.412 37.4766 97.175 37.3875 97.9829 37.2092C98.746 37.031 99.509 36.8082 100.272 36.5408C105.524 34.4909 108.262 29.7674 108.262 29.7228L108.531 29.9456Z" fill="#BCBEC0"/>
<path d="M0 10.5166C0 10.5166 5.16175 9.89275 5.16175 14.6609V25.0884V33.1986C5.20663 33.5106 5.70036 38.9917 0.0448848 38.5906L0.0897695 38.1896C5.38617 38.5906 4.75778 33.2878 4.75778 33.2432V25.0438V14.6163C4.75778 10.3384 0.0897695 10.9177 0.0897695 10.9177L0 10.5166Z" fill="#BCBEC0"/>
<path d="M110.596 6.14955H71.7256V5.70393H110.596V6.14955Z" fill="#21409A"/>
<path d="M110.596 4.94638H70.334V4.50076H110.596V4.94638Z" fill="#BCBEC0"/>
<path d="M0.314453 5.70393H33.4843V6.14955H0.314453V5.70393Z" fill="#21409A"/>
<path d="M0.314453 4.50076H34.6513V4.94638H0.314453V4.50076Z" fill="#BCBEC0"/>
<path d="M0.494141 58.1979H109.833V59H0.494141V58.1979Z" fill="#21409A"/>
</svg>
