<svg width="31" height="28" viewBox="0 0 31 28" fill="none" xmlns="http://www.w3.org/2000/svg">
<path d="M26.1079 1.18592C22.8108 -0.577225 19.4889 -0.348669 16.3735 1.70017C15.6877 2.15728 15.3075 2.14095 14.6465 1.692C10.7709 -0.952709 5.68059 -0.364995 2.47436 3.02252C-0.640965 6.31209 -0.839288 11.4219 2.01987 15.0135C2.42478 15.5196 2.73053 16.0094 2.82969 16.6787C2.99496 17.8541 3.81305 18.5806 4.9534 18.7765C5.58969 18.8908 5.77975 19.103 5.88718 19.6907C6.09376 20.8417 6.854 21.6171 8.00263 21.813C8.70502 21.9355 8.87029 22.2538 8.99424 22.8497C9.22562 23.9517 9.99412 24.6618 11.0766 24.8577C11.7542 24.9802 11.9278 25.2577 12.0765 25.8617C12.6136 28.0004 15.0596 28.6942 16.7289 27.2086C17.3321 26.6698 17.894 26.0821 18.4642 25.5107C18.7699 25.2087 19.0509 24.9638 19.5467 24.923C20.9598 24.8006 21.8274 23.9925 22.0836 22.6375C22.1827 22.1314 22.348 21.9518 22.8604 21.862C24.1329 21.6498 24.9427 20.858 25.1493 19.601C25.2485 18.9969 25.5295 18.8826 26.0583 18.801C26.959 18.6622 27.8102 18.1398 27.9754 17.2991C28.2564 15.9033 29.1654 14.9156 29.8347 13.7728C30.6198 12.4259 31.0081 10.9648 30.9999 9.38942C30.9255 5.75702 29.3554 2.92457 26.1079 1.18592ZM5.54011 17.5848C4.92035 17.5848 4.47412 17.2827 4.20143 16.7522C3.92047 16.2134 3.92873 15.6502 4.34191 15.2013C5.09388 14.3932 5.88718 13.6177 6.70526 12.8667C7.15975 12.4504 7.72167 12.4586 8.26706 12.728C8.81245 13.0055 9.0934 13.4463 9.0934 14.0503C9.08514 15.0135 6.50694 17.5766 5.54011 17.5848ZM9.67185 20.1887C8.96119 20.8254 8.18442 20.8254 7.52335 20.1315C6.92011 19.4867 6.93664 18.752 7.54814 18.099C8.24227 17.3644 8.96945 16.6542 9.72143 15.9686C10.2007 15.5359 10.7792 15.4625 11.3741 15.789C11.9113 16.0747 12.1839 16.5155 12.1592 17.1195C12.1674 17.5195 12.0352 17.8623 11.7542 18.1398C11.0601 18.8255 10.3908 19.5356 9.67185 20.1887ZM12.6467 23.3068C12.0187 23.87 11.2832 23.8292 10.6883 23.266C10.0602 22.6701 9.94454 21.911 10.5478 21.2417C11.2502 20.458 12.0352 19.7397 12.8037 19.0132C13.2912 18.5561 13.878 18.5235 14.4564 18.8337C14.977 19.1112 15.2662 19.5601 15.258 20.1723C15.2497 20.5233 15.1588 20.8417 14.9109 21.0947C14.1589 21.8375 13.4317 22.6048 12.6467 23.3068ZM14.8283 26.7107C14.225 26.7107 13.7623 26.4576 13.4565 25.9434C13.1177 25.372 13.159 24.7761 13.597 24.3027C14.3407 23.4946 15.1423 22.7354 15.9521 21.9926C16.4066 21.5763 16.9685 21.5845 17.5056 21.862C18.0427 22.1314 18.3402 22.5722 18.332 23.1762C18.3237 24.1068 15.7786 26.678 14.8283 26.7107ZM26.5045 17.1521C25.7526 17.8705 24.9427 17.6827 24.2321 16.9971C22.4968 15.2992 20.778 13.585 19.0426 11.8872C18.6708 11.5199 18.2576 10.8669 17.6792 11.4138C17.0924 11.9607 17.7122 12.3933 18.0923 12.7688C19.7533 14.4176 21.4308 16.0583 23.0917 17.7154C24.0751 18.6949 24.199 19.5765 23.4057 20.2295C22.472 20.9968 21.6952 20.605 20.9432 19.8458C19.2657 18.148 17.5552 16.491 15.8529 14.8176C15.4893 14.4666 15.1009 13.9442 14.5804 14.4748C14.068 14.989 14.5804 15.4053 14.9274 15.7563C16.6462 17.4705 18.3815 19.1683 20.1169 20.8662C20.8523 21.5845 21.1333 22.3355 20.3896 23.2007C20.2656 23.3395 20.0342 23.4701 19.8524 23.4701C19.5632 23.4619 19.6376 23.168 19.6128 22.9721C19.4558 21.5682 18.6542 20.7356 17.2742 20.4744C16.7702 20.3764 16.5636 20.2132 16.4892 19.6989C16.2992 18.4255 15.4728 17.6746 14.2168 17.4297C13.7375 17.3317 13.4896 17.2256 13.4152 16.6869C13.2334 15.4135 12.4153 14.6217 11.1593 14.4013C10.5726 14.2952 10.4404 14.0503 10.3081 13.5361C9.72143 11.2179 7.3085 10.5567 5.52359 12.1892C4.92862 12.7361 4.33364 13.2912 3.80478 13.8952C3.30897 14.4585 3.03628 14.2952 2.66442 13.7565C1.80502 12.5321 1.27616 10.875 1.29269 8.68743C1.43317 6.18148 2.77185 3.83879 5.45748 2.36134C8.10179 0.908385 10.7792 1.03083 13.4235 2.4593C14.3324 2.94906 14.6712 3.38168 13.6714 4.14897C13.0681 4.61425 12.5558 5.1938 12.0269 5.74886C10.8535 6.98143 10.8205 8.59764 11.9278 9.73225C12.9938 10.8261 14.7374 10.8424 15.9769 9.73225C16.671 9.10373 17.3404 8.44255 17.9766 7.75688C18.3898 7.30794 18.679 7.28345 19.117 7.7324C21.5217 10.1486 23.9594 12.5321 26.3806 14.9319C27.0995 15.6094 27.2648 16.4175 26.5045 17.1521ZM28.4134 13.634C27.992 14.3279 27.7027 14.3687 27.0995 13.7646C24.6205 11.2505 22.0505 8.80987 19.5798 6.2876C18.836 5.52847 18.3237 5.455 17.6048 6.27944C16.8528 7.14468 15.9934 7.92014 15.1588 8.71192C14.4399 9.38942 13.6218 9.54451 12.8946 8.80171C12.1674 8.0589 12.3162 7.26712 13.0351 6.56513C14.1589 5.46317 15.2166 4.27958 16.4231 3.27557C18.9848 1.16143 21.9018 0.704318 24.951 2.06749C28.0498 3.45515 29.5538 5.97742 29.6942 8.70376C29.7025 10.875 29.2315 12.2953 28.4134 13.634Z" fill="black"/>
</svg>
