<svg width="40" height="38" viewBox="0 0 40 38" fill="none" xmlns="http://www.w3.org/2000/svg">
<path d="M39.7886 31.1937L16.6274 8.04697C17.7197 7.15381 18.9856 6.18996 20.4249 5.15543C20.5096 5.0937 20.5799 5.01428 20.6308 4.92269C20.6818 4.8311 20.7122 4.72952 20.72 4.62499C20.7278 4.52047 20.7128 4.4155 20.676 4.31736C20.6392 4.21922 20.5815 4.13026 20.5068 4.05665L17.0948 0.683187C16.9853 0.574533 16.8439 0.50376 16.6913 0.481215C16.5387 0.458671 16.3829 0.485537 16.2466 0.557887C14.6977 1.377 13.2223 2.32832 11.837 3.40123L8.68044 0.206083C8.5423 0.0738257 8.35844 0 8.16719 0C7.97595 0 7.79209 0.0738257 7.65395 0.206083L4.06362 3.83978C3.92971 3.97512 3.8546 4.15783 3.8546 4.34821C3.8546 4.5386 3.92971 4.7213 4.06362 4.85664L7.12865 7.92649C2.78861 13.057 0.280778 19.4868 0.00100446 26.201C-0.00731831 26.3588 0.0362586 26.5149 0.12507 26.6455C0.213882 26.7762 0.34304 26.8741 0.492789 26.9244C0.642538 26.9747 0.804635 26.9745 0.954288 26.924C1.10394 26.8734 1.23291 26.7752 1.32147 26.6444C1.38894 26.548 7.00817 18.1963 11.837 12.6686L35.0754 35.907C35.2109 36.0423 35.3947 36.1184 35.5862 36.1184C35.7778 36.1184 35.9615 36.0423 36.0971 35.907L39.7886 32.2154C39.924 32.0799 40 31.8961 40 31.7046C40 31.513 39.924 31.3293 39.7886 31.1937ZM5.57204 4.32653L8.14551 1.72414L10.6901 4.29761C10.1632 4.74741 9.65553 5.21487 9.16719 5.70001C8.78647 6.07591 8.4202 6.46145 8.06358 6.84699L5.57204 4.32653ZM10.184 6.73614C12.0472 4.90095 14.1556 3.33265 16.449 2.07595L18.8587 4.48556C16.7704 5.9856 14.7882 7.62805 12.9262 9.40118C9.10935 13.1795 4.19856 19.9746 1.68774 23.5264C2.56094 17.1296 5.56027 11.2124 10.2033 6.7265L10.184 6.73614ZM35.5862 34.3744L12.8105 11.6084C13.1961 11.1891 13.5768 10.7939 13.9479 10.4277C14.4009 9.97949 14.9117 9.49274 15.5238 8.98191L38.2561 31.7046L35.5862 34.3744Z" fill="black"/>
<path d="M3.16296 31.9937C3.02592 31.866 2.84467 31.7965 2.6574 31.7998C2.47012 31.8031 2.29144 31.879 2.15899 32.0114C2.02655 32.1439 1.95068 32.3225 1.94738 32.5098C1.94407 32.6971 2.01359 32.8783 2.14128 33.0154L6.47859 37.3527C6.54477 37.4237 6.62458 37.4807 6.71325 37.5202C6.80192 37.5597 6.89765 37.5809 6.99471 37.5827C7.09177 37.5844 7.18818 37.5665 7.27819 37.5301C7.36821 37.4938 7.44997 37.4397 7.51862 37.371C7.58726 37.3024 7.64138 37.2206 7.67773 37.1306C7.71409 37.0406 7.73195 36.9442 7.73023 36.8471C7.72852 36.7501 7.70727 36.6543 7.66776 36.5657C7.62825 36.477 7.57129 36.3972 7.50027 36.331L3.16296 31.9937Z" fill="black"/>
<path d="M13.2544 27.9263H3.13402C2.9423 27.9263 2.75843 28.0024 2.62286 28.138C2.48729 28.2736 2.41113 28.4574 2.41113 28.6492C2.41113 28.8409 2.48729 29.0247 2.62286 29.1603C2.75843 29.2959 2.9423 29.372 3.13402 29.372H13.2544C13.4461 29.372 13.63 29.2959 13.7656 29.1603C13.9011 29.0247 13.9773 28.8409 13.9773 28.6492C13.9773 28.4574 13.9011 28.2736 13.7656 28.138C13.63 28.0024 13.4461 27.9263 13.2544 27.9263Z" fill="black"/>
</svg>
