<svg width="37" height="37" viewBox="0 0 37 37" fill="none" xmlns="http://www.w3.org/2000/svg">
<path d="M32.8307 9.13986C32.5489 8.85808 32.0937 8.85808 31.8119 9.13986C31.5301 9.42164 31.5301 9.87683 31.8119 10.1586C33.0041 11.3508 33.0041 13.2799 31.8119 14.472C31.5301 14.7538 31.5301 15.209 31.8119 15.4908C31.9564 15.6353 32.1371 15.7003 32.3249 15.7003C32.5128 15.7003 32.6934 15.628 32.8379 15.4908C34.5864 13.7423 34.5864 10.8884 32.8307 9.13986Z" fill="black"/>
<path d="M34.8395 7.12406C34.5577 6.84227 34.1025 6.84227 33.8207 7.12406C33.5389 7.40584 33.5389 7.86102 33.8207 8.1428C34.9334 9.25547 35.5475 10.7366 35.5475 12.3117C35.5475 13.8868 34.9334 15.368 33.8207 16.4806C33.5389 16.7624 33.5389 17.2176 33.8207 17.4994C33.9652 17.6439 34.1458 17.7089 34.3337 17.7089C34.5216 17.7089 34.7022 17.6367 34.8467 17.4994C36.2339 16.1121 36.9998 14.2697 36.9998 12.3117C36.9925 10.3537 36.2267 8.51128 34.8395 7.12406Z" fill="black"/>
<path d="M5.18123 9.13986C4.89945 8.85808 4.44427 8.85808 4.16249 9.13986C2.40678 10.8956 2.40678 13.7423 4.16249 15.498C4.30699 15.6425 4.48762 15.7075 4.67547 15.7075C4.86333 15.7075 5.04396 15.6353 5.18846 15.498C5.47024 15.2162 5.47024 14.761 5.18846 14.4793C3.99631 13.2871 3.99631 11.358 5.18846 10.1658C5.46301 9.87683 5.46301 9.42164 5.18123 9.13986Z" fill="black"/>
<path d="M1.44503 12.3189C1.44503 10.7438 2.05917 9.26268 3.17184 8.15C3.45362 7.86822 3.45362 7.41304 3.17184 7.13126C2.89006 6.84948 2.43488 6.84948 2.1531 7.13126C0.765866 8.51126 0 10.3537 0 12.3189C0 14.2769 0.765866 16.1193 2.1531 17.5066C2.2976 17.6511 2.47823 17.7161 2.66608 17.7161C2.85393 17.7161 3.03456 17.6439 3.17907 17.5066C3.46085 17.2248 3.46085 16.7696 3.17907 16.4878C2.05917 15.3679 1.44503 13.894 1.44503 12.3189Z" fill="black"/>
<path d="M15.079 0.476853C14.9707 0.505753 14.8623 0.541879 14.7539 0.578005C14.8767 0.541879 15.0068 0.498528 15.1513 0.462402C15.1224 0.462402 15.1007 0.469627 15.079 0.476853Z" fill="black"/>
<path d="M22.6573 0.722534C22.6501 0.729759 21.6458 1.87856 21.1256 1.75573C21.1545 1.76296 21.1834 1.77741 21.2123 1.78463C25.9954 3.02013 29.3334 7.33355 29.3334 12.2756C29.3334 16.1916 27.1153 19.9631 23.6905 21.885C23.4593 22.0151 23.322 22.2535 23.322 22.5136V25.1869C23.2064 25.1724 23.0981 25.1652 22.9752 25.1652H14.0161C13.9005 25.1652 13.7921 25.1724 13.6837 25.1869V22.5136C13.6837 22.239 13.532 21.9862 13.2935 21.8489C9.87604 19.927 7.66515 16.1699 7.66515 12.2756C7.66515 7.75261 10.5191 3.6993 14.6952 2.12421C14.688 2.12421 14.688 2.12421 14.6808 2.13144C12.5855 2.87563 13.5464 1.03322 13.5464 1.03322C11.6607 1.87133 9.98442 3.17909 8.72724 4.83365C7.07991 6.98674 6.21289 9.55889 6.21289 12.2756C6.21289 14.4937 6.82703 16.6901 7.9975 18.6265C9.05237 20.3894 10.5191 21.8561 12.2387 22.9038V25.8877C12.2387 25.9022 12.2387 25.9166 12.2387 25.9311C11.8196 26.3718 11.5595 26.9643 11.5595 27.6218C11.5595 28.3009 11.8341 28.9079 12.2748 29.3558C11.8341 29.8038 11.5595 30.4107 11.5595 31.0898C11.5595 32.441 12.665 33.5464 14.0161 33.5464H14.4062C14.7458 35.4972 16.4582 36.9856 18.5029 36.9856C20.5548 36.9856 22.26 35.4972 22.5995 33.5464H22.968C24.3191 33.5464 25.4246 32.441 25.4246 31.0898C25.4246 30.4107 25.15 29.8038 24.7093 29.3558C25.15 28.9079 25.4246 28.3009 25.4246 27.6218C25.4246 26.9715 25.1717 26.379 24.7526 25.9383C24.7526 25.9239 24.7526 25.9022 24.7526 25.8877V22.9254C26.465 21.885 27.9245 20.4111 28.9793 18.6481C30.1498 16.7046 30.764 14.5009 30.764 12.2756C30.7712 7.05177 27.491 2.45657 22.6573 0.722534ZM18.5029 35.5405C17.2529 35.5405 16.1981 34.6952 15.8801 33.5464H21.1184C20.8077 34.688 19.7528 35.5405 18.5029 35.5405ZM22.968 32.1014H14.0088C13.4525 32.1014 12.9973 31.6462 12.9973 31.0898C12.9973 30.5335 13.4525 30.0783 14.0088 30.0783H22.968C23.5244 30.0783 23.9795 30.5335 23.9795 31.0898C23.9795 31.6462 23.5244 32.1014 22.968 32.1014ZM22.968 28.6333H14.0088C13.4525 28.6333 12.9973 28.1781 12.9973 27.6218C12.9973 27.0654 13.4525 26.6103 14.0088 26.6103H22.968C23.5244 26.6103 23.9795 27.0654 23.9795 27.6218C23.9795 28.1781 23.5244 28.6333 22.968 28.6333Z" fill="black"/>
<path d="M14.6741 2.13144C14.6813 2.13144 14.6813 2.13144 14.6885 2.12422C16.7838 1.38725 19.5511 1.38725 21.1261 1.75573C21.6463 1.87856 22.6506 0.729761 22.6579 0.722536C22.6362 0.71531 22.6217 0.708085 22.6001 0.70086C22.5784 0.693635 22.5567 0.68641 22.535 0.679185C19.5222 -0.382913 16.7838 0.00724561 15.1437 0.46243C15.0064 0.498556 14.8692 0.541907 14.7463 0.578033C13.9805 0.816463 13.5397 1.04044 13.5397 1.04044C13.547 1.03322 12.586 2.87563 14.6741 2.13144Z" fill="black"/>
</svg>
