<svg width="25" height="25" viewBox="0 0 25 25" fill="none" xmlns="http://www.w3.org/2000/svg">
<path fill-rule="evenodd" clip-rule="evenodd" d="M2.77778 25H22.2222C23.7563 25 25 23.7563 25 22.2222V2.77778C25 1.24365 23.7563 0 22.2222 0H2.77778C1.24365 0 0 1.24365 0 2.77778V22.2222C0 23.7563 1.24365 25 2.77778 25Z" fill="#2A3CAC"/>
<path fill-rule="evenodd" clip-rule="evenodd" d="M12.4994 4.16663C14.7625 4.16663 15.0463 4.17622 15.9352 4.21677C16.8222 4.25723 17.4279 4.39811 17.958 4.60413C18.506 4.81706 18.9707 5.10201 19.434 5.56528C19.8973 6.02859 20.1822 6.49332 20.3952 7.04131C20.6012 7.57137 20.7421 8.17715 20.7825 9.06414C20.8231 9.95297 20.8327 10.2368 20.8327 12.5C20.8327 14.7632 20.8231 15.0469 20.7825 15.9358C20.7421 16.8228 20.6012 17.4285 20.3952 17.9586C20.1822 18.5066 19.8973 18.9713 19.434 19.4346C18.9707 19.8979 18.506 20.1829 17.958 20.3958C17.4279 20.6018 16.8222 20.7427 15.9352 20.7831C15.0463 20.8237 14.7625 20.8333 12.4994 20.8333C10.2362 20.8333 9.95236 20.8237 9.06353 20.7831C8.17654 20.7427 7.57076 20.6018 7.0407 20.3958C6.49271 20.1829 6.02798 19.8979 5.56467 19.4346C5.1014 18.9713 4.81645 18.5066 4.60352 17.9586C4.3975 17.4285 4.25662 16.8228 4.21616 15.9358C4.17561 15.0469 4.16602 14.7632 4.16602 12.5C4.16602 10.2368 4.17561 9.95297 4.21616 9.06414C4.25662 8.17715 4.3975 7.57137 4.60352 7.04131C4.81645 6.49332 5.1014 6.02859 5.56467 5.56528C6.02798 5.10201 6.49271 4.81706 7.0407 4.60413C7.57076 4.39811 8.17654 4.25723 9.06353 4.21677C9.95236 4.17622 10.2362 4.16663 12.4994 4.16663ZM12.4994 5.66812C10.2743 5.66812 10.0107 5.67663 9.13197 5.71672C8.31948 5.75377 7.87823 5.88952 7.58459 6.00365C7.19561 6.15482 6.91801 6.3354 6.62641 6.62702C6.33479 6.91862 6.15421 7.19622 6.00304 7.5852C5.88891 7.87884 5.75316 8.32009 5.71611 9.13258C5.67602 10.0113 5.66751 10.2749 5.66751 12.5C5.66751 14.725 5.67602 14.9886 5.71611 15.8673C5.75316 16.6798 5.88891 17.1211 6.00304 17.4147C6.15421 17.8037 6.33482 18.0813 6.62641 18.3729C6.91801 18.6645 7.19561 18.8451 7.58459 18.9963C7.87823 19.1104 8.31948 19.2462 9.13197 19.2832C10.0106 19.3233 10.2741 19.3318 12.4994 19.3318C14.7246 19.3318 14.9881 19.3233 15.8667 19.2832C16.6792 19.2462 17.1205 19.1104 17.4141 18.9963C17.8031 18.8451 18.0807 18.6645 18.3723 18.3729C18.6639 18.0813 18.8445 17.8037 18.9957 17.4147C19.1098 17.1211 19.2455 16.6798 19.2826 15.8673C19.3227 14.9886 19.3312 14.725 19.3312 12.5C19.3312 10.2749 19.3227 10.0113 19.2826 9.13258C19.2455 8.32009 19.1098 7.87884 18.9957 7.5852C18.8445 7.19622 18.6639 6.91862 18.3723 6.62702C18.0807 6.3354 17.8031 6.15482 17.4141 6.00365C17.1205 5.88952 16.6792 5.75377 15.8667 5.71672C14.988 5.67663 14.7244 5.66812 12.4994 5.66812ZM12.4994 8.22068C14.8627 8.22068 16.7786 10.1366 16.7786 12.5C16.7786 14.8634 14.8627 16.7792 12.4994 16.7792C10.136 16.7792 8.22007 14.8634 8.22007 12.5C8.22007 10.1366 10.136 8.22068 12.4994 8.22068ZM12.4994 15.2777C14.0335 15.2777 15.2771 14.0341 15.2771 12.5C15.2771 10.9658 14.0335 9.72218 12.4994 9.72218C10.9652 9.72218 9.72157 10.9658 9.72157 12.5C9.72157 14.0341 10.9652 15.2777 12.4994 15.2777ZM17.9477 8.05161C17.9477 8.60391 17.5 9.0516 16.9477 9.0516C16.3954 9.0516 15.9477 8.60391 15.9477 8.05161C15.9477 7.49932 16.3954 7.0516 16.9477 7.0516C17.5 7.0516 17.9477 7.49932 17.9477 8.05161Z" fill="white"/>
</svg>
