<svg width="28" height="42" viewBox="0 0 28 42" fill="none" xmlns="http://www.w3.org/2000/svg">
<path d="M27.1565 23.6004C27.2017 25.3461 26.897 27.0831 26.2602 28.7091C25.6234 30.3352 24.6674 31.8172 23.4487 33.0679C22.23 34.3186 20.7733 35.3126 19.1643 35.9913C17.5553 36.67 15.8267 37.0197 14.0804 37.0197C12.3342 37.0197 10.6056 36.67 8.99661 35.9913C7.38763 35.3126 5.93084 34.3186 4.71214 33.0679C3.49344 31.8172 2.53751 30.3352 1.90071 28.7091C1.26392 27.0831 0.959154 25.3461 1.00439 23.6004C1.00439 17.385 10.7138 4.71715 13.4001 1.32852C13.4823 1.22599 13.5866 1.14324 13.7051 1.08638C13.8236 1.02952 13.9534 1 14.0848 1C14.2163 1 14.3461 1.02952 14.4646 1.08638C14.5831 1.14324 14.6873 1.22599 14.7696 1.32852C17.4559 4.71715 27.1565 17.385 27.1565 23.6004Z" stroke="#333333" stroke-width="1.5" stroke-linecap="round" stroke-linejoin="round"/>
<path d="M14.085 16.4193V41" stroke="#333333" stroke-width="1.5" stroke-linecap="round" stroke-linejoin="round"/>
</svg>
