<svg width="25" height="25" viewBox="0 0 25 25" fill="none" xmlns="http://www.w3.org/2000/svg">
<path fill-rule="evenodd" clip-rule="evenodd" d="M2.77778 25H22.2222C23.7563 25 25 23.7563 25 22.2222V2.77778C25 1.24365 23.7563 0 22.2222 0H2.77778C1.24365 0 0 1.24365 0 2.77778V22.2222C0 23.7563 1.24365 25 2.77778 25Z" fill="#2A3CAC"/>
<path fill-rule="evenodd" clip-rule="evenodd" d="M21.5282 21.5277H17.8184V15.209C17.8184 13.4766 17.1601 12.5085 15.7889 12.5085C14.2972 12.5085 13.5178 13.516 13.5178 15.209V21.5277H9.94256V9.49069H13.5178V11.1121C13.5178 11.1121 14.5928 9.12294 17.1472 9.12294C19.7003 9.12294 21.5282 10.6821 21.5282 13.9066V21.5277ZM5.67729 7.91453C4.45948 7.91453 3.47266 6.91997 3.47266 5.69335C3.47266 4.46674 4.45948 3.47217 5.67729 3.47217C6.8951 3.47217 7.88134 4.46674 7.88134 5.69335C7.88134 6.91997 6.8951 7.91453 5.67729 7.91453ZM3.83118 21.5277H7.55925V9.49069H3.83118V21.5277Z" fill="white"/>
</svg>
