<svg width="150" height="88" viewBox="0 0 150 88" fill="none" xmlns="http://www.w3.org/2000/svg">
<path d="M54.2394 87.0479C52.9772 86.7277 51.6827 86.4396 50.4206 86.0874C50.1617 86.0233 49.9351 85.8632 49.6115 85.6711C50.0322 85.2549 50.3882 84.8706 50.7766 84.5184C52.4594 82.9495 54.2394 81.4767 55.8575 79.8437C58.22 77.4103 59.6763 74.4325 59.9675 70.9425C60.2912 66.78 59.3203 62.9698 57.0873 59.5758C55.728 57.5266 54.1099 55.6375 52.5889 53.6844C52.3947 53.4282 52.1682 53.1721 52.0063 52.7878C52.5241 52.98 53.0743 53.14 53.5921 53.3962C58.4465 55.7015 62.4595 59.0315 65.2103 63.8663C66.2783 65.7234 66.9579 67.7406 67.152 69.9499C67.152 70.078 67.2168 70.2061 67.2491 70.3341V72.5434C67.2168 72.6715 67.152 72.7676 67.152 72.8956C66.8931 75.7773 65.987 78.4029 64.4336 80.7722C62.4918 83.75 59.9675 85.9273 56.5695 86.7598C55.9869 86.8878 55.3721 86.9519 54.7572 87.0479H54.2394Z" fill="#2A3CAC"/>
<path d="M51.8771 55.9583C53.3658 57.0789 54.4337 58.5198 55.3722 60.0887C57.0227 62.9383 58.0907 66.0121 58.0907 69.3741C58.1231 71.8716 57.5082 74.1769 56.2137 76.2261C54.2072 79.46 51.78 82.2457 48.5761 84.1988C46.2784 85.5756 43.8512 86.344 41.1974 86.0879C38.7702 85.8638 36.6667 84.9032 35.2427 82.7259C33.3333 79.8442 34.0453 75.97 36.9256 74.241C38.2524 73.4405 39.7411 72.8962 41.1974 72.4159C43.7217 71.5834 46.1813 70.5908 48.2848 68.8298C50.5826 66.9407 52.1036 64.5073 52.4273 61.3694C52.6214 59.6084 52.3625 57.9114 51.9418 56.2144C51.9418 56.1504 51.9095 56.0543 51.8771 55.9583Z" fill="#2A3CAC"/>
<path d="M45.178 30.9525C44.5631 30.3121 44.0129 29.8318 43.5598 29.2555C40.5825 25.5733 38.8996 21.3789 39.1585 16.448C39.3203 13.5023 40.3559 10.9087 42.0388 8.60339C44.6925 4.95325 48.0259 2.23165 52.2977 1.07898C55.1133 0.342545 57.8317 0.662733 60.3237 2.39175C62.589 3.96067 63.4628 6.36207 62.7832 8.92357C62.492 9.98019 61.9418 10.8447 61.1004 11.421C59.903 12.2215 58.6084 12.9579 57.3139 13.5983C55.5016 14.4628 53.6246 15.1352 51.8447 15.9997C50.6796 16.544 49.5793 17.2485 48.5437 18.0489C45.534 20.3863 44.466 23.6202 44.7573 27.4624C44.8543 28.5511 45.0162 29.6397 45.178 30.9525Z" fill="#2A3CAC"/>
<path d="M34.1102 40.1096C33.204 40.1737 32.2655 40.3017 31.3594 40.3338C26.149 40.4938 21.1975 39.4372 16.602 36.7156C15.5988 36.1393 14.6279 35.4989 13.7218 34.8265C13.0745 34.3783 12.4273 33.866 11.9095 33.2576C9.57935 30.6 7.96122 27.4942 7.05507 24.0362C6.11655 20.5782 7.50814 17.5044 10.5502 15.9034C13.1392 14.5586 15.8577 14.3345 18.6085 15.2631C21.4888 16.2556 23.1716 18.657 23.1716 21.8269C23.1716 23.2037 22.9127 24.5805 22.7833 25.9893C22.2978 30.7601 24.0778 34.3783 27.9289 36.8117C29.5471 37.8363 31.3594 38.5407 33.0746 39.3732C33.4306 39.5653 33.8189 39.7254 34.1749 39.9175C34.1426 39.9815 34.1426 40.0456 34.1102 40.1096Z" fill="#2A3CAC"/>
<path d="M16.4393 65.2758C12.4587 65.2118 8.60753 64.6034 4.98292 62.7784C4.17385 62.3621 3.39715 61.8178 2.68518 61.2735C0.35507 59.5445 -0.421633 54.9017 2.81463 52.5003C6.27742 49.9068 9.9344 49.6187 13.6885 51.7319C14.9182 52.4363 16.1157 53.2368 17.3131 53.9412C23.106 57.3352 28.9312 57.4953 34.8212 54.2294C35.5008 53.8451 36.2452 53.5249 36.9572 53.2048C37.119 53.1407 37.475 53.1727 37.5397 53.2688C37.6368 53.4289 37.6368 53.7491 37.5397 53.9412C34.886 58.5519 31.0672 61.7217 26.2775 63.5468C23.0736 64.7315 19.805 65.2758 16.4393 65.2758Z" fill="#2A3CAC"/>
<path d="M4.91863 23.4912C5.17753 24.2276 5.46879 24.9641 5.76005 25.7005C8.0578 32.3284 12.1678 37.0351 18.5756 39.4045C22.0708 40.6853 25.6307 41.2616 29.32 41.2936C31.9737 41.2936 34.5951 41.3257 37.2489 41.3257C37.4754 41.3257 37.7019 41.3257 37.9608 41.4858C37.7343 41.6779 37.5078 41.902 37.2489 41.9981C35.4689 42.7025 33.7213 43.5029 31.909 44.0152C29.7407 44.6236 27.5401 45.1359 25.3071 45.392C20.8734 45.9364 16.5044 45.4241 12.362 43.567C9.48175 42.2862 6.76329 40.7813 4.46555 38.508C2.62088 36.715 1.03512 34.6658 0.355501 32.0402C0.0642374 30.9196 -0.0652129 29.7028 0.0318748 28.5502C0.22605 25.9567 2.32962 23.8434 4.91863 23.4912Z" fill="#2A3CAC"/>
<path d="M47.4432 1.14207C46.9254 1.59033 46.4399 2.10263 45.8898 2.48686C43.5597 4.11981 41.6503 6.20103 39.9998 8.57042C36.893 13.021 36.3428 17.8238 38.1875 22.9789C39.6761 27.1413 42.1681 30.5993 45.016 33.7692C45.1454 33.9293 45.2749 34.0894 45.5338 34.3455C45.2102 34.2495 45.016 34.1854 44.8542 34.1214C39.7732 31.784 35.469 28.4221 32.3298 23.5232C30.8412 21.2178 29.9674 18.6243 29.8703 15.8387C29.8056 13.7254 30.291 11.7403 31.003 9.78713C31.6826 7.93005 32.5564 6.16901 33.7538 4.63211C35.4043 2.51887 37.3137 0.82188 39.935 0.213524C41.7474 -0.20272 43.5273 0.0534297 45.3396 0.437655C46.0192 0.597749 46.6988 0.757843 47.3784 0.917936L47.4432 1.14207Z" fill="#2A3CAC"/>
<path d="M5.85738 65.1787C8.18748 65.6589 10.4529 66.0752 12.7182 66.6195C17.4432 67.7722 22.0063 67.1958 26.5694 65.4989C29.741 64.2821 32.6212 62.6492 35.0808 60.1837C37.2491 58.0065 39.2879 55.6691 40.453 52.6593C40.6472 52.147 40.9708 51.6668 41.2621 51.1865C41.3591 51.0264 41.5857 50.9303 41.7475 50.8022L41.974 50.8983C41.7475 52.6273 41.6504 54.3883 41.3268 56.1174C39.9028 63.8339 35.4044 68.7327 28.4788 71.3263C24.6277 72.7671 20.6471 73.5676 16.537 73.5035C14.4011 73.4715 12.2975 73.1834 10.3234 72.3188C7.83149 71.1982 6.24573 69.3411 5.88974 66.4274C5.85738 66.2033 5.85738 65.9471 5.85738 65.723C5.79265 65.5629 5.82501 65.4028 5.85738 65.1787Z" fill="#2A3CAC"/>
<path d="M62.3947 34.8574C64.6925 35.4018 66.3106 36.0421 67.2491 36.7786C68.576 37.8352 69.2556 39.244 69.2556 40.941C69.2556 42.7341 68.5113 44.2389 67.0549 45.4236C65.2426 46.8645 62.6536 47.5689 59.2232 47.5689H46.9254V46.9285C48.0581 46.9285 48.8024 46.8325 49.1908 46.6083C49.5791 46.4162 49.8704 46.128 50.0322 45.8079C50.194 45.4877 50.2588 44.6552 50.2588 43.3744V27.8133C50.2588 26.5326 50.194 25.7001 50.0322 25.3799C49.8704 25.0597 49.5791 24.7715 49.1908 24.5794C48.7701 24.3873 48.0257 24.2913 46.9254 24.2913V23.6509H58.5436C61.3268 23.6509 63.2685 23.907 64.4336 24.3873C65.5986 24.8676 66.5048 25.604 67.152 26.5646C67.8316 27.5251 68.1553 28.5818 68.1553 29.6704C68.1553 30.8231 67.7346 31.8477 66.8931 32.7442C66.0193 33.6087 64.5307 34.3131 62.3947 34.8574ZM55.8899 35.754V43.4385L55.8575 44.335C55.8575 44.9754 56.0193 45.4557 56.3429 45.7758C56.6666 46.096 57.152 46.2561 57.7992 46.2561C58.7378 46.2561 59.6439 46.032 60.4206 45.6157C61.2297 45.1995 61.8446 44.5911 62.2653 43.7907C62.686 42.9902 62.9125 42.0937 62.9125 41.1331C62.9125 40.0125 62.6536 39.0199 62.1358 38.1234C61.618 37.2268 60.9061 36.6185 59.9675 36.2663C59.0614 35.9141 57.7022 35.754 55.8899 35.754ZM55.8899 34.3772C57.5727 34.3772 58.8348 34.1851 59.6439 33.8008C60.453 33.4166 61.0679 32.9043 61.4886 32.1999C61.9093 31.5275 62.1358 30.631 62.1358 29.5743C62.1358 28.5177 61.9093 27.6532 61.4886 26.9808C61.0679 26.3084 60.453 25.7961 59.6763 25.4439C58.8996 25.0917 57.6374 24.9316 55.8899 24.9316V34.3772Z" fill="#2A3CAC"/>
<path d="M87.8635 31.0474V43.983C87.8635 45.2317 87.993 46.0322 88.2195 46.3524C88.4461 46.6726 88.9315 46.8647 89.6758 46.9287V47.5691H82.8797V45.3598C82.0706 46.2883 81.2939 46.9928 80.4849 47.409C79.6758 47.8252 78.802 48.0494 77.7988 48.0494C76.8602 48.0494 76.0188 47.7612 75.2745 47.1849C74.5301 46.6085 74.0447 45.9361 73.7858 45.1677C73.5269 44.3992 73.3975 43.0544 73.3975 41.1653V34.6015C73.3975 33.3528 73.268 32.5843 73.0415 32.2641C72.8149 31.9439 72.3295 31.7518 71.5851 31.6558V31.0154H78.3813V42.318C78.3813 43.5027 78.446 44.2712 78.5431 44.5913C78.6402 44.9435 78.8344 45.1997 79.0933 45.3598C79.3522 45.5519 79.6111 45.6159 79.9347 45.6159C80.3554 45.6159 80.7438 45.5199 81.0998 45.2958C81.5852 44.9756 82.1354 44.3672 82.815 43.4387V34.6015C82.815 33.3528 82.6855 32.5843 82.459 32.2641C82.2324 31.9439 81.747 31.7518 81.0027 31.6558V31.0154H87.8635V31.0474Z" fill="#2A3CAC"/>
<path d="M98.705 24.9956V31.0472H102.653V32.8082H98.705V42.9901C98.705 43.9507 98.7374 44.5591 98.8344 44.8472C98.9315 45.1354 99.0933 45.3595 99.3199 45.5196C99.5464 45.6797 99.7406 45.7758 99.9348 45.7758C100.711 45.7758 101.456 45.1994 102.135 44.0147L102.686 44.399C101.715 46.6723 100.161 47.793 97.993 47.793C96.925 47.793 96.0513 47.5048 95.3069 46.9285C94.5626 46.3521 94.1095 45.6797 93.9153 44.9753C93.7859 44.5591 93.7212 43.5024 93.7212 41.7094V32.7762H91.5529V32.1678C93.0415 31.1112 94.336 30.0226 95.3716 28.8699C96.4396 27.7172 97.3458 26.4364 98.1225 24.9956H98.705Z" fill="#2A3CAC"/>
<path d="M113.463 45.103C111.424 46.896 109.612 47.7605 107.993 47.7605C107.055 47.7605 106.246 47.4403 105.631 46.832C104.984 46.2236 104.693 45.4552 104.693 44.4946C104.693 43.2459 105.243 42.0932 106.343 41.1006C107.443 40.108 109.838 38.7632 113.495 37.0663V35.4013C113.495 34.1525 113.43 33.3521 113.301 33.0319C113.172 32.7117 112.913 32.4235 112.524 32.1994C112.136 31.9432 111.715 31.8472 111.23 31.8472C110.453 31.8472 109.806 32.0073 109.32 32.3595C108.997 32.5836 108.867 32.8078 108.867 33.0959C108.867 33.3521 109.029 33.6402 109.353 34.0245C109.806 34.5368 110.032 35.0171 110.032 35.4973C110.032 36.0737 109.806 36.554 109.385 36.9702C108.964 37.3864 108.382 37.5786 107.67 37.5786C106.926 37.5786 106.278 37.3544 105.793 36.9062C105.275 36.4579 105.048 35.9456 105.048 35.3372C105.048 34.5048 105.372 33.6723 106.052 32.9038C106.731 32.1354 107.67 31.527 108.9 31.1428C110.129 30.7265 111.359 30.5344 112.686 30.5344C114.272 30.5344 115.534 30.8546 116.44 31.527C117.379 32.1994 117.961 32.9038 118.22 33.7043C118.382 34.1846 118.479 35.3372 118.479 37.0983V43.502C118.479 44.2705 118.511 44.7187 118.576 44.9108C118.641 45.103 118.738 45.2631 118.835 45.3591C118.964 45.4552 119.094 45.4872 119.256 45.4872C119.579 45.4872 119.871 45.2631 120.194 44.8468L120.744 45.2631C120.162 46.1276 119.547 46.7679 118.9 47.1522C118.252 47.5364 117.54 47.7285 116.731 47.7285C115.793 47.7285 115.049 47.5044 114.498 47.0561C113.916 46.6719 113.592 45.9995 113.463 45.103ZM113.463 43.8222V38.283C112.006 39.1155 110.938 40.012 110.259 40.9725C109.806 41.6129 109.547 42.2533 109.547 42.8937C109.547 43.438 109.741 43.9183 110.129 44.3345C110.421 44.6547 110.841 44.8148 111.392 44.8148C112.006 44.8148 112.686 44.4946 113.463 43.8222Z" fill="#2A3CAC"/>
<path d="M72.8799 60.4731L73.1388 60.6652C72.7828 61.3376 72.3298 61.8179 71.812 62.1381C71.2942 62.4583 70.7116 62.6184 70.1291 62.6184C69.1259 62.6184 68.3168 62.2341 67.7343 61.4977C67.1194 60.7613 66.8281 59.8327 66.8281 58.8081C66.8281 57.7835 67.087 56.887 67.6372 56.1185C68.2844 55.19 69.223 54.7097 70.3556 54.7097C71.1323 54.7097 71.7472 54.9018 72.2003 55.2861C72.6534 55.6703 72.8799 56.1185 72.8799 56.5988C72.8799 56.887 72.7828 57.1431 72.5887 57.3353C72.3945 57.5274 72.1679 57.5914 71.8443 57.5914C71.5207 57.5914 71.2618 57.4954 71.0676 57.2712C70.8734 57.0791 70.744 56.6949 70.6793 56.1506C70.6469 55.8304 70.5822 55.5742 70.4527 55.4462C70.3233 55.3181 70.1938 55.254 70.032 55.254C69.7731 55.254 69.5466 55.3821 69.3848 55.6703C69.0935 56.0865 68.9641 56.6949 68.9641 57.5594C68.9641 58.2638 69.0611 58.9362 69.2877 59.5766C69.5142 60.217 69.8378 60.6972 70.2262 61.0174C70.5175 61.2416 70.8734 61.3696 71.2618 61.3696C71.5207 61.3696 71.7796 61.3056 72.0061 61.1775C72.265 61.0494 72.5563 60.8253 72.8799 60.4731Z" fill="#2A3CAC"/>
<path d="M77.0868 54.7097C77.7341 54.7097 78.349 54.8698 78.9315 55.222C79.4817 55.5422 79.9347 56.0225 80.226 56.6629C80.5173 57.2712 80.6791 57.9436 80.6791 58.68C80.6791 59.7367 80.4202 60.6332 79.87 61.3376C79.2228 62.2021 78.3166 62.6184 77.1515 62.6184C76.0189 62.6184 75.1451 62.2341 74.5302 61.4337C73.9153 60.6332 73.624 59.7367 73.624 58.7121C73.624 57.6554 73.9476 56.7269 74.5625 55.9264C75.1451 55.126 75.9865 54.7097 77.0868 54.7097ZM77.1192 55.2861C76.8603 55.2861 76.6014 55.3821 76.4072 55.6062C76.213 55.7984 76.0836 56.2146 76.0189 56.823C75.9541 57.4313 75.9218 58.2638 75.9218 59.3524C75.9218 59.9288 75.9541 60.4411 76.0189 60.9534C76.0836 61.3376 76.213 61.6258 76.4072 61.8179C76.6014 62.01 76.8279 62.1061 77.0545 62.1061C77.281 62.1061 77.5075 62.042 77.6693 61.9139C77.8635 61.7218 78.0253 61.4657 78.0901 61.1455C78.1872 60.6332 78.2519 59.6086 78.2519 58.0717C78.2519 57.1752 78.1872 56.5348 78.0901 56.2146C77.993 55.8624 77.8312 55.6383 77.637 55.4782C77.5399 55.3501 77.3457 55.2861 77.1192 55.2861Z" fill="#2A3CAC"/>
<path d="M84.3362 54.9338V55.8944C84.7245 55.4782 85.0805 55.19 85.4365 54.9979C85.7925 54.8058 86.1808 54.7097 86.5692 54.7097C87.0546 54.7097 87.4753 54.8378 87.799 55.126C88.1226 55.3821 88.3491 55.7343 88.4462 56.1185C88.5433 56.4067 88.5757 57.0151 88.5757 57.8796V60.7933C88.5757 61.3696 88.6404 61.7218 88.7375 61.8499C88.8346 61.978 89.0611 62.074 89.3847 62.1061V62.3942H85.5659V62.1061C85.8572 62.074 86.0514 61.946 86.1808 61.7539C86.2779 61.6258 86.3103 61.3056 86.3103 60.7613V57.4313C86.3103 56.823 86.2779 56.4387 86.2456 56.2786C86.2132 56.1185 86.1161 55.9905 85.9867 55.8944C85.8572 55.7984 85.7278 55.7663 85.5983 55.7663C85.1452 55.7663 84.6922 56.0865 84.3038 56.7589V60.7613C84.3038 61.3056 84.3685 61.6578 84.4656 61.8179C84.5627 61.978 84.7569 62.074 85.0481 62.1061V62.3942H81.2294V62.1061C81.553 62.074 81.7795 61.978 81.909 61.8179C82.0061 61.6898 82.0384 61.3696 82.0384 60.7933V56.5988C82.0384 56.0225 81.9737 55.6703 81.8766 55.5422C81.7795 55.4141 81.553 55.3181 81.2294 55.2861V54.9979H84.3362V54.9338Z" fill="#2A3CAC"/>
<path d="M94.692 54.7417L94.8215 57.2712H94.5626C94.2389 56.5028 93.883 55.9905 93.5593 55.7343C93.2033 55.4461 92.8473 55.3181 92.4914 55.3181C92.2648 55.3181 92.0706 55.3821 91.9412 55.5422C91.7794 55.7023 91.7147 55.8624 91.7147 56.0545C91.7147 56.1826 91.7794 56.3427 91.8765 56.4708C92.0383 56.6949 92.5237 57.0471 93.3328 57.5914C94.1095 58.1357 94.6273 58.584 94.8862 58.9362C95.1451 59.3204 95.2745 59.7047 95.2745 60.1849C95.2745 60.6012 95.1775 61.0174 94.9509 61.4016C94.7567 61.7859 94.4331 62.1061 94.0771 62.3302C93.6888 62.5543 93.2681 62.6504 92.815 62.6504C92.459 62.6504 91.9736 62.5543 91.3587 62.3302C91.1969 62.2662 91.0998 62.2341 91.035 62.2341C90.8732 62.2341 90.7114 62.3622 90.582 62.6184H90.3231L90.1936 59.9288H90.4525C90.6791 60.6332 91.035 61.1455 91.4558 61.4977C91.8765 61.8499 92.2648 62.01 92.6532 62.01C92.9121 62.01 93.1062 61.946 93.3004 61.7859C93.4622 61.6258 93.5593 61.4337 93.5593 61.2095C93.5593 60.9534 93.4946 60.7293 93.3328 60.5371C93.171 60.345 92.815 60.0569 92.2648 59.7047C91.4558 59.1283 90.9056 58.7121 90.6791 58.4239C90.3231 57.9756 90.1613 57.4954 90.1613 56.9831C90.1613 56.4067 90.3554 55.8944 90.7761 55.4141C91.1645 54.9338 91.747 54.7097 92.5237 54.7097C92.9444 54.7097 93.3328 54.8058 93.7211 54.9979C93.8506 55.0619 93.98 55.126 94.0771 55.126C94.1742 55.126 94.2389 55.0939 94.3037 55.0619C94.3684 55.0299 94.4655 54.9018 94.5949 54.7097H94.692V54.7417Z" fill="#2A3CAC"/>
<path d="M98.8351 52.212V54.9335H100.615V55.734H98.8351V60.3447C98.8351 60.761 98.8675 61.0491 98.8998 61.1772C98.9322 61.3053 98.9969 61.4013 99.1264 61.4654C99.2235 61.5294 99.3205 61.5935 99.4176 61.5935C99.7736 61.5935 100.097 61.3373 100.421 60.793L100.647 60.9531C100.227 61.9777 99.5147 62.49 98.5438 62.49C98.0584 62.49 97.67 62.3619 97.3464 62.1057C97.0228 61.8496 96.7963 61.5614 96.6992 61.2092C96.6344 61.0171 96.6345 60.5368 96.6345 59.7364V55.734H95.6636V55.4458C96.3432 54.9656 96.9257 54.4853 97.3788 53.941C97.8642 53.4287 98.2849 52.8523 98.6086 52.1799H98.8351V52.212Z" fill="#2A3CAC"/>
<path d="M104.596 54.9338V56.6308C105.081 55.8624 105.534 55.3501 105.922 55.0939C106.311 54.8378 106.667 54.7097 107.023 54.7097C107.314 54.7097 107.573 54.8058 107.735 54.9979C107.929 55.19 107.994 55.4461 107.994 55.7663C107.994 56.1185 107.897 56.4067 107.735 56.5988C107.573 56.7909 107.346 56.887 107.087 56.887C106.796 56.887 106.57 56.7909 106.343 56.6308C106.149 56.4387 106.02 56.3427 105.987 56.3427C105.922 56.3107 105.858 56.3107 105.793 56.3107C105.631 56.3107 105.502 56.3747 105.34 56.4707C105.113 56.6629 104.952 56.919 104.854 57.2392C104.693 57.7515 104.596 58.3278 104.596 58.9362V60.6652V61.1135C104.596 61.4016 104.628 61.6258 104.66 61.6898C104.725 61.8179 104.822 61.946 104.952 62.01C105.081 62.074 105.308 62.1061 105.599 62.1381V62.4262H101.521V62.1381C101.845 62.1061 102.071 62.01 102.201 61.8819C102.33 61.7218 102.363 61.3376 102.363 60.6972V56.5668C102.363 56.1506 102.33 55.8624 102.298 55.7663C102.233 55.6062 102.168 55.5102 102.071 55.4461C101.974 55.3821 101.78 55.3181 101.521 55.3181V55.0299H104.596V54.9338Z" fill="#2A3CAC"/>
<path d="M116.213 54.9331V60.7605C116.213 61.3369 116.278 61.6891 116.375 61.8171C116.472 61.9452 116.699 62.0413 117.022 62.0733V62.3615H113.948V61.3689C113.592 61.7851 113.236 62.1053 112.88 62.2974C112.524 62.4895 112.103 62.5856 111.683 62.5856C111.262 62.5856 110.873 62.4575 110.55 62.2014C110.226 61.9452 110 61.657 109.87 61.3048C109.773 60.9526 109.708 60.3443 109.708 59.4798V56.534C109.708 55.9577 109.644 55.6055 109.547 55.4774C109.45 55.3493 109.223 55.2533 108.899 55.2213V54.9331H111.974V60.0241C111.974 60.5684 112.006 60.8886 112.039 61.0487C112.103 61.2088 112.168 61.3048 112.265 61.4009C112.362 61.4649 112.492 61.529 112.653 61.529C112.848 61.529 113.009 61.4649 113.171 61.3689C113.398 61.2408 113.657 60.9526 113.948 60.5364V56.534C113.948 55.9577 113.883 55.6055 113.786 55.4774C113.689 55.3493 113.462 55.2533 113.139 55.2213V54.9331H116.213Z" fill="#2A3CAC"/>
<path d="M123.754 60.4731L124.013 60.6652C123.657 61.3376 123.204 61.8179 122.686 62.1381C122.168 62.4583 121.586 62.6184 121.003 62.6184C120 62.6184 119.191 62.2341 118.608 61.4977C117.993 60.7613 117.702 59.8327 117.702 58.8081C117.702 57.7835 117.961 56.887 118.511 56.1185C119.158 55.19 120.097 54.7097 121.23 54.7097C122.006 54.7097 122.621 54.9018 123.074 55.2861C123.527 55.6703 123.754 56.1185 123.754 56.5988C123.754 56.887 123.657 57.1431 123.463 57.3353C123.269 57.5274 123.042 57.5914 122.718 57.5914C122.395 57.5914 122.136 57.4954 121.942 57.2712C121.747 57.0791 121.618 56.6949 121.553 56.1506C121.521 55.8304 121.456 55.5742 121.327 55.4462C121.197 55.3181 121.068 55.254 120.906 55.254C120.647 55.254 120.421 55.3821 120.259 55.6703C119.968 56.0865 119.838 56.6949 119.838 57.5594C119.838 58.2638 119.935 58.9362 120.162 59.5766C120.388 60.217 120.712 60.6972 121.1 61.0174C121.391 61.2416 121.747 61.3696 122.136 61.3696C122.395 61.3696 122.654 61.3056 122.88 61.1775C123.171 61.0494 123.43 60.8253 123.754 60.4731Z" fill="#2A3CAC"/>
<path d="M127.411 52.212V54.9335H129.191V55.734H127.411V60.3447C127.411 60.761 127.444 61.0491 127.476 61.1772C127.509 61.3053 127.573 61.4013 127.703 61.4654C127.8 61.5294 127.897 61.5935 127.994 61.5935C128.35 61.5935 128.674 61.3373 128.997 60.793L129.224 60.9531C128.803 61.9777 128.091 62.49 127.12 62.49C126.635 62.49 126.246 62.3619 125.923 62.1057C125.599 61.8496 125.373 61.5614 125.276 61.2092C125.211 61.0171 125.211 60.5368 125.211 59.7364V55.734H124.24V55.4458C124.92 54.9656 125.502 54.4853 125.955 53.941C126.441 53.4287 126.861 52.8523 127.185 52.1799H127.411V52.212Z" fill="#2A3CAC"/>
<path d="M133.01 54.933V60.8565C133.01 61.3688 133.075 61.721 133.204 61.8811C133.334 62.0412 133.56 62.1052 133.916 62.1372V62.4254H129.838V62.1372C130.162 62.1372 130.421 62.0412 130.583 61.8491C130.68 61.721 130.745 61.4008 130.745 60.8885V56.534C130.745 56.0217 130.68 55.6695 130.55 55.5094C130.421 55.3493 130.194 55.2852 129.838 55.2532V54.965H133.01V54.933ZM131.877 51.3469C132.233 51.3469 132.524 51.475 132.751 51.6991C132.978 51.9553 133.107 52.2434 133.107 52.5636C133.107 52.9158 132.978 53.204 132.751 53.4281C132.492 53.6523 132.201 53.7803 131.877 53.7803C131.521 53.7803 131.23 53.6523 131.003 53.4281C130.777 53.204 130.647 52.8838 130.647 52.5636C130.647 52.2114 130.777 51.9233 131.003 51.6991C131.23 51.443 131.521 51.3469 131.877 51.3469Z" fill="#2A3CAC"/>
<path d="M137.67 54.7097C138.317 54.7097 138.932 54.8698 139.515 55.222C140.065 55.5422 140.518 56.0225 140.809 56.6629C141.1 57.2712 141.262 57.9436 141.262 58.68C141.262 59.7367 141.003 60.6332 140.453 61.3376C139.806 62.2021 138.9 62.6184 137.735 62.6184C136.602 62.6184 135.728 62.2341 135.113 61.4337C134.499 60.6332 134.207 59.7367 134.207 58.7121C134.207 57.6554 134.531 56.7269 135.146 55.9264C135.728 55.126 136.602 54.7097 137.67 54.7097ZM137.702 55.2861C137.444 55.2861 137.185 55.3821 136.99 55.6062C136.796 55.7984 136.667 56.2146 136.602 56.823C136.537 57.4313 136.505 58.2638 136.505 59.3524C136.505 59.9288 136.537 60.4411 136.602 60.9534C136.667 61.3376 136.796 61.6258 136.99 61.8179C137.185 62.01 137.411 62.1061 137.638 62.1061C137.864 62.1061 138.091 62.042 138.253 61.9139C138.447 61.7218 138.609 61.4657 138.673 61.1455C138.77 60.6332 138.835 59.6086 138.835 58.0717C138.835 57.1752 138.77 56.5348 138.673 56.2146C138.576 55.8624 138.414 55.6383 138.22 55.4782C138.123 55.3501 137.929 55.2861 137.702 55.2861Z" fill="#2A3CAC"/>
<path d="M144.951 54.9338V55.8944C145.34 55.4782 145.696 55.19 146.052 54.9979C146.408 54.8058 146.796 54.7097 147.184 54.7097C147.67 54.7097 148.091 54.8378 148.414 55.126C148.738 55.3821 148.964 55.7343 149.061 56.1185C149.159 56.4067 149.191 57.0151 149.191 57.8796V60.7933C149.191 61.3696 149.256 61.7218 149.353 61.8499C149.45 61.978 149.676 62.074 150 62.1061V62.3942H146.181V62.1061C146.472 62.074 146.667 61.946 146.796 61.7539C146.893 61.6258 146.926 61.3056 146.926 60.7613V57.4313C146.926 56.823 146.893 56.4387 146.861 56.2786C146.828 56.1185 146.731 55.9905 146.602 55.8944C146.472 55.7984 146.343 55.7663 146.214 55.7663C145.76 55.7663 145.307 56.0865 144.919 56.7589V60.7613C144.919 61.3056 144.984 61.6578 145.081 61.8179C145.178 61.978 145.372 62.074 145.663 62.1061V62.3942H141.845V62.1061C142.168 62.074 142.395 61.978 142.524 61.8179C142.621 61.6898 142.654 61.3696 142.654 60.7933V56.5988C142.654 56.0225 142.589 55.6703 142.492 55.5422C142.395 55.4141 142.168 55.3181 141.845 55.2861V54.9979H144.951V54.9338Z" fill="#2A3CAC"/>
</svg>
