<svg width="48" height="48" viewBox="0 0 48 48" fill="none" xmlns="http://www.w3.org/2000/svg">
<path d="M47.3749 11.0225L47.3782 11.0149L24.4691 0.105818C24.4691 0.105818 24.3415 0 24 0C23.6585 0 23.5309 0.105818 23.5309 0.105818L0.621818 11.0149C0.621818 11.0149 0.622909 11.0193 0.624 11.0204C0.537818 11.0575 0 11.3498 0 12V36C0 36.4331 0.257454 36.8018 0.625091 36.9775L0.621818 36.984L23.5309 47.8931L23.5342 47.8865C23.6771 47.9553 23.832 48 24 48C24.168 48 24.3229 47.9553 24.4658 47.8865L24.4691 47.8931L47.3782 36.984L47.3749 36.9775C47.7425 36.8018 48 36.4331 48 36V12C48 11.7611 47.8604 11.2538 47.3749 11.0225ZM36.0262 8.02582L14.1818 18.2149V28.9342L10.9091 27.6251V16.3636L32.4393 6.31745L36.0262 8.02582ZM24 2.29855L29.8625 5.09127L9.49091 14.7916L3.62836 12L24 2.29855ZM22.9091 45.1811L2.18182 35.3105V13.728L8.72727 16.8447V28.3636C8.72727 28.8229 9.01309 29.2113 9.41455 29.3727L9.41345 29.3771L14.8473 31.5502C14.6051 31.4476 15.0055 31.6364 15.2727 31.6364C15.876 31.6364 16.3636 31.1487 16.3636 30.5455V20.4807L22.9091 23.5975V45.1811ZM24 21.7015L18.0273 18.8575L38.58 9.24327L44.3716 12L24 21.7015ZM45.8182 35.3105L25.0909 45.1811V23.5985L45.8182 13.728V35.3105Z" fill="#2A3CAC"/>
</svg>
