<svg width="149" height="45" viewBox="0 0 149 45" fill="none" xmlns="http://www.w3.org/2000/svg">
<path d="M0 22.3003H4.84926L7.8295 27.2177L10.8097 22.3003H15.659V36.2902H11.0257V29.3545L7.82557 34.3312H7.74704L4.54692 29.3545V36.2902H0V22.3003Z" fill="#E62825"/>
<path d="M22.0907 22.2014H26.7004L32.5627 36.2901H27.5171L26.7829 34.41H21.914L21.1994 36.2901H16.2323L22.0907 22.2014ZM25.6285 31.0923L24.3563 27.6955L23.0841 31.0923H25.6285Z" fill="#E62825"/>
<path d="M36.4775 29.1768L31.9659 22.3003H37.251L39.2574 25.6378L41.2835 22.3003H46.4705L41.9628 29.1136L46.6707 36.2902H41.3856L39.1789 32.6525L36.9526 36.2902H31.7656L36.4775 29.1768Z" fill="#E62825"/>
<path d="M45.8737 29.3346V29.2952C45.8737 25.1163 49.1091 22 53.2634 22C56.3222 22 58.3875 23.5009 59.5615 25.6377L55.7253 27.8969C55.2109 26.8977 54.4728 26.1986 53.2006 26.1986C51.63 26.1986 50.5973 27.577 50.5973 29.2557V29.2952C50.5973 31.116 51.6692 32.3917 53.2006 32.3917C54.512 32.3917 55.2463 31.6729 55.8235 30.6341L59.6558 32.8104C58.4857 34.888 56.5381 36.5864 53.0788 36.5864C49.2308 36.5903 45.8737 33.6715 45.8737 29.3346Z" fill="#E62825"/>
<path d="M60.5549 22.3003H67.3478C69.8098 22.3003 71.3804 22.9204 72.3542 23.8999C73.1866 24.7412 73.6263 25.78 73.6263 27.2177V27.2572C73.6263 29.2953 72.574 30.7132 70.8856 31.5348L74.125 36.2902H68.8203L66.1974 32.2931H65.2039V36.2902H60.5549V22.3003ZM67.2104 28.9556C68.3216 28.9556 68.997 28.454 68.997 27.5969V27.5574C68.997 26.6568 68.302 26.2184 67.23 26.2184H65.2039V28.9556H67.2104Z" fill="#E62825"/>
<path d="M74.7572 22.3003H86.6193V26.1355H79.3277V27.5534H86.1245V30.9305H79.3277V32.4511H86.7174V36.2902H74.7572V22.3003Z" fill="#E62825"/>
<path d="M92.8192 22.2014H97.429L103.291 36.2901H98.2417L97.5075 34.41H92.6386L91.924 36.2901H86.9569L92.8192 22.2014ZM96.3531 31.0923L95.0809 27.6955L93.8087 31.0923H96.3531Z" fill="#E62825"/>
<path d="M105.631 26.2579H101.54V22.3003H114.376V26.2579H110.284V36.2902H105.635V26.2579H105.631Z" fill="#E62825"/>
<path d="M115.467 22.3003H120.116V36.2902H115.467V22.3003Z" fill="#E62825"/>
<path d="M120.729 22.3003H125.936L128.637 30.1524L131.338 22.3003H136.463L130.82 36.389H126.371L120.729 22.3003Z" fill="#E62825"/>
<path d="M137.04 22.3003H148.902V26.1355H141.61V27.5534H148.407V30.9305H141.61V32.4511H149V36.2902H137.04V22.3003Z" fill="#E62825"/>
<path d="M74.8867 39.3789H75.2087V39.7344H74.8867V39.3789ZM74.9181 40.4374H75.1773V43.1351H74.9181V40.4374Z" fill="black"/>
<path d="M76.1903 40.4375H76.4495V40.9391C76.6262 40.6231 76.9285 40.3743 77.4193 40.3743C78.0986 40.3743 78.4913 40.8403 78.4913 41.4841V43.1351H78.2321V41.5315C78.2321 40.9746 77.9219 40.6113 77.3801 40.6113C76.8539 40.6113 76.4495 41.0141 76.4495 41.575V43.1351H76.1903V40.4375Z" fill="black"/>
<path d="M79.5593 42.4439V40.6744H79.1705V40.4375H79.5593V39.5764H79.8184V40.4375H80.7608V40.6744H79.8184V42.4163C79.8184 42.8033 80.0461 42.9416 80.3563 42.9416C80.4898 42.9416 80.5998 42.9139 80.749 42.8468V43.0917C80.6116 43.1549 80.482 43.1865 80.3131 43.1865C79.8969 43.1865 79.5593 42.9574 79.5593 42.4439Z" fill="black"/>
<path d="M81.2634 41.7922V41.7804C81.2634 40.9983 81.8092 40.3743 82.5356 40.3743C83.2856 40.3743 83.7685 40.9904 83.7685 41.7883C83.7685 41.8357 83.7685 41.8515 83.7646 41.8949H81.5383C81.5854 42.5664 82.0644 42.9574 82.5906 42.9574C83.0068 42.9574 83.2895 42.7718 83.5094 42.5348L83.69 42.6928C83.4152 42.989 83.0971 43.2023 82.5788 43.2023C81.872 43.2023 81.2634 42.6375 81.2634 41.7922ZM83.4858 41.6619C83.4505 41.1168 83.1403 40.6152 82.5238 40.6152C81.9938 40.6152 81.5815 41.0655 81.5344 41.6619H83.4858Z" fill="black"/>
<path d="M84.4674 43.5814L84.6205 43.3721C84.9425 43.6209 85.3116 43.7513 85.7043 43.7513C86.3207 43.7513 86.7566 43.3958 86.7566 42.7046V42.3136C86.5249 42.6454 86.1676 42.9376 85.6375 42.9376C84.9896 42.9376 84.3496 42.44 84.3496 41.6658V41.654C84.3496 40.8759 84.9936 40.3743 85.6375 40.3743C86.1754 40.3743 86.5367 40.6586 86.7566 40.9786V40.4375H87.0157V42.7204C87.0157 43.1114 86.8901 43.4195 86.6741 43.6367C86.4424 43.8698 86.0969 43.9962 85.7003 43.9962C85.2527 43.9962 84.8365 43.8579 84.4674 43.5814ZM86.7723 41.6619V41.65C86.7723 41.026 86.2186 40.6231 85.6611 40.6231C85.0996 40.6231 84.6245 41.0141 84.6245 41.6461V41.6579C84.6245 42.2662 85.1074 42.6888 85.6611 42.6888C86.2186 42.6888 86.7723 42.2741 86.7723 41.6619Z" fill="black"/>
<path d="M87.9934 40.4373H88.2526V41.2036C88.4646 40.7217 88.9122 40.3741 89.4423 40.3939V40.6782H89.4148C88.7944 40.6782 88.2526 41.1483 88.2526 42.0291V43.135H87.9934V40.4373Z" fill="black"/>
<path d="M89.7487 42.3531V42.3413C89.7487 41.7804 90.2277 41.4644 90.9227 41.4644C91.2957 41.4644 91.5549 41.5118 91.8101 41.579V41.4644C91.8101 40.9194 91.4803 40.6389 90.9266 40.6389C90.6007 40.6389 90.3337 40.7298 90.0863 40.8562L89.9921 40.6271C90.2866 40.4888 90.5772 40.394 90.9463 40.394C91.3075 40.394 91.5981 40.4928 91.7944 40.6903C91.9711 40.872 92.0693 41.1208 92.0693 41.4526V43.1352H91.818V42.6849C91.6334 42.9456 91.3036 43.1984 90.7931 43.1984C90.2827 43.2023 89.7487 42.914 89.7487 42.3531ZM91.814 42.128V41.8199C91.5863 41.7606 91.2879 41.6975 90.9031 41.6975C90.3337 41.6975 90.0196 41.9502 90.0196 42.3294V42.3413C90.0196 42.7323 90.3887 42.9614 90.797 42.9614C91.3468 42.9574 91.814 42.6217 91.814 42.128Z" fill="black"/>
<path d="M93.1058 42.4439V40.6744H92.717V40.4375H93.1058V39.5764H93.3649V40.4375H94.3073V40.6744H93.3649V42.4163C93.3649 42.8033 93.5926 42.9416 93.9028 42.9416C94.0363 42.9416 94.1463 42.9139 94.2955 42.8468V43.0917C94.1581 43.1549 94.0285 43.1865 93.8597 43.1865C93.4434 43.1865 93.1058 42.9574 93.1058 42.4439Z" fill="black"/>
<path d="M94.806 41.7922V41.7804C94.806 40.9983 95.3518 40.3743 96.0782 40.3743C96.8321 40.3743 97.3112 40.9904 97.3112 41.7883C97.3112 41.8357 97.3112 41.8515 97.3072 41.8949H95.0809C95.128 42.5664 95.607 42.9574 96.1332 42.9574C96.5494 42.9574 96.8321 42.7718 97.052 42.5348L97.2326 42.6928C96.9578 42.989 96.6397 43.2023 96.1214 43.2023C95.4146 43.2023 94.806 42.6375 94.806 41.7922ZM97.0324 41.6619C96.997 41.1168 96.6868 40.6152 96.0704 40.6152C95.5403 40.6152 95.128 41.0655 95.0809 41.6619H97.0324Z" fill="black"/>
<path d="M97.8922 41.8V41.7882C97.8922 40.9114 98.5519 40.3742 99.1958 40.3742C99.7338 40.3742 100.079 40.6823 100.299 41.018V39.2722H100.558V43.1351H100.299V42.5307C100.068 42.8862 99.7259 43.1983 99.1958 43.1983C98.5479 43.2022 97.8922 42.6769 97.8922 41.8ZM100.315 41.7921V41.7803C100.315 41.0891 99.7769 40.623 99.2194 40.623C98.6343 40.623 98.1671 41.0496 98.1671 41.7763V41.7882C98.1671 42.4991 98.6579 42.9534 99.2194 42.9534C99.7809 42.9534 100.315 42.4833 100.315 41.7921Z" fill="black"/>
<path d="M103.118 40.4375H103.378V40.9193C103.55 40.6389 103.794 40.3743 104.273 40.3743C104.74 40.3743 105.031 40.6428 105.176 40.9549C105.349 40.6547 105.639 40.3743 106.146 40.3743C106.782 40.3743 107.178 40.8245 107.178 41.4999V43.1351H106.919V41.5315C106.919 40.9509 106.621 40.6113 106.126 40.6113C105.675 40.6113 105.278 40.9588 105.278 41.5631V43.1351H105.019V41.5157C105.019 40.9549 104.713 40.6113 104.234 40.6113C103.755 40.6113 103.378 41.0339 103.378 41.5789V43.1351H103.118V40.4375Z" fill="black"/>
<path d="M107.905 42.3531V42.3413C107.905 41.7804 108.384 41.4644 109.079 41.4644C109.452 41.4644 109.711 41.5118 109.966 41.579V41.4644C109.966 40.9194 109.637 40.6389 109.083 40.6389C108.757 40.6389 108.49 40.7298 108.243 40.8562L108.148 40.6271C108.443 40.4888 108.733 40.394 109.102 40.394C109.468 40.394 109.754 40.4928 109.951 40.6903C110.131 40.872 110.225 41.1208 110.225 41.4526V43.1352H109.974V42.6849C109.79 42.9456 109.46 43.1984 108.949 43.1984C108.439 43.2023 107.905 42.914 107.905 42.3531ZM109.97 42.128V41.8199C109.743 41.7606 109.444 41.6975 109.059 41.6975C108.49 41.6975 108.176 41.9502 108.176 42.3294V42.3413C108.176 42.7323 108.545 42.9614 108.953 42.9614C109.503 42.9574 109.97 42.6217 109.97 42.128Z" fill="black"/>
<path d="M111.148 40.4373H111.407V41.2036C111.619 40.7217 112.067 40.3741 112.597 40.3939V40.6782H112.57C111.949 40.6782 111.407 41.1483 111.407 42.0291V43.135H111.148V40.4373Z" fill="black"/>
<path d="M113.253 39.2761H113.512V42.1713L115.177 40.4413H115.518L114.344 41.6381L115.554 43.139H115.228L114.164 41.8197L113.512 42.4794V43.135H113.253V39.2761Z" fill="black"/>
<path d="M115.884 41.7922V41.7804C115.884 40.9983 116.429 40.3743 117.156 40.3743C117.91 40.3743 118.389 40.9904 118.389 41.7883C118.389 41.8357 118.389 41.8515 118.385 41.8949H116.158C116.206 42.5664 116.685 42.9574 117.211 42.9574C117.627 42.9574 117.91 42.7718 118.13 42.5348L118.31 42.6928C118.035 42.989 117.717 43.2023 117.199 43.2023C116.496 43.2023 115.884 42.6375 115.884 41.7922ZM118.11 41.6619C118.071 41.1168 117.764 40.6152 117.148 40.6152C116.618 40.6152 116.206 41.0655 116.158 41.6619H118.11Z" fill="black"/>
<path d="M119.284 42.4439V40.6744H118.895V40.4375H119.284V39.5764H119.539V40.4375H120.482V40.6744H119.539V42.4163C119.539 42.8033 119.767 42.9416 120.077 42.9416C120.211 42.9416 120.321 42.9139 120.474 42.8468V43.0917C120.336 43.1549 120.207 43.1865 120.038 43.1865C119.622 43.1865 119.284 42.9574 119.284 42.4439Z" fill="black"/>
<path d="M121.255 39.3789H121.577V39.7344H121.255V39.3789ZM121.287 40.4374H121.546V43.1351H121.287V40.4374Z" fill="black"/>
<path d="M122.559 40.4375H122.818V40.9391C122.998 40.6231 123.297 40.3743 123.788 40.3743C124.467 40.3743 124.86 40.8403 124.86 41.4841V43.1351H124.601V41.5315C124.601 40.9746 124.29 40.6113 123.748 40.6113C123.222 40.6113 122.818 41.0141 122.818 41.575V43.1351H122.559V40.4375Z" fill="black"/>
<path d="M125.735 43.5814L125.888 43.3721C126.21 43.6209 126.575 43.7513 126.972 43.7513C127.589 43.7513 128.024 43.3958 128.024 42.7046V42.3136C127.793 42.6454 127.435 42.9376 126.905 42.9376C126.257 42.9376 125.617 42.44 125.617 41.6658V41.654C125.617 40.8759 126.257 40.3743 126.905 40.3743C127.443 40.3743 127.804 40.6586 128.024 40.9786V40.4375H128.284V42.7204C128.284 43.1114 128.158 43.4195 127.942 43.6367C127.71 43.8698 127.365 43.9962 126.968 43.9962C126.517 43.9962 126.1 43.8579 125.735 43.5814ZM128.036 41.6619V41.65C128.036 41.026 127.483 40.6231 126.925 40.6231C126.363 40.6231 125.888 41.0141 125.888 41.6461V41.6579C125.888 42.2662 126.371 42.6888 126.925 42.6888C127.486 42.6888 128.036 42.2741 128.036 41.6619Z" fill="black"/>
<path d="M130.62 42.3531V42.3413C130.62 41.7804 131.099 41.4644 131.794 41.4644C132.167 41.4644 132.426 41.5118 132.681 41.579V41.4644C132.681 40.9194 132.351 40.6389 131.798 40.6389C131.472 40.6389 131.205 40.7298 130.958 40.8562L130.863 40.6271C131.158 40.4888 131.448 40.394 131.814 40.394C132.175 40.394 132.465 40.4928 132.662 40.6903C132.838 40.872 132.937 41.1208 132.937 41.4526V43.1352H132.685V42.6849C132.501 42.9456 132.171 43.1984 131.66 43.1984C131.154 43.2023 130.62 42.914 130.62 42.3531ZM132.685 42.128V41.8199C132.457 41.7606 132.159 41.6975 131.774 41.6975C131.205 41.6975 130.891 41.9502 130.891 42.3294V42.3413C130.891 42.7323 131.26 42.9614 131.668 42.9614C132.218 42.9574 132.685 42.6217 132.685 42.128Z" fill="black"/>
<path d="M133.808 43.5814L133.961 43.3721C134.283 43.6209 134.648 43.7513 135.045 43.7513C135.662 43.7513 136.097 43.3958 136.097 42.7046V42.3136C135.866 42.6454 135.508 42.9376 134.978 42.9376C134.33 42.9376 133.69 42.44 133.69 41.6658V41.654C133.69 40.8759 134.33 40.3743 134.978 40.3743C135.516 40.3743 135.877 40.6586 136.097 40.9786V40.4375H136.357V42.7204C136.357 43.1114 136.231 43.4195 136.015 43.6367C135.783 43.8698 135.438 43.9962 135.041 43.9962C134.594 43.9962 134.177 43.8579 133.808 43.5814ZM136.113 41.6619V41.65C136.113 41.026 135.559 40.6231 135.002 40.6231C134.44 40.6231 133.965 41.0141 133.965 41.6461V41.6579C133.965 42.2662 134.448 42.6888 135.002 42.6888C135.559 42.6888 136.113 42.2741 136.113 41.6619Z" fill="black"/>
<path d="M137.15 41.7922V41.7804C137.15 40.9983 137.695 40.3743 138.422 40.3743C139.176 40.3743 139.655 40.9904 139.655 41.7883C139.655 41.8357 139.655 41.8515 139.651 41.8949H137.425C137.472 42.5664 137.951 42.9574 138.477 42.9574C138.893 42.9574 139.176 42.7718 139.396 42.5348L139.576 42.6928C139.301 42.989 138.983 43.2023 138.465 43.2023C137.762 43.2023 137.15 42.6375 137.15 41.7922ZM139.376 41.6619C139.341 41.1168 139.03 40.6152 138.414 40.6152C137.884 40.6152 137.472 41.0655 137.425 41.6619H139.376Z" fill="black"/>
<path d="M140.409 40.4375H140.668V40.9391C140.848 40.6231 141.147 40.3743 141.638 40.3743C142.317 40.3743 142.71 40.8403 142.71 41.4841V43.1351H142.45V41.5315C142.45 40.9746 142.14 40.6113 141.598 40.6113C141.072 40.6113 140.668 41.0141 140.668 41.575V43.1351H140.409V40.4375Z" fill="black"/>
<path d="M143.452 41.8001V41.7883C143.452 41.0299 144.053 40.3743 144.818 40.3743C145.325 40.3743 145.639 40.6073 145.89 40.8719L145.706 41.0615C145.474 40.8245 145.211 40.6152 144.81 40.6152C144.202 40.6152 143.727 41.1287 143.727 41.7725V41.7843C143.727 42.436 144.217 42.9534 144.83 42.9534C145.207 42.9534 145.501 42.7599 145.729 42.5032L145.906 42.6612C145.631 42.9732 145.305 43.1944 144.81 43.1944C144.049 43.2023 143.452 42.5545 143.452 41.8001Z" fill="black"/>
<path d="M146.412 43.8856L146.503 43.6565C146.644 43.7236 146.762 43.7592 146.958 43.7592C147.237 43.7592 147.422 43.5933 147.622 43.1233L146.334 40.4414H146.632L147.747 42.8547L148.717 40.4414H149L147.838 43.2378C147.602 43.8026 147.327 44.0041 146.942 44.0041C146.738 44.0001 146.589 43.9646 146.412 43.8856Z" fill="black"/>
<path d="M1.157 12.6H1.703V9.324C1.703 8.986 1.677 8.752 1.677 8.752H1.703C1.703 8.752 2.236 10.156 3.952 10.156C5.629 10.156 6.838 8.817 6.838 6.75C6.838 4.735 5.772 3.344 4.03 3.344C2.223 3.344 1.716 4.735 1.716 4.735H1.69C1.69 4.735 1.703 4.514 1.703 4.215C1.703 3.721 1.482 3.5 0.949 3.5H0.312V3.994H0.871C1.053 3.994 1.157 4.085 1.157 4.28V12.6ZM1.69 6.763C1.69 4.722 2.808 3.877 4.004 3.877C5.33 3.877 6.266 4.995 6.266 6.75C6.266 8.57 5.226 9.636 3.952 9.636C2.47 9.636 1.69 8.206 1.69 6.763ZM8.01145 6.711C8.01145 8.648 9.51945 10.156 11.3785 10.156C13.2375 10.156 14.7455 8.648 14.7455 6.711C14.7455 4.813 13.2375 3.344 11.3785 3.344C9.51945 3.344 8.01145 4.813 8.01145 6.711ZM8.58345 6.711C8.58345 5.099 9.83145 3.877 11.3785 3.877C12.9255 3.877 14.1735 5.099 14.1735 6.711C14.1735 8.362 12.9255 9.623 11.3785 9.623C9.83145 9.623 8.58345 8.362 8.58345 6.711ZM17.9913 10H18.5763L20.3703 4.956C20.4873 4.644 20.5913 4.254 20.5913 4.254H20.6173C20.6173 4.254 20.7213 4.644 20.8383 4.956L22.6453 10H23.2303L25.2323 4.306C25.3233 4.059 25.4793 3.994 25.7263 3.994H25.8953V3.5H25.7393C25.0893 3.5 24.8943 3.604 24.6733 4.254L23.1653 8.596C23.0483 8.921 22.9443 9.298 22.9443 9.298H22.9183C22.9183 9.298 22.8013 8.908 22.6973 8.596L20.9163 3.526H20.3053L18.5243 8.596C18.4203 8.908 18.3033 9.298 18.3033 9.298H18.2773C18.2773 9.298 18.1603 8.908 18.0563 8.596L16.5483 4.254C16.3273 3.604 16.1323 3.5 15.4823 3.5H15.3263V3.994H15.4953C15.7423 3.994 15.8983 4.059 15.9893 4.306L17.9913 10ZM26.4704 6.763C26.4704 8.83 27.9914 10.156 29.8244 10.156C31.2284 10.156 32.1384 9.259 32.1384 9.259L31.8394 8.804C31.8394 8.804 31.0724 9.623 29.8244 9.623C28.3164 9.623 27.0424 8.544 27.0424 6.659H32.2554C32.2554 6.659 32.2814 6.451 32.2814 6.308C32.2814 4.735 31.3974 3.344 29.6294 3.344C27.9654 3.344 26.4704 4.566 26.4704 6.763ZM27.0814 6.152C27.3154 4.631 28.4204 3.851 29.6164 3.851C30.6954 3.851 31.6444 4.566 31.7094 6.152H27.0814ZM34.1267 10H34.6727V7.192C34.6727 6.763 34.7247 6.282 34.8677 5.827C35.1537 4.865 35.7907 4.007 36.8047 4.007C36.9477 4.007 37.1037 4.033 37.1037 4.033V3.487C37.1037 3.487 36.9217 3.448 36.7267 3.448C35.6997 3.448 34.9977 4.202 34.6727 5.203H34.6467C34.6467 5.203 34.6727 4.969 34.6727 4.67V4.215C34.6727 3.721 34.4517 3.5 33.9187 3.5H33.2817V3.994H33.8407C34.0227 3.994 34.1267 4.085 34.1267 4.28V10ZM37.6804 6.763C37.6804 8.83 39.2014 10.156 41.0344 10.156C42.4384 10.156 43.3484 9.259 43.3484 9.259L43.0494 8.804C43.0494 8.804 42.2824 9.623 41.0344 9.623C39.5264 9.623 38.2524 8.544 38.2524 6.659H43.4654C43.4654 6.659 43.4914 6.451 43.4914 6.308C43.4914 4.735 42.6074 3.344 40.8394 3.344C39.1754 3.344 37.6804 4.566 37.6804 6.763ZM38.2914 6.152C38.5254 4.631 39.6304 3.851 40.8264 3.851C41.9054 3.851 42.8544 4.566 42.9194 6.152H38.2914ZM44.7777 6.75C44.7777 8.765 45.8437 10.156 47.5857 10.156C49.3797 10.156 49.9127 8.752 49.9127 8.752H49.9387C49.9387 8.752 49.9127 8.947 49.9127 9.246C49.9127 9.779 50.1337 10 50.6667 10H51.3037V9.506H50.7447C50.5627 9.506 50.4587 9.415 50.4587 9.22V1.654C50.4587 1.121 50.2377 0.899999 49.7047 0.899999H49.0677V1.394H49.6267C49.8087 1.394 49.9127 1.485 49.9127 1.68V4.215C49.9127 4.514 49.9387 4.748 49.9387 4.748H49.9127C49.9127 4.748 49.3277 3.344 47.6897 3.344C45.9867 3.344 44.7777 4.683 44.7777 6.75ZM47.6117 9.623C46.2857 9.623 45.3497 8.505 45.3497 6.75C45.3497 4.93 46.3897 3.864 47.6637 3.864C49.1847 3.864 49.9257 5.294 49.9257 6.737C49.9257 8.778 48.8077 9.623 47.6117 9.623ZM56.3299 10H56.8759V9.324C56.8759 8.986 56.8499 8.752 56.8499 8.752H56.8759C56.8759 8.752 57.4609 10.156 59.0989 10.156C60.8019 10.156 62.0109 8.817 62.0109 6.75C62.0109 4.735 60.9449 3.344 59.2029 3.344C57.4089 3.344 56.8759 4.748 56.8759 4.748H56.8499C56.8499 4.748 56.8759 4.514 56.8759 4.215V1.654C56.8759 1.121 56.6549 0.899999 56.1219 0.899999H55.4849V1.394H56.0439C56.2259 1.394 56.3299 1.485 56.3299 1.68V10ZM56.8629 6.763C56.8629 4.722 57.9809 3.877 59.1769 3.877C60.5029 3.877 61.4389 4.995 61.4389 6.75C61.4389 8.57 60.3989 9.636 59.1249 9.636C57.6039 9.636 56.8629 8.206 56.8629 6.763ZM62.9543 11.703L62.6293 12.119C62.6293 12.119 63.0843 12.73 63.9293 12.73C64.7483 12.73 65.2943 12.197 65.5803 11.521L68.5833 4.306C68.6873 4.059 68.8303 3.994 69.0773 3.994H69.1813V3.5H69.0903C68.4403 3.5 68.2843 3.617 68.0243 4.254L66.1913 8.687C66.0613 8.999 65.9703 9.298 65.9703 9.298H65.9443C65.9443 9.298 65.8533 8.999 65.7233 8.687L63.8773 4.254C63.6173 3.617 63.4613 3.5 62.8113 3.5H62.7203V3.994H62.8243C63.0713 3.994 63.2143 4.059 63.3183 4.306L65.6713 9.961L65.2033 11.04C64.9433 11.651 64.5533 12.21 63.9293 12.21C63.3703 12.21 62.9543 11.716 62.9543 11.703Z" fill="#666666"/>
</svg>
