<svg width="48" height="50" viewBox="0 0 48 50" fill="none" xmlns="http://www.w3.org/2000/svg">
<path d="M0 14H3V16H0V30H3V32H0V46H3V50H45V46H48V32H45V30H48V16H45V14H48V0H0V14ZM43 48H5V46H43V48ZM46 34V44H45H3H2V34H3H45H46ZM43 32H5V30H43V32ZM46 18V28H45H3H2V18H3H45H46ZM43 16H5V14H43V16ZM2 2H46V12H45H3H2V2Z" fill="#2A3CAC"/>
<path d="M7 5H5V9H7V5Z" fill="#2A3CAC"/>
<path d="M12 5H10V9H12V5Z" fill="#2A3CAC"/>
<path d="M17 5H15V9H17V5Z" fill="#2A3CAC"/>
<path d="M22 5H20V9H22V5Z" fill="#2A3CAC"/>
<path d="M43 6H41V8H43V6Z" fill="#2A3CAC"/>
<path d="M38 6H25V8H38V6Z" fill="#2A3CAC"/>
<path d="M7 21H5V25H7V21Z" fill="#2A3CAC"/>
<path d="M12 21H10V25H12V21Z" fill="#2A3CAC"/>
<path d="M17 21H15V25H17V21Z" fill="#2A3CAC"/>
<path d="M22 21H20V25H22V21Z" fill="#2A3CAC"/>
<path d="M43 22H41V24H43V22Z" fill="#2A3CAC"/>
<path d="M38 22H25V24H38V22Z" fill="#2A3CAC"/>
<path d="M7 37H5V41H7V37Z" fill="#2A3CAC"/>
<path d="M12 37H10V41H12V37Z" fill="#2A3CAC"/>
<path d="M17 37H15V41H17V37Z" fill="#2A3CAC"/>
<path d="M22 37H20V41H22V37Z" fill="#2A3CAC"/>
<path d="M43 38H41V40H43V38Z" fill="#2A3CAC"/>
<path d="M38 38H25V40H38V38Z" fill="#2A3CAC"/>
</svg>
