<svg width="55" height="48" viewBox="0 0 55 48" fill="none" xmlns="http://www.w3.org/2000/svg">
<path d="M51.2458 23.0419C50.7197 10.2425 40.1957 0 27.2169 0C23.972 0 20.8218 0.636474 17.8538 1.89187L17.1193 2.20261L20.4335 10.0381L21.1682 9.72746C26.7256 7.37671 33.4714 8.3905 38.1354 12.9997C40.8709 15.7031 42.4836 19.2434 42.727 23.042H39.4869L47.0143 33.7553L54.5417 23.042H51.2458V23.0419ZM42.5573 24.6371H44.3632L44.3529 23.8293C44.2334 14.4685 36.5956 6.91241 27.2169 6.91241C25.1713 6.91241 23.1808 7.26601 21.2884 7.96459L19.2153 3.06337C27.1353 0.0387095 36.5665 1.64313 43.0957 8.17238C47.2829 12.3596 49.6179 17.9261 49.6705 23.8465L49.6775 24.6371H51.4714L47.0144 30.9805L42.5573 24.6371Z" fill="#2A3CAC"/>
<path d="M33.3734 38.269C27.8168 40.6202 21.069 39.6051 16.4059 34.9968C13.6705 32.2935 12.0579 28.7531 11.8145 24.9543H15.0544L7.52655 14.2416L0 24.9543H3.29573C3.55138 31.1779 7.43212 38.2204 12.2392 42.68L13.2419 41.4394C8.65997 37.1888 4.926 30.3618 4.87112 24.1496L4.86421 23.359H3.07028L7.52666 17.0161L11.9839 23.359H10.1782L10.1885 24.1668C10.3079 33.5279 17.9453 41.0835 27.3237 41.0835C29.3708 41.0835 31.3615 40.73 33.2531 40.0317L35.326 44.9333C28.2584 47.6317 19.7577 46.7054 13.2419 41.4394L12.2392 42.68C19.4791 48.5314 28.9636 49.3711 36.6875 46.1048L37.4221 45.7942L34.1081 37.9579L33.3734 38.269Z" fill="#2A3CAC"/>
<path d="M27.2706 15.7323L31.0922 22.0745L32.4586 21.2513L27.2706 12.6415L20.9098 23.1983C17.8535 28.2686 21.5622 34.8285 27.5517 34.6025C33.2168 34.4117 36.587 28.1012 33.6317 23.1985L32.4586 21.2513L31.0922 22.0745L32.2653 24.0219C34.6608 27.9957 31.79 33.1821 27.0434 33.0082C22.5959 32.8584 19.9489 27.8826 22.2761 24.0216L27.2706 15.7323Z" fill="#2A3CAC"/>
</svg>
