<svg width="160" height="38" viewBox="0 0 160 38" fill="none" xmlns="http://www.w3.org/2000/svg">
<path d="M8.53954 0C13.1734 1.12536 17.1453 5.8916 17.1453 11.5846C17.2114 23.3678 6.09022 25.5523 6.09022 32.4369C6.09022 33.1651 6.15642 33.6947 6.35502 34.3566C3.57471 33.9595 1.19159 30.7158 1.19159 27.0087C1.19159 17.41 9.53251 15.5565 9.53251 5.56061C9.53251 3.0451 8.53954 0 8.53954 0Z" fill="#EC1B34"/>
<path d="M19.8593 13.6368C22.1762 15.6228 23.3016 18.6679 23.3016 21.4482C23.3016 31.5102 11.9156 32.768 11.9156 36.6075C11.9156 37.0047 11.9818 37.2694 12.048 37.6004C10.2606 36.9385 8.87048 34.8201 8.87048 32.9004C8.87048 26.6778 18.2706 25.0891 19.8593 13.6368Z" fill="#72BE44"/>
<path d="M2.8465 3.17737C2.8465 3.17737 3.37609 4.17033 3.37609 5.2957C3.37609 8.87038 0 10.1943 0 13.769C0 15.4902 0.926769 16.8803 2.25072 17.6747C2.31692 17.3437 2.31692 17.0789 2.38312 16.8141C3.17749 14.2986 6.81837 11.5183 6.81837 7.61262C6.88457 5.2957 4.96483 3.37596 2.8465 3.17737Z" fill="#00A4E4"/>
<path d="M39.1891 23.7651C41.3736 25.6848 43.4257 26.8764 46.3384 26.8764C47.9934 26.8764 50.9723 26.2144 50.9723 24.0299C50.9723 22.7721 50.0455 22.1764 48.192 21.8454L43.0285 20.9848C38.4609 20.2566 35.9454 17.8073 35.9454 14.1664C35.9454 8.20863 40.7778 5.69312 46.0736 5.69312C50.1779 5.69312 54.216 7.34806 56.9963 10.4594L52.2962 13.8354C50.6413 11.8495 48.2582 10.7241 45.6102 10.7241C44.2201 10.7241 42.1018 11.6509 42.1018 13.2397C42.1018 14.5636 43.1609 15.2256 45.544 15.6228L47.9272 16.02C52.892 16.7481 56.9963 18.3369 56.9963 23.0369C56.9963 30.5173 50.2441 31.9074 45.6102 31.9074C41.3736 31.9074 37.4679 30.5173 34.0256 26.8764L39.1891 23.7651Z" fill="black"/>
<path d="M72.288 31.9074C64.3442 31.9074 59.7104 25.751 59.7104 18.8003C59.7104 11.8495 64.3442 5.69312 72.288 5.69312C80.1655 5.69312 84.7993 11.8495 84.7993 18.8003C84.7993 25.751 80.1655 31.9074 72.288 31.9074ZM72.288 10.9227C68.6471 10.9227 65.933 13.2397 65.933 18.8003C65.933 22.4412 67.3893 26.6778 72.288 26.6778C76.8556 26.6778 78.6429 22.6397 78.6429 18.8003C78.5767 14.8946 76.8556 10.9227 72.288 10.9227Z" fill="black"/>
<path d="M105.056 14.6298C104.195 12.3129 102.077 10.9227 99.8924 10.9227C96.5163 10.9227 93.8022 13.2397 93.8022 18.8003C93.8022 22.4412 95.2586 26.6778 100.157 26.6778C101.812 26.6778 104.261 25.4201 105.254 23.1693L110.153 25.5524C108.035 29.3919 104.328 31.9074 100.157 31.9074C92.2135 31.9074 87.5797 25.751 87.5797 18.8003C87.5797 11.8495 91.8825 5.69312 99.6276 5.69312C104.526 5.69312 107.704 8.07623 110.021 12.1805L105.056 14.6298Z" fill="black"/>
<path d="M119.752 6.42102H126.173L135.573 31.2452H128.887L127.629 27.3395H118.494L117.236 31.2452H110.616L119.752 6.42102ZM126.173 22.7057L123.128 12.445H123.062L120.017 22.7057H126.173Z" fill="black"/>
<path d="M138.022 6.42102H150.401C155.962 6.42102 159.404 9.00273 159.404 14.5633C159.404 17.7408 157.352 20.3226 154.307 21.2493L160 31.2452H153.049L148.151 22.3085H144.245V31.2452H138.022V6.42102ZM144.245 17.6746H149.938C151.924 17.6746 153.248 16.6155 153.248 14.3648C153.248 12.0478 151.924 11.0549 149.938 10.9887H144.245V17.6746Z" fill="black"/>
</svg>
