<svg width="40" height="40" viewBox="0 0 40 40" fill="none" xmlns="http://www.w3.org/2000/svg">
<path d="M27.9997 32.6666H21.333M22.6663 32.6666H8.66634C7.93301 32.6666 7.33301 32.0666 7.33301 31.3333V8.66665C7.33301 7.93331 7.93301 7.33331 8.66634 7.33331H31.333C32.0663 7.33331 32.6663 7.93331 32.6663 8.66665V31.3333C32.6663 32.0666 32.0663 32.6666 31.333 32.6666H26.6663" stroke="black" stroke-width="1.5" stroke-miterlimit="10"/>
<path d="M10 5.33333V0" stroke="black" stroke-width="1.5" stroke-miterlimit="10"/>
<path d="M16.667 5.33333V0" stroke="black" stroke-width="1.5" stroke-miterlimit="10"/>
<path d="M23.333 5.33333V0" stroke="black" stroke-width="1.5" stroke-miterlimit="10"/>
<path d="M30 5.33333V0" stroke="black" stroke-width="1.5" stroke-miterlimit="10"/>
<path d="M10 40V34.6667" stroke="black" stroke-width="1.5" stroke-miterlimit="10"/>
<path d="M16.667 40V34.6667" stroke="black" stroke-width="1.5" stroke-miterlimit="10"/>
<path d="M23.333 40V34.6667" stroke="black" stroke-width="1.5" stroke-miterlimit="10"/>
<path d="M30 40V34.6667" stroke="black" stroke-width="1.5" stroke-miterlimit="10"/>
<path d="M34.667 10H40.0003" stroke="black" stroke-width="1.5" stroke-miterlimit="10"/>
<path d="M34.667 16.6667H40.0003" stroke="black" stroke-width="1.5" stroke-miterlimit="10"/>
<path d="M34.667 23.3333H40.0003" stroke="black" stroke-width="1.5" stroke-miterlimit="10"/>
<path d="M34.667 30H40.0003" stroke="black" stroke-width="1.5" stroke-miterlimit="10"/>
<path d="M0 10H5.33333" stroke="black" stroke-width="1.5" stroke-miterlimit="10"/>
<path d="M0 16.6667H5.33333" stroke="black" stroke-width="1.5" stroke-miterlimit="10"/>
<path d="M0 23.3333H5.33333" stroke="black" stroke-width="1.5" stroke-miterlimit="10"/>
<path d="M0 30H5.33333" stroke="black" stroke-width="1.5" stroke-miterlimit="10"/>
</svg>
