<svg width="30" height="16" viewBox="0 0 30 16" fill="none" xmlns="http://www.w3.org/2000/svg">
<path d="M30 0H0V15.7895H30V0Z" fill="white"/>
<path d="M30 0H0V1.21457H30V0Z" fill="#B22234"/>
<path d="M30 2.4292H0V3.64377H30V2.4292Z" fill="#B22234"/>
<path d="M30 4.85824H0V6.07281H30V4.85824Z" fill="#B22234"/>
<path d="M30 7.28744H0V8.50201H30V7.28744Z" fill="#B22234"/>
<path d="M30 9.71663H0V10.9312H30V9.71663Z" fill="#B22234"/>
<path d="M30 12.1458H0V13.3604H30V12.1458Z" fill="#B22234"/>
<path d="M30 14.5749H0V15.7895H30V14.5749Z" fill="#B22234"/>
<path d="M12 0H0V8.50201L12 8.50203V0Z" fill="#3C3B6E"/>
<path d="M1.15384 0.93213L0.740885 1.23274L0.89878 0.746908L1.15384 0.93213Z" fill="white"/>
<path d="M0.977734 0.989735L0.564779 0.689128H1.0749L0.977734 0.989735Z" fill="white"/>
<path d="M0.868429 0.840973L1.02632 0.355143L1.18422 0.840973H0.868429Z" fill="white"/>
<path d="M0.977742 0.689128H1.48786L1.07491 0.989735L0.977742 0.689128Z" fill="white"/>
<path d="M1.15384 0.746908L1.31174 1.23274L0.898783 0.93213L1.15384 0.746908Z" fill="white"/>
<path d="M3.14271 0.93213L2.72976 1.23274L2.88765 0.746908L3.14271 0.93213Z" fill="white"/>
<path d="M2.96661 0.989735L2.55365 0.689128H3.06377L2.96661 0.989735Z" fill="white"/>
<path d="M2.85728 0.840973L3.01517 0.355143L3.17307 0.840973H2.85728Z" fill="white"/>
<path d="M2.96659 0.689128H3.47975L3.06376 0.989735L2.96659 0.689128Z" fill="white"/>
<path d="M3.14272 0.746908L3.30061 1.23274L2.88765 0.93213L3.14272 0.746908Z" fill="white"/>
<path d="M5.13462 0.93213L4.71863 1.23274L4.87652 0.746908L5.13462 0.93213Z" fill="white"/>
<path d="M4.95546 0.989735L4.5425 0.689128H5.05262L4.95546 0.989735Z" fill="white"/>
<path d="M4.84615 0.840973L5.00405 0.355143L5.16194 0.840973H4.84615Z" fill="white"/>
<path d="M4.95546 0.689128H5.46862L5.05263 0.989735L4.95546 0.689128Z" fill="white"/>
<path d="M5.13462 0.746908L5.29252 1.23274L4.87653 0.93213L5.13462 0.746908Z" fill="white"/>
<path d="M7.12349 0.93213L6.7075 1.23274L6.86539 0.746908L7.12349 0.93213Z" fill="white"/>
<path d="M6.94736 0.989735L6.53137 0.689128H7.04453L6.94736 0.989735Z" fill="white"/>
<path d="M6.83805 0.840973L6.99595 0.355143L7.15384 0.840973H6.83805Z" fill="white"/>
<path d="M6.94737 0.689128H7.45749L7.04453 0.989735L6.94737 0.689128Z" fill="white"/>
<path d="M7.12347 0.746908L7.28137 1.23274L6.86538 0.93213L7.12347 0.746908Z" fill="white"/>
<path d="M9.11234 0.93213L8.69938 1.23274L8.85728 0.746908L9.11234 0.93213Z" fill="white"/>
<path d="M8.93623 0.989735L8.52024 0.689128H9.0334L8.93623 0.989735Z" fill="white"/>
<path d="M8.8269 0.840973L8.9848 0.355143L9.14269 0.840973H8.8269Z" fill="white"/>
<path d="M8.93624 0.689128H9.44636L9.03341 0.989735L8.93624 0.689128Z" fill="white"/>
<path d="M9.11236 0.746908L9.27025 1.23274L8.8573 0.93213L9.11236 0.746908Z" fill="white"/>
<path d="M11.1012 0.93213L10.6883 1.23274L10.8461 0.746908L11.1012 0.93213Z" fill="white"/>
<path d="M10.9251 0.989735L10.5122 0.689128H11.0223L10.9251 0.989735Z" fill="white"/>
<path d="M10.8158 0.840973L10.9737 0.355143L11.1316 0.840973H10.8158Z" fill="white"/>
<path d="M10.9251 0.689128H11.4352L11.0223 0.989735L10.9251 0.689128Z" fill="white"/>
<path d="M11.1012 0.746908L11.2591 1.23274L10.8462 0.93213L11.1012 0.746908Z" fill="white"/>
<path d="M2.1498 1.78532L1.73381 2.08593L1.89474 1.6001L2.1498 1.78532Z" fill="white"/>
<path d="M1.97369 1.84309L1.5577 1.54248H2.07086L1.97369 1.84309Z" fill="white"/>
<path d="M1.86438 1.69427L2.02227 1.2054L2.18017 1.69427H1.86438Z" fill="white"/>
<path d="M1.97369 1.54248H2.48382L2.07086 1.84309L1.97369 1.54248Z" fill="white"/>
<path d="M2.14979 1.6001L2.30769 2.08593L1.89473 1.78532L2.14979 1.6001Z" fill="white"/>
<path d="M4.13866 1.78532L3.72571 2.08593L3.8836 1.6001L4.13866 1.78532Z" fill="white"/>
<path d="M3.96256 1.84309L3.54657 1.54248H4.05973L3.96256 1.84309Z" fill="white"/>
<path d="M3.85323 1.69427L4.01113 1.2054L4.16902 1.69427H3.85323Z" fill="white"/>
<path d="M3.96254 1.54248H4.47267L4.05971 1.84309L3.96254 1.54248Z" fill="white"/>
<path d="M4.13866 1.6001L4.29656 2.08593L3.88361 1.78532L4.13866 1.6001Z" fill="white"/>
<path d="M6.12754 1.78532L5.71458 2.08593L5.87247 1.6001L6.12754 1.78532Z" fill="white"/>
<path d="M5.95141 1.84309L5.53845 1.54248H6.04857L5.95141 1.84309Z" fill="white"/>
<path d="M5.8421 1.69427L6 1.2054L6.15789 1.69427H5.8421Z" fill="white"/>
<path d="M5.95142 1.54248H6.46154L6.04858 1.84309L5.95142 1.54248Z" fill="white"/>
<path d="M6.12754 1.6001L6.28543 2.08593L5.87248 1.78532L6.12754 1.6001Z" fill="white"/>
<path d="M8.11639 1.78532L7.70343 2.08593L7.86132 1.6001L8.11639 1.78532Z" fill="white"/>
<path d="M7.94028 1.84309L7.52732 1.54248H8.03745L7.94028 1.84309Z" fill="white"/>
<path d="M7.83097 1.69427L7.98887 1.2054L8.14676 1.69427H7.83097Z" fill="white"/>
<path d="M7.94029 1.54248H8.45345L8.03745 1.84309L7.94029 1.54248Z" fill="white"/>
<path d="M8.11639 1.6001L8.27428 2.08593L7.86133 1.78532L8.11639 1.6001Z" fill="white"/>
<path d="M10.1083 1.78532L9.6923 2.08593L9.8502 1.6001L10.1083 1.78532Z" fill="white"/>
<path d="M9.92913 1.84309L9.51617 1.54248H10.0293L9.92913 1.84309Z" fill="white"/>
<path d="M9.81984 1.69427L9.97774 1.2054L10.1356 1.69427H9.81984Z" fill="white"/>
<path d="M9.92916 1.54248H10.4423L10.0294 1.84309L9.92916 1.54248Z" fill="white"/>
<path d="M10.1083 1.6001L10.2662 2.08593L9.8502 1.78532L10.1083 1.6001Z" fill="white"/>
<path d="M1.15384 2.63851L0.740885 2.93912L0.89878 2.45329L1.15384 2.63851Z" fill="white"/>
<path d="M0.977734 2.69628L0.564779 2.39567H1.0749L0.977734 2.69628Z" fill="white"/>
<path d="M0.868429 2.54442L1.02632 2.05859L1.18422 2.54442H0.868429Z" fill="white"/>
<path d="M0.977742 2.39567H1.48786L1.07491 2.69628L0.977742 2.39567Z" fill="white"/>
<path d="M1.15384 2.45329L1.31174 2.93912L0.898783 2.63851L1.15384 2.45329Z" fill="white"/>
<path d="M3.14271 2.63851L2.72976 2.93912L2.88765 2.45329L3.14271 2.63851Z" fill="white"/>
<path d="M2.96661 2.69628L2.55365 2.39567H3.06377L2.96661 2.69628Z" fill="white"/>
<path d="M2.85728 2.54442L3.01517 2.05859L3.17307 2.54442H2.85728Z" fill="white"/>
<path d="M2.96659 2.39567H3.47975L3.06376 2.69628L2.96659 2.39567Z" fill="white"/>
<path d="M3.14272 2.45329L3.30061 2.93912L2.88765 2.63851L3.14272 2.45329Z" fill="white"/>
<path d="M5.13462 2.63851L4.71863 2.93912L4.87652 2.45329L5.13462 2.63851Z" fill="white"/>
<path d="M4.95546 2.69628L4.5425 2.39567H5.05262L4.95546 2.69628Z" fill="white"/>
<path d="M4.84615 2.54442L5.00405 2.05859L5.16194 2.54442H4.84615Z" fill="white"/>
<path d="M4.95546 2.39567H5.46862L5.05263 2.69628L4.95546 2.39567Z" fill="white"/>
<path d="M5.13462 2.45329L5.29252 2.93912L4.87653 2.63851L5.13462 2.45329Z" fill="white"/>
<path d="M7.12349 2.63851L6.7075 2.93912L6.86539 2.45329L7.12349 2.63851Z" fill="white"/>
<path d="M6.94736 2.69628L6.53137 2.39567H7.04453L6.94736 2.69628Z" fill="white"/>
<path d="M6.83805 2.54442L6.99595 2.05859L7.15384 2.54442H6.83805Z" fill="white"/>
<path d="M6.94737 2.39567H7.45749L7.04453 2.69628L6.94737 2.39567Z" fill="white"/>
<path d="M7.12347 2.45329L7.28137 2.93912L6.86538 2.63851L7.12347 2.45329Z" fill="white"/>
<path d="M9.11234 2.63851L8.69938 2.93912L8.85728 2.45329L9.11234 2.63851Z" fill="white"/>
<path d="M8.93623 2.69628L8.52024 2.39567H9.0334L8.93623 2.69628Z" fill="white"/>
<path d="M8.8269 2.54442L8.9848 2.05859L9.14269 2.54442H8.8269Z" fill="white"/>
<path d="M8.93624 2.39567H9.44636L9.03341 2.69628L8.93624 2.39567Z" fill="white"/>
<path d="M9.11236 2.45329L9.27025 2.93912L8.8573 2.63851L9.11236 2.45329Z" fill="white"/>
<path d="M11.1012 2.63851L10.6883 2.93912L10.8461 2.45329L11.1012 2.63851Z" fill="white"/>
<path d="M10.9251 2.69628L10.5122 2.39567H11.0223L10.9251 2.69628Z" fill="white"/>
<path d="M10.8158 2.54442L10.9737 2.05859L11.1316 2.54442H10.8158Z" fill="white"/>
<path d="M10.9251 2.39567H11.4352L11.0223 2.69628L10.9251 2.39567Z" fill="white"/>
<path d="M11.1012 2.45329L11.2591 2.93912L10.8462 2.63851L11.1012 2.45329Z" fill="white"/>
<path d="M2.1498 3.49186L1.73381 3.79247L1.89474 3.30664L2.1498 3.49186Z" fill="white"/>
<path d="M1.97369 3.54947L1.5577 3.24886H2.07086L1.97369 3.54947Z" fill="white"/>
<path d="M1.86438 3.39777L2.02227 2.91195L2.18017 3.39777H1.86438Z" fill="white"/>
<path d="M1.97369 3.24886H2.48382L2.07086 3.54947L1.97369 3.24886Z" fill="white"/>
<path d="M2.14979 3.30664L2.30769 3.79247L1.89473 3.49186L2.14979 3.30664Z" fill="white"/>
<path d="M4.13866 3.49186L3.72571 3.79247L3.8836 3.30664L4.13866 3.49186Z" fill="white"/>
<path d="M3.96256 3.54947L3.54657 3.24886H4.05973L3.96256 3.54947Z" fill="white"/>
<path d="M3.85323 3.39777L4.01113 2.91195L4.16902 3.39777H3.85323Z" fill="white"/>
<path d="M3.96254 3.24886H4.47267L4.05971 3.54947L3.96254 3.24886Z" fill="white"/>
<path d="M4.13866 3.30664L4.29656 3.79247L3.88361 3.49186L4.13866 3.30664Z" fill="white"/>
<path d="M6.12754 3.49186L5.71458 3.79247L5.87247 3.30664L6.12754 3.49186Z" fill="white"/>
<path d="M5.95141 3.54947L5.53845 3.24886H6.04857L5.95141 3.54947Z" fill="white"/>
<path d="M5.8421 3.39777L6 2.91195L6.15789 3.39777H5.8421Z" fill="white"/>
<path d="M5.95142 3.24886H6.46154L6.04858 3.54947L5.95142 3.24886Z" fill="white"/>
<path d="M6.12754 3.30664L6.28543 3.79247L5.87248 3.49186L6.12754 3.30664Z" fill="white"/>
<path d="M8.11639 3.49186L7.70343 3.79247L7.86132 3.30664L8.11639 3.49186Z" fill="white"/>
<path d="M7.94028 3.54947L7.52732 3.24886H8.03745L7.94028 3.54947Z" fill="white"/>
<path d="M7.83097 3.39777L7.98887 2.91195L8.14676 3.39777H7.83097Z" fill="white"/>
<path d="M7.94029 3.24886H8.45345L8.03745 3.54947L7.94029 3.24886Z" fill="white"/>
<path d="M8.11639 3.30664L8.27428 3.79247L7.86133 3.49186L8.11639 3.30664Z" fill="white"/>
<path d="M10.1083 3.49186L9.6923 3.79247L9.8502 3.30664L10.1083 3.49186Z" fill="white"/>
<path d="M9.92913 3.54947L9.51617 3.24886H10.0293L9.92913 3.54947Z" fill="white"/>
<path d="M9.81984 3.39777L9.97774 2.91195L10.1356 3.39777H9.81984Z" fill="white"/>
<path d="M9.92916 3.24886H10.4423L10.0294 3.54947L9.92916 3.24886Z" fill="white"/>
<path d="M10.1083 3.30664L10.2662 3.79247L9.8502 3.49186L10.1083 3.30664Z" fill="white"/>
<path d="M1.15384 4.345L0.740885 4.6456L0.89878 4.15674L1.15384 4.345Z" fill="white"/>
<path d="M0.977734 4.39978L0.564779 4.10221H1.0749L0.977734 4.39978Z" fill="white"/>
<path d="M0.868429 4.25097L1.02632 3.76514L1.18422 4.25097H0.868429Z" fill="white"/>
<path d="M0.977742 4.10221H1.48786L1.07491 4.39978L0.977742 4.10221Z" fill="white"/>
<path d="M1.15384 4.15674L1.31174 4.6456L0.898783 4.345L1.15384 4.15674Z" fill="white"/>
<path d="M3.14271 4.345L2.72976 4.6456L2.88765 4.15674L3.14271 4.345Z" fill="white"/>
<path d="M2.96661 4.39978L2.55365 4.10221H3.06377L2.96661 4.39978Z" fill="white"/>
<path d="M2.85728 4.25097L3.01517 3.76514L3.17307 4.25097H2.85728Z" fill="white"/>
<path d="M2.96659 4.10221H3.47975L3.06376 4.39978L2.96659 4.10221Z" fill="white"/>
<path d="M3.14272 4.15674L3.30061 4.6456L2.88765 4.345L3.14272 4.15674Z" fill="white"/>
<path d="M5.13462 4.345L4.71863 4.6456L4.87652 4.15674L5.13462 4.345Z" fill="white"/>
<path d="M4.95546 4.39978L4.5425 4.10221H5.05262L4.95546 4.39978Z" fill="white"/>
<path d="M4.84615 4.25097L5.00405 3.76514L5.16194 4.25097H4.84615Z" fill="white"/>
<path d="M4.95546 4.10221H5.46862L5.05263 4.39978L4.95546 4.10221Z" fill="white"/>
<path d="M5.13462 4.15674L5.29252 4.6456L4.87653 4.345L5.13462 4.15674Z" fill="white"/>
<path d="M7.12349 4.345L6.7075 4.6456L6.86539 4.15674L7.12349 4.345Z" fill="white"/>
<path d="M6.94736 4.39978L6.53137 4.10221H7.04453L6.94736 4.39978Z" fill="white"/>
<path d="M6.83805 4.25097L6.99595 3.76514L7.15384 4.25097H6.83805Z" fill="white"/>
<path d="M6.94737 4.10221H7.45749L7.04453 4.39978L6.94737 4.10221Z" fill="white"/>
<path d="M7.12347 4.15674L7.28137 4.6456L6.86538 4.345L7.12347 4.15674Z" fill="white"/>
<path d="M9.11234 4.345L8.69938 4.6456L8.85728 4.15674L9.11234 4.345Z" fill="white"/>
<path d="M8.93623 4.39978L8.52024 4.10221H9.0334L8.93623 4.39978Z" fill="white"/>
<path d="M8.8269 4.25097L8.9848 3.76514L9.14269 4.25097H8.8269Z" fill="white"/>
<path d="M8.93624 4.10221H9.44636L9.03341 4.39978L8.93624 4.10221Z" fill="white"/>
<path d="M9.11236 4.15674L9.27025 4.6456L8.8573 4.345L9.11236 4.15674Z" fill="white"/>
<path d="M11.1012 4.345L10.6883 4.6456L10.8461 4.15674L11.1012 4.345Z" fill="white"/>
<path d="M10.9251 4.39978L10.5122 4.10221H11.0223L10.9251 4.39978Z" fill="white"/>
<path d="M10.8158 4.25097L10.9737 3.76514L11.1316 4.25097H10.8158Z" fill="white"/>
<path d="M10.9251 4.10221H11.4352L11.0223 4.39978L10.9251 4.10221Z" fill="white"/>
<path d="M11.1012 4.15674L11.2591 4.6456L10.8462 4.345L11.1012 4.15674Z" fill="white"/>
<path d="M2.1498 5.19531L1.73381 5.49592L1.89474 5.01009L2.1498 5.19531Z" fill="white"/>
<path d="M1.97369 5.25292L1.5577 4.95231H2.07086L1.97369 5.25292Z" fill="white"/>
<path d="M1.86438 5.10416L2.02227 4.61833L2.18017 5.10416H1.86438Z" fill="white"/>
<path d="M1.97369 4.95231H2.48382L2.07086 5.25292L1.97369 4.95231Z" fill="white"/>
<path d="M2.14979 5.01009L2.30769 5.49592L1.89473 5.19531L2.14979 5.01009Z" fill="white"/>
<path d="M4.13866 5.19531L3.72571 5.49592L3.8836 5.01009L4.13866 5.19531Z" fill="white"/>
<path d="M3.96256 5.25292L3.54657 4.95231H4.05973L3.96256 5.25292Z" fill="white"/>
<path d="M3.85323 5.10416L4.01113 4.61833L4.16902 5.10416H3.85323Z" fill="white"/>
<path d="M3.96254 4.95231H4.47267L4.05971 5.25292L3.96254 4.95231Z" fill="white"/>
<path d="M4.13866 5.01009L4.29656 5.49592L3.88361 5.19531L4.13866 5.01009Z" fill="white"/>
<path d="M6.12754 5.19531L5.71458 5.49592L5.87247 5.01009L6.12754 5.19531Z" fill="white"/>
<path d="M5.95141 5.25292L5.53845 4.95231H6.04857L5.95141 5.25292Z" fill="white"/>
<path d="M5.8421 5.10416L6 4.61833L6.15789 5.10416H5.8421Z" fill="white"/>
<path d="M5.95142 4.95231H6.46154L6.04858 5.25292L5.95142 4.95231Z" fill="white"/>
<path d="M6.12754 5.01009L6.28543 5.49592L5.87248 5.19531L6.12754 5.01009Z" fill="white"/>
<path d="M8.11639 5.19531L7.70343 5.49592L7.86132 5.01009L8.11639 5.19531Z" fill="white"/>
<path d="M7.94028 5.25292L7.52732 4.95231H8.03745L7.94028 5.25292Z" fill="white"/>
<path d="M7.83097 5.10416L7.98887 4.61833L8.14676 5.10416H7.83097Z" fill="white"/>
<path d="M7.94029 4.95231H8.45345L8.03745 5.25292L7.94029 4.95231Z" fill="white"/>
<path d="M8.11639 5.01009L8.27428 5.49592L7.86133 5.19531L8.11639 5.01009Z" fill="white"/>
<path d="M10.1083 5.19531L9.6923 5.49592L9.8502 5.01009L10.1083 5.19531Z" fill="white"/>
<path d="M9.92913 5.25292L9.51617 4.95231H10.0293L9.92913 5.25292Z" fill="white"/>
<path d="M9.81984 5.10416L9.97774 4.61833L10.1356 5.10416H9.81984Z" fill="white"/>
<path d="M9.92916 4.95231H10.4423L10.0294 5.25292L9.92916 4.95231Z" fill="white"/>
<path d="M10.1083 5.01009L10.2662 5.49592L9.8502 5.19531L10.1083 5.01009Z" fill="white"/>
<path d="M1.15384 6.0485L0.740885 6.34911L0.89878 5.86328L1.15384 6.0485Z" fill="white"/>
<path d="M0.977734 6.10627L0.564779 5.80566H1.0749L0.977734 6.10627Z" fill="white"/>
<path d="M0.868429 5.95745L1.02632 5.46859L1.18422 5.95745H0.868429Z" fill="white"/>
<path d="M0.977742 5.80566H1.48786L1.07491 6.10627L0.977742 5.80566Z" fill="white"/>
<path d="M1.15384 5.86328L1.31174 6.34911L0.898783 6.0485L1.15384 5.86328Z" fill="white"/>
<path d="M3.14271 6.0485L2.72976 6.34911L2.88765 5.86328L3.14271 6.0485Z" fill="white"/>
<path d="M2.96661 6.10627L2.55365 5.80566H3.06377L2.96661 6.10627Z" fill="white"/>
<path d="M2.85728 5.95745L3.01517 5.46859L3.17307 5.95745H2.85728Z" fill="white"/>
<path d="M2.96659 5.80566H3.47975L3.06376 6.10627L2.96659 5.80566Z" fill="white"/>
<path d="M3.14272 5.86328L3.30061 6.34911L2.88765 6.0485L3.14272 5.86328Z" fill="white"/>
<path d="M5.13462 6.0485L4.71863 6.34911L4.87652 5.86328L5.13462 6.0485Z" fill="white"/>
<path d="M4.95546 6.10627L4.5425 5.80566H5.05262L4.95546 6.10627Z" fill="white"/>
<path d="M4.84615 5.95745L5.00405 5.46859L5.16194 5.95745H4.84615Z" fill="white"/>
<path d="M4.95546 5.80566H5.46862L5.05263 6.10627L4.95546 5.80566Z" fill="white"/>
<path d="M5.13462 5.86328L5.29252 6.34911L4.87653 6.0485L5.13462 5.86328Z" fill="white"/>
<path d="M7.12349 6.0485L6.7075 6.34911L6.86539 5.86328L7.12349 6.0485Z" fill="white"/>
<path d="M6.94736 6.10627L6.53137 5.80566H7.04453L6.94736 6.10627Z" fill="white"/>
<path d="M6.83805 5.95745L6.99595 5.46859L7.15384 5.95745H6.83805Z" fill="white"/>
<path d="M6.94737 5.80566H7.45749L7.04453 6.10627L6.94737 5.80566Z" fill="white"/>
<path d="M7.12347 5.86328L7.28137 6.34911L6.86538 6.0485L7.12347 5.86328Z" fill="white"/>
<path d="M9.11234 6.0485L8.69938 6.34911L8.85728 5.86328L9.11234 6.0485Z" fill="white"/>
<path d="M8.93623 6.10627L8.52024 5.80566H9.0334L8.93623 6.10627Z" fill="white"/>
<path d="M8.8269 5.95745L8.9848 5.46859L9.14269 5.95745H8.8269Z" fill="white"/>
<path d="M8.93624 5.80566H9.44636L9.03341 6.10627L8.93624 5.80566Z" fill="white"/>
<path d="M9.11236 5.86328L9.27025 6.34911L8.8573 6.0485L9.11236 5.86328Z" fill="white"/>
<path d="M11.1012 6.0485L10.6883 6.34911L10.8461 5.86328L11.1012 6.0485Z" fill="white"/>
<path d="M10.9251 6.10627L10.5122 5.80566H11.0223L10.9251 6.10627Z" fill="white"/>
<path d="M10.8158 5.95745L10.9737 5.46859L11.1316 5.95745H10.8158Z" fill="white"/>
<path d="M10.9251 5.80566H11.4352L11.0223 6.10627L10.9251 5.80566Z" fill="white"/>
<path d="M11.1012 5.86328L11.2591 6.34911L10.8462 6.0485L11.1012 5.86328Z" fill="white"/>
<path d="M2.1498 6.90169L1.73381 7.2023L1.89474 6.71647L2.1498 6.90169Z" fill="white"/>
<path d="M1.97369 6.95946L1.5577 6.65885H2.07086L1.97369 6.95946Z" fill="white"/>
<path d="M1.86438 6.80761L2.02227 6.32178L2.18017 6.80761H1.86438Z" fill="white"/>
<path d="M1.97369 6.65885H2.48382L2.07086 6.95946L1.97369 6.65885Z" fill="white"/>
<path d="M2.14979 6.71647L2.30769 7.2023L1.89473 6.90169L2.14979 6.71647Z" fill="white"/>
<path d="M4.13866 6.90169L3.72571 7.2023L3.8836 6.71647L4.13866 6.90169Z" fill="white"/>
<path d="M3.96256 6.95946L3.54657 6.65885H4.05973L3.96256 6.95946Z" fill="white"/>
<path d="M3.85323 6.80761L4.01113 6.32178L4.16902 6.80761H3.85323Z" fill="white"/>
<path d="M3.96254 6.65885H4.47267L4.05971 6.95946L3.96254 6.65885Z" fill="white"/>
<path d="M4.13866 6.71647L4.29656 7.2023L3.88361 6.90169L4.13866 6.71647Z" fill="white"/>
<path d="M6.12754 6.90169L5.71458 7.2023L5.87247 6.71647L6.12754 6.90169Z" fill="white"/>
<path d="M5.95141 6.95946L5.53845 6.65885H6.04857L5.95141 6.95946Z" fill="white"/>
<path d="M5.8421 6.80761L6 6.32178L6.15789 6.80761H5.8421Z" fill="white"/>
<path d="M5.95142 6.65885H6.46154L6.04858 6.95946L5.95142 6.65885Z" fill="white"/>
<path d="M6.12754 6.71647L6.28543 7.2023L5.87248 6.90169L6.12754 6.71647Z" fill="white"/>
<path d="M8.11639 6.90169L7.70343 7.2023L7.86132 6.71647L8.11639 6.90169Z" fill="white"/>
<path d="M7.94028 6.95946L7.52732 6.65885H8.03745L7.94028 6.95946Z" fill="white"/>
<path d="M7.83097 6.80761L7.98887 6.32178L8.14676 6.80761H7.83097Z" fill="white"/>
<path d="M7.94029 6.65885H8.45345L8.03745 6.95946L7.94029 6.65885Z" fill="white"/>
<path d="M8.11639 6.71647L8.27428 7.2023L7.86133 6.90169L8.11639 6.71647Z" fill="white"/>
<path d="M10.1083 6.90169L9.6923 7.2023L9.8502 6.71647L10.1083 6.90169Z" fill="white"/>
<path d="M9.92913 6.95946L9.51617 6.65885H10.0293L9.92913 6.95946Z" fill="white"/>
<path d="M9.81984 6.80761L9.97774 6.32178L10.1356 6.80761H9.81984Z" fill="white"/>
<path d="M9.92916 6.65885H10.4423L10.0294 6.95946L9.92916 6.65885Z" fill="white"/>
<path d="M10.1083 6.71647L10.2662 7.2023L9.8502 6.90169L10.1083 6.71647Z" fill="white"/>
<path d="M1.15384 7.75505L0.740885 8.05565L0.89878 7.56982L1.15384 7.75505Z" fill="white"/>
<path d="M0.977734 7.81265L0.564779 7.51204H1.0749L0.977734 7.81265Z" fill="white"/>
<path d="M0.868429 7.66097L1.02632 7.17513L1.18422 7.66097H0.868429Z" fill="white"/>
<path d="M0.977742 7.51204H1.48786L1.07491 7.81265L0.977742 7.51204Z" fill="white"/>
<path d="M1.15384 7.56982L1.31174 8.05565L0.898783 7.75505L1.15384 7.56982Z" fill="white"/>
<path d="M3.14271 7.75505L2.72976 8.05565L2.88765 7.56982L3.14271 7.75505Z" fill="white"/>
<path d="M2.96661 7.81265L2.55365 7.51204H3.06377L2.96661 7.81265Z" fill="white"/>
<path d="M2.85728 7.66097L3.01517 7.17513L3.17307 7.66097H2.85728Z" fill="white"/>
<path d="M2.96659 7.51204H3.47975L3.06376 7.81265L2.96659 7.51204Z" fill="white"/>
<path d="M3.14272 7.56982L3.30061 8.05565L2.88765 7.75505L3.14272 7.56982Z" fill="white"/>
<path d="M5.13462 7.75505L4.71863 8.05565L4.87652 7.56982L5.13462 7.75505Z" fill="white"/>
<path d="M4.95546 7.81265L4.5425 7.51204H5.05262L4.95546 7.81265Z" fill="white"/>
<path d="M4.84615 7.66097L5.00405 7.17513L5.16194 7.66097H4.84615Z" fill="white"/>
<path d="M4.95546 7.51204H5.46862L5.05263 7.81265L4.95546 7.51204Z" fill="white"/>
<path d="M5.13462 7.56982L5.29252 8.05565L4.87653 7.75505L5.13462 7.56982Z" fill="white"/>
<path d="M7.12349 7.75505L6.7075 8.05565L6.86539 7.56982L7.12349 7.75505Z" fill="white"/>
<path d="M6.94736 7.81265L6.53137 7.51204H7.04453L6.94736 7.81265Z" fill="white"/>
<path d="M6.83805 7.66097L6.99595 7.17513L7.15384 7.66097H6.83805Z" fill="white"/>
<path d="M6.94737 7.51204H7.45749L7.04453 7.81265L6.94737 7.51204Z" fill="white"/>
<path d="M7.12347 7.56982L7.28137 8.05565L6.86538 7.75505L7.12347 7.56982Z" fill="white"/>
<path d="M9.11234 7.75505L8.69938 8.05565L8.85728 7.56982L9.11234 7.75505Z" fill="white"/>
<path d="M8.93623 7.81265L8.52024 7.51204H9.0334L8.93623 7.81265Z" fill="white"/>
<path d="M8.8269 7.66097L8.9848 7.17513L9.14269 7.66097H8.8269Z" fill="white"/>
<path d="M8.93624 7.51204H9.44636L9.03341 7.81265L8.93624 7.51204Z" fill="white"/>
<path d="M9.11236 7.56982L9.27025 8.05565L8.8573 7.75505L9.11236 7.56982Z" fill="white"/>
<path d="M11.1012 7.75505L10.6883 8.05565L10.8461 7.56982L11.1012 7.75505Z" fill="white"/>
<path d="M10.9251 7.81265L10.5122 7.51204H11.0223L10.9251 7.81265Z" fill="white"/>
<path d="M10.8158 7.66097L10.9737 7.17513L11.1316 7.66097H10.8158Z" fill="white"/>
<path d="M10.9251 7.51204H11.4352L11.0223 7.81265L10.9251 7.51204Z" fill="white"/>
<path d="M11.1012 7.56982L11.2591 8.05565L10.8462 7.75505L11.1012 7.56982Z" fill="white"/>
</svg>
