<svg width="52" height="32" viewBox="0 0 52 32" fill="none" xmlns="http://www.w3.org/2000/svg">
<path fill-rule="evenodd" clip-rule="evenodd" d="M8.33333 1C8.33333 0.447715 8.78105 0 9.33333 0H42.6667C43.2189 0 43.6667 0.447715 43.6667 1V10H51C51.5523 10 52 10.4477 52 11V21C52 21.5523 51.5523 22 51 22H43.6667V31C43.6667 31.5523 43.2189 32 42.6667 32H9.33333C8.78105 32 8.33333 31.5523 8.33333 31V22H1C0.447715 22 0 21.5523 0 21V11C0 10.4477 0.447715 10 1 10H8.33333V1ZM10.3333 10H25V2H10.3333V10ZM27 2V10H41.6667V2H27ZM2 12V20H16.6667V12H2ZM18.6667 12V20H33.3333V12H18.6667ZM35.3333 12V20H50V12H35.3333ZM10.3333 22V30H25V22H10.3333ZM27 22V30H41.6667V22H27Z" fill="#161616"/>
</svg>
