<svg width="84" height="49" viewBox="0 0 84 49" fill="none" xmlns="http://www.w3.org/2000/svg">
<path fill-rule="evenodd" clip-rule="evenodd" d="M34.5745 3.09689C36.5697 1.10118 39.228 0 42.0499 0C44.8719 0 47.5309 1.10123 49.5262 3.09716C49.5262 3.0972 49.5263 3.09724 49.5263 3.09728M72.0669 3.09728C74.1587 5.18831 77.5637 5.18827 79.6554 3.09716C80.6721 2.08046 82.3209 2.07995 83.3374 3.09751L81.9225 4.51102C81.6876 4.27584 81.3057 4.27533 81.0696 4.51137L81.0695 4.51146C78.1967 7.38355 73.5255 7.38355 70.6527 4.51146L70.6525 4.51125C69.0324 2.89059 66.8821 2 64.5905 2C62.5315 2 60.5893 2.72123 59.0409 4.0415C58.5833 4.46876 58.1082 4.90699 57.6507 5.27037C57.2094 5.62092 56.707 5.966 56.1849 6.14632C55.6811 6.34312 54.9697 6.49184 54.5333 6.56409C52.2709 6.93864 49.8594 6.25879 48.112 4.51137L48.1119 4.51125C46.4918 2.89059 44.3416 2 42.0499 2C39.7583 2 37.6087 2.89054 35.9886 4.51125L35.9878 4.51202C35.2181 5.28034 34.3179 5.8437 33.3581 6.20101C31.7031 7.11293 30.2068 6.92446 29.3986 6.53449C27.9969 6.26889 26.6547 5.59536 25.5708 4.51137C22.2288 1.16942 16.7893 1.16988 13.4471 4.51143C12.0571 5.90151 10.2042 6.66897 8.239 6.66897C6.27319 6.66897 4.42033 5.90154 3.03016 4.51137C2.79431 4.27552 2.41276 4.27552 2.17691 4.51137L0.762695 3.09716C1.77959 2.08026 3.42748 2.08026 4.44437 3.09716C5.45947 4.11225 6.80361 4.66897 8.239 4.66897C9.6737 4.66897 11.0179 4.11229 12.033 3.09716L12.0331 3.0971C16.156 -1.02519 22.8618 -1.02599 26.985 3.09716C27.805 3.91717 28.8258 4.41398 29.8923 4.59102L30.082 4.62251L30.2465 4.72212C30.3634 4.79289 31.2297 5.11277 32.4442 4.42059L32.5197 4.37756L32.6015 4.3482C33.3211 4.08986 33.9966 3.67357 34.5745 3.09689M72.0669 3.09728C70.0716 1.10127 67.4125 0 64.5905 0C62.0464 0 59.6366 0.897392 57.7238 2.53626L57.7075 2.55022L57.6918 2.56486C57.2235 3.00225 56.798 3.39356 56.4068 3.70427C56.0022 4.02569 55.7131 4.19556 55.5239 4.25865L55.496 4.26794L55.4687 4.27886C55.172 4.39755 54.6181 4.52283 54.2067 4.59095C52.5493 4.86532 50.7955 4.36637 49.5263 3.09728" fill="#194A99"/>
<path d="M54.9691 33.2143L54.9691 33.2142C54.8954 32.283 54.4657 31.4411 53.7551 30.8353L53.7545 30.8349C53.0444 30.2286 52.1459 29.9372 51.2148 30.0113L51.2142 30.0114C50.2833 30.085 49.4417 30.5146 48.8351 31.2251L54.9691 33.2143ZM54.9691 33.2143C55.0427 34.1452 54.7511 35.0446 54.1453 35.7548C53.5392 36.4653 52.698 36.8946 51.7667 36.969C51.6692 36.9765 51.5745 36.9804 51.4824 36.9804C50.6556 36.9804 49.8646 36.6905 49.2251 36.1448L49.225 36.1447C48.5148 35.5389 48.085 34.6967 48.0114 33.7662L48.0113 33.7657M54.9691 33.2143L48.0113 33.7657M48.0113 33.7657C47.9372 32.8347 48.2285 31.9362 48.8349 31.2253L48.0113 33.7657Z" stroke="#194A99" stroke-width="2"/>
<path d="M81.9691 20.2143L81.9691 20.2142C81.8954 19.283 81.4657 18.4411 80.7551 17.8353L80.7545 17.8349C80.0444 17.2286 79.1459 16.9372 78.2148 17.0113L78.2142 17.0114C77.2833 17.085 76.4417 17.5146 75.8351 18.2251L81.9691 20.2143ZM81.9691 20.2143C82.0427 21.1452 81.7511 22.0446 81.1453 22.7548C80.5392 23.4653 79.698 23.8946 78.7667 23.969C78.6692 23.9765 78.5745 23.9804 78.4824 23.9804C77.6556 23.9804 76.8646 23.6905 76.2251 23.1448L76.225 23.1447C75.5148 22.5389 75.085 21.6967 75.0114 20.7662L75.0113 20.7657M81.9691 20.2143L75.0113 20.7657M75.0113 20.7657C74.9372 19.8347 75.2285 18.9362 75.8349 18.2253L75.0113 20.7657Z" stroke="#194A99" stroke-width="2"/>
<path d="M24.9691 17.2143L24.9691 17.2142C24.8954 16.283 24.4657 15.4411 23.7551 14.8353L23.7545 14.8349C23.0444 14.2286 22.1459 13.9372 21.2148 14.0113L21.2142 14.0114C20.2833 14.085 19.4417 14.5146 18.8351 15.2251L24.9691 17.2143ZM24.9691 17.2143C25.0427 18.1452 24.7511 19.0446 24.1453 19.7548C23.5392 20.4653 22.698 20.8946 21.7667 20.969C21.6692 20.9765 21.5745 20.9804 21.4824 20.9804C20.6556 20.9804 19.8646 20.6905 19.2251 20.1448L19.225 20.1447C18.5148 19.5389 18.085 18.6967 18.0114 17.7662L18.0113 17.7657M24.9691 17.2143L18.0113 17.7657M18.0113 17.7657C17.9372 16.8347 18.2285 15.9362 18.8349 15.2253L18.0113 17.7657Z" stroke="#194A99" stroke-width="2"/>
<path d="M17.9691 40.2143L17.9691 40.2142C17.8954 39.283 17.4657 38.4411 16.7551 37.8353L16.7545 37.8349C16.0444 37.2286 15.1459 36.9372 14.2148 37.0113L14.2142 37.0114C13.2833 37.085 12.4417 37.5146 11.8351 38.2251L17.9691 40.2143ZM17.9691 40.2143C18.0427 41.1452 17.7511 42.0446 17.1453 42.7548C16.5392 43.4653 15.698 43.8946 14.7667 43.969C14.6692 43.9765 14.5745 43.9804 14.4824 43.9804C13.6556 43.9804 12.8646 43.6905 12.2251 43.1448L12.225 43.1447C11.5148 42.5389 11.085 41.6967 11.0114 40.7662L11.0113 40.7657M17.9691 40.2143L11.0113 40.7657M11.0113 40.7657C10.9372 39.8347 11.2285 38.9362 11.8349 38.2253L11.0113 40.7657Z" stroke="#194A99" stroke-width="2"/>
<path d="M29.9459 29.8024H27.2444C26.3587 29.8024 25.6409 30.5209 25.6409 31.4059C25.6409 32.2916 26.3587 33.0094 27.2444 33.0094H29.9459C30.8316 33.0094 31.5494 32.2916 31.5494 31.4059C31.5494 30.5209 30.8316 29.8024 29.9459 29.8024Z" fill="#194A99"/>
<path d="M74.5741 44.6762H70.5735C69.6878 44.6762 68.97 45.394 68.97 46.2797C68.97 47.1654 69.6878 47.8832 70.5735 47.8832H74.5741C75.4598 47.8832 76.1776 47.1654 76.1776 46.2797C76.1776 45.394 75.4598 44.6762 74.5741 44.6762Z" fill="#194A99"/>
<path d="M61.6041 16H57.6035C56.7178 16 56 16.7178 56 17.6035C56 18.4892 56.7178 19.207 57.6035 19.207H61.6041C62.4898 19.207 63.2077 18.4892 63.2077 17.6035C63.2077 16.7178 62.4898 16 61.6041 16Z" fill="#194A99"/>
<path d="M64.1597 44.6769C63.7375 44.6769 63.3241 44.8473 63.0259 45.1454C62.7278 45.4436 62.5562 45.857 62.5562 46.2804C62.5562 46.7026 62.7272 47.1141 63.0259 47.4141C63.3241 47.7123 63.7375 47.8839 64.1597 47.8839C64.5812 47.8839 64.9946 47.7123 65.2928 47.4141C65.5909 47.1141 65.7632 46.7026 65.7632 46.2804C65.7632 45.857 65.5915 45.4436 65.2928 45.1454C64.9946 44.8466 64.5812 44.6769 64.1597 44.6769Z" fill="#194A99"/>
<path d="M52.6035 16C52.1813 16 51.7679 16.1704 51.4698 16.4685C51.1716 16.7667 51 17.1801 51 17.6035C51 18.0257 51.171 18.4372 51.4698 18.7372C51.7679 19.0354 52.1813 19.207 52.6035 19.207C53.0251 19.207 53.4385 19.0354 53.7366 18.7372C54.0348 18.4372 54.207 18.0257 54.207 17.6035C54.207 17.1801 54.0354 16.7667 53.7366 16.4685C53.4385 16.1697 53.0251 16 52.6035 16Z" fill="#194A99"/>
<path d="M36.4256 45.1185H33.4341C32.549 45.1185 31.8306 45.8369 31.8306 46.722C31.8306 47.6077 32.549 48.3255 33.4341 48.3255H36.4256C37.3107 48.3255 38.0291 47.6077 38.0291 46.722C38.0291 45.8369 37.3113 45.1185 36.4256 45.1185Z" fill="#194A99"/>
<path d="M11.9571 25.7579C11.9571 24.8729 11.2393 24.1544 10.3536 24.1544H8.30346C7.4184 24.1544 6.69995 24.8729 6.69995 25.7579C6.69995 26.6436 7.4184 27.3614 8.30346 27.3614H10.3536C11.2393 27.3614 11.9571 26.6436 11.9571 25.7579Z" fill="#194A99"/>
</svg>
